<svg width="14.277891" height="7.7316508" viewBox="0 0 14.277891 7.7316508" fill="none" xmlns="http://www.w3.org/2000/svg">
<path d="M13.9636 0.295696C13.7623 0.106387 13.4893 3.91006e-05 13.2047 3.91006e-05C12.92 3.91006e-05 12.647 0.106387 12.4458 0.295696L7.13239 5.29423L1.81902 0.295696C1.61658 0.111752 1.34543 0.00996923 1.06399 0.0122705C0.782544 0.0145712 0.51332 0.120771 0.314301 0.307997C0.115283 0.495223 0.00239468 0.748496 -5.05447e-05 1.01326C-0.00249672 1.27803 0.105697 1.53311 0.301226 1.72356L6.37349 7.43603C6.57478 7.62534 6.84776 7.73169 7.13239 7.73169C7.41702 7.73169 7.68999 7.62534 7.89129 7.43603L13.9636 1.72356C14.1648 1.53419 14.2778 1.27739 14.2778 1.00963C14.2778 0.741865 14.1648 0.485063 13.9636 0.295696Z" fill="#262626"/>
</svg>
