<svg width="24" height="24" viewBox="0 0 24 24" fill="none" xmlns="http://www.w3.org/2000/svg">
<path d="M9.781 3.098L5.671 5.894C4.364 6.784 3.71 7.229 3.355 7.905C3 8.581 3 9.385 3 10.99V17.919C3 19.843 3 20.805 3.586 21.403C4.172 22.001 5.114 22 7 22H17C18.886 22 19.828 22 20.414 21.402C21 20.804 21 19.842 21 17.918V10.988C21 9.385 21 8.582 20.645 7.905C20.29 7.229 19.636 6.784 18.328 5.894L14.218 3.098C13.144 2.366 12.607 2 12 2C11.393 2 10.857 2.366 9.781 3.098Z" stroke="white" stroke-width="1.5" stroke-linecap="round" stroke-linejoin="round"/>
<path d="M7 22V15C7 13.114 7 12.172 7.586 11.586C8.172 11 9.114 11 11 11H13C14.886 11 15.828 11 16.414 11.586C17 12.172 17 13.114 17 15V22M7 14H17M7 18H17M12.008 7H11.999" stroke="white" stroke-width="1.5" stroke-linecap="round" stroke-linejoin="round"/>
</svg>
