<svg width="28" height="28" viewBox="0 0 28 28" fill="none" xmlns="http://www.w3.org/2000/svg">
<path d="M24.6591 17.5102L17.9466 24.2347L14.7049 20.9809L15.7895 19.8963L17.9466 22.0414L23.5745 16.4256L24.6591 17.5102ZM12.5478 7.71269H7.92015V6.17015H12.5478V7.71269ZM12.5478 10.7978H7.92015V9.25522H12.5478V10.7978ZM7.92015 12.3403H12.5478V13.8828H7.92015V12.3403ZM6.37761 7.71269H4.83507V6.17015H6.37761V7.71269ZM6.37761 10.7978H4.83507V9.25522H6.37761V10.7978ZM4.83507 12.3403H6.37761V13.8828H4.83507V12.3403ZM14.0903 7.71269V1.54254H3.29254V23.1381H14.0903V24.6806H1.75V0H15.1869L21.803 6.61604V15.4254L20.2604 16.9679V7.71269H14.0903ZM15.6328 6.17015H19.1638L15.6328 2.63919V6.17015Z" fill="white"/>
</svg>
