<svg width="33" height="30" viewBox="0 0 33 30" fill="none" xmlns="http://www.w3.org/2000/svg">
<path d="M32.8132 8.30773C32.7181 8.18483 32.592 8.08452 32.4455 8.01525C32.299 7.94597 32.1363 7.90976 31.9712 7.90967H9.97477L8.30973 2.68309C7.65677 0.625009 6.10519 0.402832 5.46881 0.402832H1.02922C0.46018 0.402832 0 0.822185 0 1.33965C0 1.85712 0.460698 2.27645 1.02919 2.27645H5.46826C5.6087 2.27645 6.03727 2.27645 6.32958 3.19581L12.0575 22.3573C12.1818 22.7615 12.5866 23.0407 13.0483 23.0407H27.0392C27.4735 23.0407 27.8611 22.7931 28.0078 22.4209L32.9392 9.16342C33.0527 8.87615 33.0055 8.55633 32.8132 8.30773H32.8132ZM26.3149 21.1676H13.8295L10.5533 9.78378H30.5079L26.3149 21.1676ZM24.2737 24.9394C22.8424 24.9394 21.6826 25.9951 21.6826 27.298C21.6826 28.6009 22.8424 29.6566 24.2737 29.6566C25.705 29.6566 26.8648 28.6009 26.8648 27.298C26.8648 25.9951 25.705 24.9394 24.2737 24.9394ZM14.9457 24.9394C13.5144 24.9394 12.3546 25.9951 12.3546 27.298C12.3546 28.6009 13.5144 29.6566 14.9457 29.6566C16.377 29.6566 17.5368 28.6009 17.5368 27.298C17.5368 25.9951 16.377 24.9394 14.9457 24.9394Z" fill="white"/>
</svg>
