<svg width="23" height="25" viewBox="0 0 23 25" fill="none" xmlns="http://www.w3.org/2000/svg">
<path d="M11.5 0.768066C13.025 0.768066 14.4875 1.39202 15.5659 2.50267C16.6442 3.61331 17.25 5.11967 17.25 6.69036C17.25 8.26105 16.6442 9.76741 15.5659 10.8781C14.4875 11.9887 13.025 12.6127 11.5 12.6127C9.97501 12.6127 8.51247 11.9887 7.43414 10.8781C6.3558 9.76741 5.75 8.26105 5.75 6.69036C5.75 5.11967 6.3558 3.61331 7.43414 2.50267C8.51247 1.39202 9.97501 0.768066 11.5 0.768066ZM11.5 15.5738C17.8538 15.5738 23 18.224 23 21.4961C23 23.1315 21.6742 24.4573 20.0389 24.4573H2.96115C1.32575 24.4573 0 23.1315 0 21.4961C0 18.224 5.14625 15.5738 11.5 15.5738Z" fill="#222222"/>
</svg>
