<svg width="23" height="25" viewBox="0 0 23 25" fill="none" xmlns="http://www.w3.org/2000/svg">
<path d="M22 23.4281L15 16.1922M1 10.1623C1 11.2709 1.21124 12.3687 1.62165 13.3929C2.03206 14.4171 2.63362 15.3477 3.39196 16.1316C4.15031 16.9155 5.05059 17.5373 6.04142 17.9616C7.03224 18.3858 8.0942 18.6042 9.16667 18.6042C10.2391 18.6042 11.3011 18.3858 12.2919 17.9616C13.2827 17.5373 14.183 16.9155 14.9414 16.1316C15.6997 15.3477 16.3013 14.4171 16.7117 13.3929C17.1221 12.3687 17.3333 11.2709 17.3333 10.1623C17.3333 9.05371 17.1221 7.95597 16.7117 6.93175C16.3013 5.90754 15.6997 4.97692 14.9414 4.19302C14.183 3.40912 13.2827 2.7873 12.2919 2.36306C11.3011 1.93881 10.2391 1.72046 9.16667 1.72046C8.0942 1.72046 7.03224 1.93881 6.04142 2.36306C5.05059 2.7873 4.15031 3.40912 3.39196 4.19302C2.63362 4.97692 2.03206 5.90754 1.62165 6.93175C1.21124 7.95597 1 9.05371 1 10.1623Z" stroke="#222222" stroke-width="2" stroke-linecap="round" stroke-linejoin="round"/>
</svg>
