<svg width="15" height="17" viewBox="0 0 15 17" fill="none" xmlns="http://www.w3.org/2000/svg">
<path d="M14.0514 7.92334L11.1731 10.697L12.05 14.845C12.0984 15.0702 12.0859 15.3064 12.0142 15.5236C11.9425 15.7409 11.8147 15.9296 11.647 16.0658C11.4793 16.202 11.2792 16.2796 11.072 16.2889C10.8648 16.2982 10.6598 16.2387 10.4829 16.118L7.25271 13.8979L4.0206 16.118C3.8437 16.238 3.63893 16.297 3.4321 16.2873C3.22526 16.2777 3.0256 16.1999 2.85825 16.0638C2.69091 15.9278 2.56336 15.7394 2.49168 15.5225C2.41999 15.3056 2.40737 15.0699 2.4554 14.845L3.33555 10.697L0.457169 7.92334C0.300647 7.77227 0.187448 7.57305 0.131708 7.35057C0.0759686 7.12808 0.0801584 6.89218 0.143755 6.67234C0.207351 6.4525 0.327535 6.25845 0.489297 6.11443C0.65106 5.97041 0.847231 5.8828 1.05331 5.86255L4.82719 5.52253L6.28301 1.58809C6.36181 1.37366 6.49593 1.19025 6.66831 1.06117C6.8407 0.932083 7.04356 0.863159 7.25111 0.863159C7.45866 0.863159 7.66152 0.932083 7.8339 1.06117C8.00629 1.19025 8.1404 1.37366 8.2192 1.58809L9.67438 5.52253L13.4483 5.86255C13.6548 5.88205 13.8515 5.96917 14.0138 6.11299C14.1762 6.25681 14.2969 6.45094 14.3609 6.67105C14.4249 6.89116 14.4293 7.12746 14.3736 7.35035C14.3179 7.57325 14.2045 7.77282 14.0476 7.92406L14.0514 7.92334Z" fill="#919191"/>
</svg>
