<svg width="48" height="48" viewBox="0 0 48 48" fill="none" xmlns="http://www.w3.org/2000/svg">
<path d="M24 0.606445C10.752 0.606445 0 11.1116 0 24.0554C0 36.9993 10.752 47.5044 24 47.5044C37.248 47.5044 48 36.9993 48 24.0554C48 11.1116 37.248 0.606445 24 0.606445ZM35.136 16.5518C34.776 20.2567 33.216 29.2611 32.424 33.4116C32.088 35.1703 31.416 35.7565 30.792 35.8268C29.4 35.9441 28.344 34.9358 27 34.0682C24.888 32.7081 23.688 31.8639 21.648 30.5508C19.272 29.0266 20.808 28.1825 22.176 26.8224C22.536 26.4707 28.68 21.0071 28.8 20.5146C28.8167 20.4401 28.8145 20.3626 28.7935 20.2891C28.7726 20.2155 28.7337 20.1481 28.68 20.0926C28.536 19.9753 28.344 20.0222 28.176 20.0457C27.96 20.0926 24.6 22.2733 18.048 26.5879C17.088 27.221 16.224 27.5493 15.456 27.5259C14.592 27.5024 12.96 27.0569 11.736 26.6583C10.224 26.1893 9.048 25.9314 9.144 25.1106C9.192 24.6886 9.792 24.2665 10.92 23.8209C17.928 20.8429 22.584 18.8732 24.912 17.9352C31.584 15.2152 32.952 14.7462 33.864 14.7462C34.056 14.7462 34.512 14.7931 34.8 15.0276C35.04 15.2152 35.112 15.4731 35.136 15.6607C35.112 15.8014 35.16 16.2235 35.136 16.5518Z" fill="#262626"/>
</svg>
