<svg width="39" height="29" viewBox="0 0 39 29" fill="none" xmlns="http://www.w3.org/2000/svg">
<path d="M35.0367 0.795029L2.02915 12.4288C0.70087 12.9705 0.251608 14.0555 1.70811 14.6443C7.12323 16.2172 12.9438 15.5404 17.8536 12.767L30.6502 5.53868C31.7681 4.81264 32.9125 5.00624 31.9277 5.80493L17.113 18.0649C15.3404 19.5319 14.2275 21.6465 14.022 23.9382L14.008 24.0941C13.8663 25.6737 14.5929 27.9822 15.8368 26.9984C18.7038 24.5189 22.8817 24.2829 26.0097 26.4237L29.0339 28.4936C30.9692 29.5407 32.0222 28.865 32.4385 26.9457L37.9037 3.29327C38.4711 0.930802 37.5035 -0.110124 35.0367 0.795029Z" fill="#F8F8F8"/>
</svg>
