<svg width="45" height="45" viewBox="0 0 45 45" fill="none" xmlns="http://www.w3.org/2000/svg">
<path d="M3.15 3.68831C5.96046e-07 6.79953 0 11.7745 0 21.7393V23.5003C0 33.4503 5.96046e-07 38.4254 3.15 41.5513C6.33 44.6331 11.415 44.6331 21.6 44.6331H23.4C33.57 44.6331 38.655 44.6331 41.85 41.5513C45 38.44 45 33.465 45 23.5003V21.7393C45 11.7892 45 6.81421 41.85 3.68831C38.67 0.606446 33.585 0.606445 23.4 0.606445H21.6C11.43 0.606445 6.345 0.606446 3.15 3.68831ZM7.59 14.0052H12.75C12.915 22.3997 16.695 25.9511 19.695 26.6849V14.0052H24.54V21.2403C27.495 20.9321 30.615 17.6301 31.665 13.9906H36.495C36.1009 15.8745 35.3141 17.6586 34.1837 19.2317C33.0533 20.8048 31.6035 22.133 29.925 23.1334C31.7986 24.0454 33.4532 25.3358 34.7796 26.9194C36.106 28.503 37.0741 30.3438 37.62 32.3203H32.295C31.155 28.8422 28.305 26.1419 24.54 25.775V32.3203H23.94C13.68 32.3203 7.83 25.4522 7.59 14.0052Z" fill="#262626"/>
</svg>
