<svg width="100" height="69" viewBox="0 0 100 69" fill="none" xmlns="http://www.w3.org/2000/svg">
<path d="M40.1667 49.125L65.6842 34.5L40.1667 19.875V49.125ZM97.0034 10.9538C97.6425 13.245 98.085 16.3162 98.3801 20.2162C98.7242 24.1162 98.8717 27.48 98.8717 30.405L99.1667 34.5C99.1667 45.1763 98.38 53.025 97.0034 58.0462C95.7742 62.4338 92.9225 65.2612 88.4975 66.48C86.1867 67.1137 81.9584 67.5525 75.4684 67.845C69.0767 68.1862 63.2259 68.3325 57.8175 68.3325L50 68.625C29.3992 68.625 16.5667 67.845 11.5025 66.48C7.07754 65.2612 4.22587 62.4338 2.99671 58.0462C2.35754 55.755 1.91504 52.6838 1.62004 48.7838C1.27587 44.8838 1.12837 41.52 1.12837 38.595L0.833374 34.5C0.833374 23.8237 1.62004 15.975 2.99671 10.9538C4.22587 6.56625 7.07754 3.73875 11.5025 2.52C13.8134 1.88625 18.0417 1.4475 24.5317 1.155C30.9234 0.813749 36.7742 0.6675 42.1825 0.6675L50 0.375C70.6009 0.375 83.4334 1.155 88.4975 2.52C92.9225 3.73875 95.7742 6.56625 97.0034 10.9538Z" fill="#D02C2C"/>
</svg>
