<svg width="22" height="25" viewBox="0 0 22 25" fill="none" xmlns="http://www.w3.org/2000/svg">
  <path d="M11.284 12.897C11.9969 12.897 12.6073 12.6618 13.115 12.1915C13.6227 11.7212 13.8766 11.1558 13.8766 10.4954C13.8766 9.83493 13.6227 9.26955 13.115 8.79923C12.6073 8.32892 11.9969 8.09376 11.284 8.09376C10.571 8.09376 9.96067 8.32892 9.45296 8.79923C8.94524 9.26955 8.69138 9.83493 8.69138 10.4954C8.69138 11.1558 8.94524 11.7212 9.45296 12.1915C9.96067 12.6618 10.571 12.897 11.284 12.897ZM11.284 21.7229C13.9198 19.4814 15.875 17.445 17.1497 15.6138C18.4244 13.7826 19.0618 12.1565 19.0618 10.7355C19.0618 8.55407 18.311 6.76787 16.8094 5.37693C15.3079 3.986 13.4661 3.29053 11.284 3.29053C9.10188 3.29053 7.26005 3.986 5.75851 5.37693C4.25697 6.76787 3.5062 8.55407 3.5062 10.7355C3.5062 12.1565 4.14354 13.7826 5.41823 15.6138C6.69292 17.445 8.64817 19.4814 11.284 21.7229ZM11.284 24.9051C7.80558 22.1632 5.20759 19.6165 3.48999 17.2649C1.7724 14.9133 0.913605 12.7369 0.913605 10.7355C0.913605 7.73352 1.95604 5.34191 4.04092 3.56071C6.1258 1.77952 8.54015 0.888916 11.284 0.888916C14.0278 0.888916 16.4422 1.77952 18.527 3.56071C20.6119 5.34191 21.6543 7.73352 21.6543 10.7355C21.6543 12.7369 20.7955 14.9133 19.078 17.2649C17.3604 19.6165 14.7624 22.1632 11.284 24.9051Z" fill="#DC0000" />
</svg>
