<svg width="193" height="204" viewBox="0 0 193 204" fill="none" xmlns="http://www.w3.org/2000/svg">
  <path d="M65.16 0.00134413C65.5949 0.189522 66.0598 0.220437 66.5209 0.264793C69.2752 0.528242 72.0413 0.658622 74.7865 1.04707C75.941 1.21106 77.1151 1.22988 78.2787 1.32531C79.3993 1.41671 80.5185 1.51752 81.6377 1.62102C84.4626 1.88446 87.2875 2.15329 90.1124 2.41674C93.0208 2.68825 95.9279 2.95977 98.8364 3.22859C100.384 3.37107 101.933 3.50683 103.479 3.65065C105.782 3.86571 108.083 4.09555 110.387 4.30255C112.297 4.4746 114.199 4.72192 116.115 4.85095C118.035 4.97999 119.949 5.19908 121.865 5.37919C123.774 5.55796 125.684 5.73539 127.594 5.91416C129.51 6.09292 131.426 6.27304 133.343 6.45315C135.729 6.67628 138.114 6.8994 140.5 7.12253C142.389 7.29995 144.279 7.48006 146.167 7.6548C148.174 7.84029 150.186 7.98277 152.188 8.21799C153.776 8.40482 155.374 8.45859 156.962 8.69246C157.523 8.77446 158.113 8.90349 158.703 8.86182C158.929 8.8457 159.218 8.76236 159.346 9.04463C159.485 9.35109 159.184 9.47878 159.026 9.63066C157.034 11.5366 155.035 13.4319 153.038 15.3311C151.424 16.8661 149.83 18.4239 148.193 19.9307C146.023 21.9254 143.917 23.9913 141.763 26.0035C139.856 27.7858 137.978 29.6071 136.098 31.4216C135.745 31.7617 135.66 32.0453 135.837 32.5225C136.739 34.9634 137.61 37.4164 138.477 39.8695C138.566 40.1195 138.819 40.3897 138.566 40.6733C138.305 40.9663 138.016 40.7956 137.737 40.6786C136.843 40.3023 135.92 39.9743 135.011 39.6894C133.878 39.3359 132.686 39.1127 131.549 38.7498C129.93 38.2323 128.25 37.8761 126.607 37.6423C124.339 37.3197 122.065 36.9312 119.76 36.7914C116.876 36.6153 113.999 36.3479 111.109 36.45C108.934 36.528 106.755 36.6301 104.591 36.8452C99.8995 37.3129 95.2893 38.2458 90.7471 39.5509C89.667 39.8614 88.6183 40.2593 87.5474 40.5926C85.2919 41.2929 83.1449 42.297 80.9482 43.1586C79.7388 43.633 78.5661 44.2123 77.4442 44.8199C74.8805 46.2057 72.3404 47.6547 69.8969 49.2757C63.8788 53.2704 58.4759 58.0017 53.6686 63.4589C52.0661 65.2788 50.6021 67.2171 49.1132 69.1351C48.267 70.2266 47.4442 71.3637 46.7324 72.5156C45.7425 74.1192 44.7473 75.7415 43.854 77.419C42.6225 79.7295 41.4862 82.0871 40.3618 84.4528C39.936 85.3493 39.6578 86.2983 39.2386 87.1908C39.1459 87.3884 39.091 87.6128 38.8037 87.6209C38.5177 87.629 38.519 87.3817 38.4433 87.2217C37.5565 85.3614 36.5561 83.5603 35.7111 81.6745C35.369 80.9124 35.0333 80.1247 34.6363 79.4137C34.1583 78.5548 33.7312 77.6596 33.2219 76.8168C33.0822 76.587 32.885 76.4996 32.629 76.4647C30.3944 76.1595 28.1625 75.8343 25.9266 75.5372C25.0372 75.4189 25.015 75.4606 25.015 76.3921C25.0176 84.9918 25.0229 93.5915 25.0268 102.191C25.0268 103.804 25.0072 105.417 25.0385 107.029C25.0503 107.64 24.8479 107.851 24.2497 107.85C21.639 107.843 19.027 107.866 16.4164 107.9C15.8221 107.908 15.5766 107.689 15.6576 107.066C15.941 104.901 16.1983 102.732 16.4869 100.566C16.7533 98.5702 16.9714 96.5661 17.2626 94.5754C17.5813 92.3912 17.8778 90.2043 18.1794 88.0188C18.4903 85.7633 18.8377 83.5133 19.0819 81.2471C19.2517 79.665 19.5703 78.0991 19.7728 76.5198C20.0157 74.6286 19.9112 74.6864 18.4367 74.5372C16.3693 74.3275 14.3098 74.0264 12.2502 73.7522C9.84851 73.4323 7.44417 73.1205 5.04375 72.7804C3.36816 72.5438 1.69518 72.2522 0 72.1702C0 71.9914 0 71.8113 0 71.6325C1.47839 69.9739 2.94763 68.3072 4.43777 66.6593C7.96918 62.7559 11.4 58.7558 14.9589 54.8766C16.1408 53.589 17.2613 52.226 18.4211 50.9088C22.1431 46.6788 25.8874 42.469 29.6265 38.2538C36.1617 30.888 42.6995 23.5262 49.2334 16.1604C51.2929 13.8391 53.3434 11.5111 55.4016 9.18845C56.9636 7.4263 58.5282 5.66684 60.0927 3.90738C60.5694 3.37107 61.02 2.80385 61.5359 2.31055C62.3038 1.57666 62.8667 0.641148 63.7221 0H65.1587L65.16 0.00134413Z" fill="#255582" />
  <path d="M110.994 203.741C110.825 203.53 110.59 203.616 110.386 203.612C108.682 203.58 106.991 203.4 105.298 203.198C99.0518 202.454 92.9815 200.943 87.0732 198.751C85.4159 198.135 83.7951 197.402 82.1679 196.695C79.1536 195.386 76.2791 193.83 73.4869 192.105C66.7193 187.929 60.743 182.758 55.4564 176.739C51.6194 172.371 48.2878 167.621 45.4903 162.487C42.0111 156.104 39.3286 149.378 37.5708 142.277C36.7872 139.114 36.2073 135.91 35.7842 132.673C35.233 128.458 35.1586 124.227 35.2578 119.985C35.297 118.323 35.4172 116.673 35.6105 115.021C35.7189 114.092 35.7802 113.15 35.903 112.22C36.5495 107.369 37.5773 102.605 39.0465 97.9465C40.3016 93.9692 41.699 90.043 43.3759 86.2324C44.5435 83.5778 45.7698 80.9419 47.2717 78.4647C51.1649 72.0451 55.6901 66.1525 61.1544 61.0609C63.0742 59.2719 65.0907 57.6092 67.1698 56.0097C70.4962 53.4492 74.0028 51.1883 77.5669 49.0189C80.0274 47.5202 82.6211 46.3119 85.3427 45.3548C86.6749 44.8871 87.9939 44.344 89.3417 43.9099C91.2132 43.3077 93.0964 42.7486 94.981 42.1921C97.1437 41.5523 99.343 41.0684 101.568 40.7378C103.452 40.4582 105.338 40.1894 107.239 40.0146C110.112 39.7512 112.982 39.5321 115.866 39.524C118.117 39.5186 120.354 39.766 122.596 39.9084C124.285 40.016 125.975 40.2095 127.648 40.4783C132.31 41.2284 136.886 42.344 141.34 43.9811C148.964 46.7863 156.026 50.6655 162.506 55.6576C163.76 56.6226 164.969 57.6482 166.194 58.6509C166.352 58.78 166.634 58.9251 166.427 59.1751C166.205 59.4426 166.044 59.1187 165.896 59.0031C162.741 56.5433 159.538 54.1589 156.082 52.1534C150.991 49.1977 145.558 47.0941 140 45.3051C135.974 44.0094 131.873 43.0389 127.686 42.5039C126.407 42.34 125.108 42.2808 123.823 42.1693C121.673 41.9838 119.532 41.9582 117.385 42.055C111.687 42.3104 106.109 43.2997 100.662 45.0309C92.5466 47.6089 85.2957 51.8389 78.6443 57.2356C77.9064 57.835 77.2234 58.4829 76.5155 59.1093C71.588 63.4669 67.5616 68.5988 64.1765 74.2858C62.847 76.5197 61.6977 78.8505 60.5654 81.1933C59.5898 83.2135 58.8115 85.313 58.1062 87.4421C56.9726 90.867 56.1969 94.3912 55.5386 97.9384C55.2526 99.4801 55.1717 101.062 54.9901 102.624C54.6649 105.432 54.7929 108.248 54.8687 111.061C54.8987 112.169 55.1233 113.272 55.2578 114.377C55.6496 117.603 56.2778 120.795 57.1333 123.91C57.8058 126.359 58.6456 128.779 59.6238 131.136C60.8279 134.039 62.1796 136.863 63.7246 139.593C66.0715 143.738 68.8533 147.547 71.9759 151.101C75.6679 155.303 79.8301 158.939 84.3737 162.127C88.0762 164.727 92.0151 166.873 96.0911 168.775C98.5085 169.903 100.975 170.881 103.518 171.657C107.119 172.755 110.773 173.645 114.477 174.255C116.13 174.528 117.811 174.714 119.492 174.859C123.422 175.199 127.351 175.179 131.277 174.958C133.222 174.849 135.16 174.554 137.091 174.274C140.36 173.8 143.584 173.075 146.755 172.133C149.67 171.267 152.515 170.207 155.307 168.973C157.441 168.031 159.492 166.928 161.559 165.853C161.725 165.767 161.934 165.587 162.097 165.75C162.293 165.946 162.087 166.168 161.994 166.352C160.848 168.642 159.65 170.907 158.546 173.22C155.835 178.903 153.21 184.631 150.027 190.059C148.862 192.047 147.68 194.026 146.466 195.982C146.098 196.574 145.595 197.037 144.91 197.331C139.212 199.784 133.322 201.552 127.235 202.61C125.054 202.989 122.856 203.252 120.653 203.474C119.831 203.557 119.014 203.559 118.194 203.606C118.014 203.616 117.795 203.524 117.657 203.736H110.998L110.994 203.741ZM91.618 184.438C91.7003 184.649 91.6141 184.76 91.5684 184.881C90.8671 186.778 90.1697 188.676 89.4697 190.574C89.1354 191.48 89.2176 191.67 90.1083 192.026C90.5524 192.203 91.0068 192.358 91.4444 192.553C91.9759 192.791 92.3024 192.648 92.5061 192.082C92.8901 191.016 93.3119 189.965 93.705 188.902C94.7041 186.198 95.6914 183.491 96.6918 180.788C96.8694 180.308 96.8133 179.921 96.3484 179.679C95.984 179.488 95.5922 179.355 95.2278 179.163C94.4834 178.769 93.8356 178.892 93.1826 179.413C91.9916 180.363 90.7692 181.272 89.5572 182.195C88.7187 182.832 87.8764 183.464 86.9948 184.131C86.9361 183.76 87.0928 183.553 87.1738 183.331C87.849 181.481 88.5189 179.629 89.2229 177.792C89.4527 177.192 89.2803 176.859 88.7396 176.633C88.2225 176.417 87.687 176.262 87.1881 175.98C86.748 175.731 86.2583 176.02 86.078 176.524C85.4302 178.332 84.7838 180.141 84.1256 181.946C83.4177 183.89 82.6968 185.827 81.985 187.769C81.6964 188.558 81.7735 188.748 82.5061 189.046C82.9097 189.211 83.3263 189.343 83.722 189.523C84.2771 189.776 84.7511 189.691 85.2343 189.309C86.4058 188.383 87.6008 187.487 88.788 186.581C89.7217 185.87 90.6581 185.163 91.6167 184.437L91.618 184.438ZM50.6385 131.138C49.4488 131.223 49.441 131.224 49.309 130.297C49.1771 129.368 49.1066 128.427 48.9342 127.506C48.7553 126.553 48.8741 126.398 49.8066 126.303C51.0121 126.183 52.207 125.97 53.4086 125.812C53.7311 125.769 53.8474 125.583 53.8644 125.282C53.9061 124.566 53.6815 123.88 53.6332 123.174C53.5927 122.576 53.3145 122.35 52.6837 122.466C51.4665 122.688 50.2259 122.779 49.0087 122.998C47.8555 123.205 46.6879 123.29 45.5321 123.455C44.1595 123.652 42.796 123.973 41.3908 123.938C40.5288 123.916 40.2663 124.312 40.3904 125.213C40.4387 125.567 40.4152 125.934 40.4923 126.278C40.713 127.282 40.555 127.564 41.6768 127.419C42.8953 127.261 44.102 127 45.3401 126.99C45.7189 126.988 45.9056 127.118 45.9513 127.498C46.0819 128.58 46.2321 129.66 46.351 130.743C46.4502 131.641 46.3693 131.72 45.4799 131.831C44.3423 131.973 43.2048 132.125 42.066 132.266C41.5945 132.325 41.3007 132.501 41.396 133.077C41.5149 133.798 41.5776 134.53 41.6977 135.25C41.7473 135.55 41.9171 135.796 42.2841 135.731C43.2989 135.552 44.3397 135.505 45.3401 135.351C46.5116 135.169 47.6935 134.976 48.8702 134.796C50.6281 134.527 52.3925 134.302 54.1582 134.089C54.6937 134.024 54.8804 133.814 54.8647 133.236C54.8452 132.562 54.7381 131.902 54.6754 131.235C54.6336 130.8 54.4024 130.654 53.9114 130.704C52.7307 130.822 51.5632 131.032 50.6399 131.137L50.6385 131.138ZM110.959 189.745C111.053 189.745 111.148 189.745 111.242 189.745C111.242 191.781 111.251 193.819 111.235 195.855C111.231 196.435 111.455 196.671 112.015 196.638C112.601 196.603 113.189 196.599 113.777 196.604C114.358 196.609 114.585 196.347 114.558 195.738C114.503 194.486 114.508 193.232 114.465 191.979C114.447 191.44 114.643 191.21 115.182 191.207C116.226 191.202 117.269 191.143 118.313 191.12C119.075 191.104 119.181 191.213 119.198 191.994C119.225 193.225 119.25 194.456 119.265 195.687C119.271 196.218 119.498 196.463 120.027 196.433C120.657 196.398 121.289 196.37 121.918 196.385C122.37 196.396 122.54 196.14 122.595 195.755C122.626 195.535 122.6 195.307 122.595 195.084C122.479 191.109 122.355 187.135 122.253 183.16C122.242 182.731 122.053 182.602 121.699 182.605C121.003 182.609 120.307 182.62 119.611 182.636C119.171 182.647 118.951 182.831 118.975 183.342C119.033 184.593 119.045 185.847 119.069 187.101C119.084 187.912 118.994 188.007 118.241 188.024C117.24 188.047 116.24 188.069 115.24 188.085C114.46 188.097 114.268 187.91 114.264 187.116C114.259 185.953 114.239 184.789 114.274 183.628C114.295 182.957 113.974 182.766 113.407 182.785C112.864 182.803 112.319 182.833 111.776 182.819C111.164 182.803 110.936 183.063 110.945 183.704C110.975 185.718 110.956 187.733 110.956 189.748L110.959 189.745ZM65.681 159.249C65.8168 156.95 64.8608 155.2 63.291 153.784C61.6063 152.264 59.8171 151.901 57.8542 152.966C56.2609 153.829 54.7733 154.893 53.3746 156.064C52.288 156.972 51.6873 158.106 51.8126 159.653C52.0098 162.076 52.9802 163.963 54.9705 165.309C56.7584 166.517 58.4954 166.623 60.2846 165.303C61.3647 164.506 62.5192 163.815 63.6241 163.052C64.9522 162.134 65.8808 160.974 65.6823 159.249H65.681ZM130.539 181.031C129.495 180.949 128.418 181.11 127.435 181.694C124.88 183.208 124.113 184.487 124.481 187.09C124.729 188.847 125.276 190.566 125.787 192.272C126.159 193.521 126.935 194.464 128.215 194.874C131.076 195.792 133.577 195.174 135.685 192.99C136.552 192.092 136.866 190.947 136.681 189.713C136.403 187.856 136 186.022 135.515 184.211C135.088 182.614 134.043 181.632 132.488 181.188C131.865 181.011 131.243 181.013 130.539 181.031ZM80.9585 175.769C80.8828 175.891 80.7927 176.043 80.696 176.189C79.0256 178.7 77.3514 181.207 75.6836 183.719C75.1508 184.522 75.1847 184.688 75.9396 185.233C76.2778 185.477 76.6161 185.721 76.957 185.961C77.768 186.531 77.9195 186.504 78.4641 185.683C79.5781 184.001 80.6372 182.278 81.8179 180.648C82.9045 179.146 83.8278 177.535 84.934 176.05C85.4355 175.376 85.3663 175.058 84.6466 174.578C83.6711 173.926 82.7712 173.166 81.7826 172.531C80.568 171.748 79.3952 170.894 78.2342 170.028C77.7432 169.662 77.4193 169.677 77.0353 170.177C76.2387 171.212 75.3937 172.207 74.5761 173.224C73.5222 174.535 72.4761 175.852 71.4221 177.163C71.0787 177.59 70.6516 178.042 70.0979 177.738C69.36 177.333 69.023 177.685 68.6978 178.269C68.5581 178.52 68.3949 178.761 68.229 178.996C67.9404 179.403 67.9769 179.738 68.4157 179.997C68.9238 180.298 69.4318 180.598 69.9372 180.902C70.8122 181.427 71.6455 181.332 72.4748 180.766C73.0102 180.401 73.4295 179.919 73.8395 179.429C75.2592 177.732 76.6291 175.993 77.9129 174.185C78.2042 173.775 78.4171 173.759 78.7906 174.052C79.3952 174.527 80.0391 174.947 80.6621 175.395C80.7822 175.481 80.9402 175.54 80.9585 175.767V175.769ZM44.7224 138.836C44.7224 138.836 44.7224 138.832 44.7224 138.829C44.375 138.829 44.0276 138.827 43.6802 138.829C42.6981 138.838 42.3651 139.318 42.6811 140.268C43.2623 142.015 43.2623 142.032 45.0633 142.041C45.5217 142.043 45.7136 142.227 45.8442 142.647C46.1263 143.558 46.4424 144.46 46.7545 145.361C47.3226 146.996 47.337 147.007 46.1067 148.143C45.7332 148.488 45.6065 148.879 45.7411 149.336C45.9291 149.974 46.1773 150.592 46.3967 151.218C46.5847 151.756 46.8694 151.794 47.2626 151.418C47.606 151.092 47.9952 150.824 48.3504 150.507C50.8945 148.237 53.4765 146.01 56.0571 143.783C57.6805 142.382 57.7549 142.104 56.8864 140.094C56.8603 140.034 56.829 139.975 56.8041 139.913C56.5821 139.35 56.176 139.113 55.587 139.101C51.9641 139.02 48.3426 138.925 44.7211 138.833L44.7224 138.836ZM106.296 195.994C107.138 196.084 107.114 195.409 107.204 194.882C107.644 192.318 108.066 189.749 108.495 187.182C108.71 185.901 108.919 184.618 109.147 183.34C109.254 182.742 109.087 182.403 108.458 182.34C108.006 182.294 107.56 182.172 107.11 182.098C106.044 181.922 105.954 182.003 105.778 183.126C105.557 184.534 105.302 185.936 105.097 187.346C105.028 187.824 104.79 188.073 104.368 187.996C103.475 187.834 102.581 187.648 101.712 187.383C100.811 187.106 100.337 186.186 100.586 185.262C100.889 184.143 100.965 182.983 101.195 181.851C101.295 181.356 101.093 181.012 100.595 180.915C100.02 180.802 99.4383 180.719 98.8598 180.618C98.2865 180.517 98.0357 180.792 97.9286 181.356C97.6883 182.63 97.3997 183.889 97.2939 185.192C97.1398 187.097 97.6165 188.898 99.4436 189.734C100.76 190.336 102.157 190.652 103.58 190.818C104.337 190.905 104.382 190.955 104.256 191.69C104.071 192.772 103.952 193.866 103.811 194.956C103.761 195.338 103.97 195.553 104.308 195.623C104.968 195.759 105.631 195.873 106.294 195.996L106.296 195.994ZM67.8672 160.729C67.6426 160.698 67.4558 160.807 67.2965 160.967C67.0014 161.264 66.7166 161.572 66.4202 161.866C65.9683 162.314 65.9735 162.741 66.4332 163.185C67.017 163.75 67.5747 164.341 68.1663 164.897C68.4889 165.201 68.4549 165.412 68.1506 165.713C67.0836 166.766 66.0414 167.845 64.9888 168.912C63.8905 170.028 62.7856 171.137 61.6938 172.259C61.157 172.81 61.1623 173.041 61.6847 173.606C61.9994 173.946 62.3298 174.271 62.6511 174.603C63.3498 175.325 63.4726 175.322 64.1791 174.603C66.2831 172.468 68.4001 170.344 70.4857 168.189C70.8514 167.811 71.0382 167.861 71.3555 168.219C71.9119 168.845 72.5283 169.416 73.1017 170.028C73.4686 170.419 73.7834 170.416 74.1386 170.012C74.473 169.63 74.8334 169.271 75.1965 168.919C75.5373 168.588 75.5334 168.282 75.2082 167.946C73.0076 165.672 70.8109 163.393 68.6116 161.119C68.4118 160.912 68.1976 160.719 67.8711 160.729H67.8672Z" fill="#DC0000" />
  <path d="M192.999 126.868C192.83 127.013 192.732 127.196 192.74 127.426C192.791 128.868 192.612 130.302 192.47 131.724C192.347 132.952 192.237 134.191 192.001 135.414C191.747 136.729 191.596 138.063 191.331 139.382C191.07 140.683 190.765 141.973 190.479 143.268C190.085 145.051 189.514 146.784 189.041 148.543C188.556 150.354 187.955 152.118 187.242 153.834C186.076 156.639 184.84 159.416 183.411 162.094C181.783 165.143 179.948 168.06 177.894 170.825C176.555 172.626 175.193 174.415 173.744 176.121C172.592 177.477 171.279 178.687 170.067 179.989C168.749 181.405 167.37 182.753 165.911 184.011C161.199 188.076 156.137 191.599 150.656 194.476C150.259 194.685 150.226 194.69 149.795 194.666C149.872 194.197 150.195 193.874 150.448 193.523C153.676 189.073 156.744 184.511 159.486 179.722C163.37 172.934 166.67 165.883 168.472 158.178C169.056 155.681 169.449 153.157 169.548 150.564C169.612 148.892 169.689 147.224 169.616 145.557C169.386 140.304 167.782 135.528 164.894 131.183C163.414 128.957 161.71 126.93 159.736 125.199C156.96 122.762 153.855 120.797 150.543 119.185C145.454 116.709 140.101 115.088 134.596 113.985C128.963 112.856 123.262 112.278 117.53 112.025C116.379 111.974 115.228 111.925 114.077 111.865C113.876 111.854 113.575 111.921 113.528 111.646C113.479 111.364 113.755 111.231 113.972 111.139C114.681 110.837 115.447 110.784 116.192 110.64C123.978 109.135 131.784 107.726 139.509 105.904C143.658 104.924 147.76 103.763 151.762 102.265C156.776 100.389 161.651 98.2221 165.919 94.8214C169.107 92.281 171.733 89.2756 173.461 85.4945C174.29 83.6813 174.823 81.7861 175.152 79.8008C175.386 78.3868 175.468 76.9701 175.473 75.5628C175.483 73.1783 175.279 70.7938 174.679 68.4698C174.615 68.2212 174.537 67.9698 174.836 67.8381C175.14 67.7037 175.267 67.9671 175.394 68.1647C176.548 69.9618 177.767 71.7078 178.853 73.56C179.941 75.4136 181.011 77.2833 182.082 79.1476C182.719 80.2578 183.214 81.4541 183.777 82.6087C185.112 85.348 186.235 88.1788 187.276 91.0471C188.16 93.4827 188.923 95.9532 189.628 98.4492C190.247 100.643 190.678 102.877 191.2 105.092C191.77 107.509 192.054 109.958 192.38 112.412C192.63 114.314 192.685 116.225 192.873 118.127C192.884 118.235 192.863 118.354 193 118.399V126.865L192.999 126.868Z" fill="#255582" />
  <path d="M136.053 80.0897C136.053 72.5519 142.088 66.3003 149.479 66.4388C157.153 66.5813 162.621 72.4658 162.772 80.1892C162.925 88.0147 156.598 94.0512 149.263 94.0203C141.886 93.9893 135.909 87.6357 136.054 80.0911L136.053 80.0897Z" fill="#255582" />
  <path d="M73.1528 117.736C73.619 117.633 73.7744 117.974 73.8658 118.329C74.2041 119.641 74.6246 120.931 75.0086 122.225C75.3965 123.533 75.8287 124.84 76.2558 126.142C76.5601 127.07 76.4648 127.261 75.625 127.648C74.0879 128.357 73.8867 128.244 73.3696 126.606C72.9046 125.13 72.5494 123.619 71.9669 122.18C71.7736 121.7 71.566 121.584 71.1167 121.754C69.7141 122.285 69.5848 121.973 70.1216 123.567C70.5499 124.837 70.8033 126.16 71.2787 127.415C71.4484 127.863 71.357 128.242 70.8189 128.399C68.792 128.992 68.9109 129.215 68.2958 127.137C67.9614 126.006 67.5944 124.887 67.2771 123.752C67.1347 123.243 66.8344 123.15 66.4099 123.273C65.9711 123.399 65.548 123.58 65.1065 123.693C64.6037 123.821 64.5214 124.08 64.6782 124.57C65.1823 126.137 65.6498 127.718 66.1317 129.292C66.184 129.462 66.2454 129.63 66.2885 129.802C66.5092 130.688 66.3668 130.946 65.5166 131.223C63.8619 131.763 63.8737 131.759 63.3552 130.027C62.6095 127.533 61.8428 125.048 61.0854 122.559C60.8229 121.696 60.8738 121.599 61.7266 121.324C65.258 120.18 68.7894 119.033 72.3222 117.892C72.5886 117.806 72.8537 117.682 73.1528 117.737V117.736Z" fill="#255582" />
  <path d="M105.489 154.416C107.477 154.31 109.066 155.135 110.38 156.623C111.396 157.773 111.738 159.093 111.346 160.595C110.878 162.395 110.366 164.185 109.668 165.905C108.958 167.658 107.541 168.494 105.799 168.639C103.817 168.805 102.031 168.162 100.606 166.689C99.3979 165.439 98.9434 163.931 99.4384 162.204C99.8733 160.684 100.307 159.161 100.824 157.67C101.632 155.337 103.001 154.417 105.489 154.415V154.416ZM108.26 159.667C108.247 158.179 106.897 157.049 105.561 157.276C104.661 157.428 104.085 157.972 103.8 158.854C103.424 160.017 103.096 161.198 102.655 162.334C102.349 163.122 102.376 164.493 102.991 164.965C104.479 166.107 106.226 166.06 106.916 164.115C107.376 162.822 107.754 161.497 108.158 160.184C108.224 159.974 108.245 159.749 108.26 159.667Z" fill="#255582" />
  <path d="M81.3638 137.593C83.6558 137.797 85.2465 139.101 86.2769 141.139C87.5346 143.624 87.1715 145.487 85.1747 147.397C84.2827 148.25 83.3828 149.093 82.483 149.937C80.507 151.791 78.7884 152.017 76.5238 150.551C74.5517 149.275 73.4103 147.404 73.405 144.955C73.4024 143.944 73.8961 143.078 74.6196 142.383C74.8991 142.116 75.2099 142.116 75.492 142.398C75.7101 142.616 75.8995 142.867 76.1254 143.074C76.7797 143.674 77.1206 144.249 76.5316 145.179C75.8734 146.222 77.3753 148.059 78.3691 148.116C79.1906 148.163 79.905 148.011 80.4888 147.35C80.7395 147.065 80.7382 146.883 80.494 146.621C79.9376 146.023 79.393 145.414 78.855 144.799C78.3626 144.235 78.377 143.954 78.8928 143.434C79.7356 142.585 80.5632 142.599 81.3755 143.476C81.749 143.882 82.0912 144.317 82.4438 144.742C82.7716 145.137 83.055 145.09 83.3254 144.671C83.7903 143.953 84.1129 143.157 83.6963 142.356C83.2118 141.425 82.4569 140.581 81.3481 140.735C79.8645 140.942 79.4623 139.708 78.7087 138.94C78.4305 138.656 78.7335 138.41 78.9908 138.265C79.7221 137.852 80.477 137.52 81.3651 137.594L81.3638 137.593Z" fill="#255582" />
  <path d="M129.158 166.232C128.701 166.232 128.244 166.234 127.788 166.232C127.401 166.231 127.169 166.068 127.196 165.629C127.205 165.473 127.191 165.315 127.187 165.158C127.148 163.528 127.148 163.52 128.735 163.435C129.299 163.404 129.866 163.427 130.431 163.42C130.856 163.416 131.047 163.239 130.997 162.758C130.861 161.495 129.93 160.821 128.981 160.833C127.874 160.848 127.029 161.146 126.443 162.12C126.318 162.326 126.151 162.455 125.916 162.461C125.285 162.473 124.655 162.486 124.024 162.479C123.595 162.475 123.447 162.194 123.515 161.802C123.729 160.551 124.251 159.451 125.359 158.826C127.146 157.818 129.073 157.528 131.006 158.28C132.873 159.009 134.141 160.227 134.152 162.557C134.158 163.975 134.237 165.407 134.301 166.83C134.423 169.567 132.885 171.368 130.468 171.947C128.152 172.503 126.027 172.144 124.403 170.145C123.917 169.548 123.68 168.826 123.545 168.072C123.469 167.653 123.611 167.369 124.059 167.316C124.404 167.274 124.75 167.234 125.093 167.184C125.949 167.059 126.531 167.22 126.874 168.226C127.247 169.324 128.56 169.601 129.896 169.066C130.82 168.695 131.369 167.513 131.1 166.513C131.02 166.216 130.815 166.215 130.596 166.213C130.118 166.209 129.638 166.213 129.16 166.213C129.16 166.22 129.16 166.225 129.16 166.232H129.158Z" fill="#255582" />
  <path d="M81.3387 135.406C81.3322 135.421 81.3139 135.554 81.2408 135.613C80.6962 136.058 80.1124 136.453 79.4803 136.747C79.1277 136.911 78.9344 136.583 78.7725 136.313C78.1129 135.21 77.4599 134.102 76.8017 132.997C76.3459 132.231 76.1396 132.173 75.4056 132.641C72.9151 134.23 70.4271 135.825 67.9379 137.417C67.2836 137.835 67.1413 137.8 66.7469 137.138C66.4974 136.719 66.2467 136.301 65.9998 135.88C65.578 135.159 65.595 135.043 66.2845 134.601C68.5687 133.133 70.8581 131.675 73.1449 130.212C74.178 129.552 75.2175 128.903 76.2388 128.224C76.7351 127.894 77.0577 127.997 77.3594 128.501C78.6118 130.594 79.8825 132.673 81.1441 134.761C81.246 134.929 81.3805 135.089 81.3361 135.403L81.3387 135.406Z" fill="#255582" />
  <path d="M121.221 160.873C120.515 160.697 119.67 160.659 118.836 160.53C118.281 160.444 117.716 160.509 117.166 160.344C116.817 160.239 116.619 160.389 116.578 160.818C116.489 161.774 116.341 162.723 116.224 163.676C115.954 165.897 115.685 168.119 115.426 170.344C115.356 170.946 114.984 171.125 114.482 171.076C113.923 171.023 113.365 170.931 112.816 170.814C112.327 170.709 112.095 170.442 112.215 169.853C112.379 169.048 112.451 168.221 112.551 167.403C112.82 165.182 113.086 162.962 113.342 160.74C113.445 159.844 113.524 158.943 113.604 158.044C113.676 157.237 113.868 157.041 114.598 157.123C116.6 157.346 118.603 157.565 120.601 157.818C122.319 158.036 122.317 158.057 122.241 159.956C122.212 160.689 122.041 160.862 121.221 160.872V160.873Z" fill="#255582" />
  <path d="M89.0377 153.964C89.0011 152.443 90.0969 151.224 91.5348 151.186C93.0406 151.147 94.2356 152.287 94.2747 153.8C94.3126 155.275 93.162 156.485 91.745 156.584C90.6049 156.665 88.9411 155.536 89.0364 153.963L89.0377 153.964Z" fill="#255582" />
  <path d="M91.618 184.438C90.6594 185.164 89.723 185.871 88.7892 186.582C87.6021 187.487 86.4071 188.385 85.2356 189.311C84.7524 189.693 84.2783 189.776 83.7233 189.525C83.3262 189.344 82.9109 189.211 82.5074 189.047C81.7747 188.748 81.6964 188.559 81.9863 187.77C82.6981 185.83 83.419 183.891 84.1268 181.948C84.7837 180.143 85.4315 178.333 86.0793 176.525C86.2595 176.021 86.7506 175.732 87.1894 175.981C87.687 176.262 88.2237 176.418 88.7409 176.634C89.2816 176.86 89.454 177.194 89.2241 177.793C88.5189 179.63 87.8502 181.483 87.175 183.332C87.094 183.555 86.9373 183.761 86.9961 184.132C87.8789 183.465 88.7213 182.835 89.5585 182.196C90.7704 181.274 91.9928 180.364 93.1839 179.414C93.8369 178.894 94.486 178.769 95.2291 179.164C95.5922 179.356 95.9853 179.491 96.3496 179.68C96.8146 179.923 96.8707 180.311 96.6931 180.789C95.6927 183.492 94.7054 186.201 93.7063 188.904C93.3132 189.967 92.8914 191.018 92.5074 192.084C92.3037 192.65 91.9772 192.791 91.4456 192.554C91.0081 192.359 90.5536 192.205 90.1096 192.027C89.2189 191.671 89.1366 191.482 89.471 190.576C90.1697 188.678 90.8684 186.778 91.5697 184.882C91.6154 184.76 91.7016 184.651 91.6193 184.44L91.618 184.438Z" fill="#FCFCFD" />
  <path d="M50.6388 131.138C51.5621 131.032 52.7297 130.824 53.9103 130.706C54.4014 130.656 54.6338 130.801 54.6743 131.237C54.737 131.903 54.8454 132.563 54.8637 133.238C54.8793 133.816 54.6926 134.024 54.1571 134.09C52.3914 134.304 50.627 134.53 48.8692 134.797C47.6925 134.977 46.5105 135.171 45.3391 135.352C44.3387 135.507 43.2978 135.554 42.283 135.733C41.9147 135.797 41.7463 135.551 41.6966 135.251C41.5752 134.531 41.5138 133.798 41.395 133.078C41.2996 132.504 41.5935 132.327 42.0649 132.267C43.2038 132.126 44.34 131.974 45.4788 131.832C46.3682 131.72 46.4492 131.641 46.3499 130.745C46.2311 129.661 46.0809 128.582 45.9503 127.5C45.9046 127.119 45.7178 126.989 45.3391 126.992C44.1023 127.001 42.8942 127.262 41.6757 127.421C40.5539 127.566 40.7132 127.285 40.4912 126.279C40.4155 125.934 40.439 125.567 40.3893 125.215C40.264 124.313 40.5278 123.918 41.3897 123.939C42.795 123.974 44.1597 123.653 45.531 123.457C46.6882 123.291 47.8544 123.207 49.0076 123C50.2261 122.781 51.4655 122.689 52.6827 122.467C53.3135 122.352 53.5916 122.578 53.6321 123.176C53.6804 123.883 53.9051 124.568 53.8633 125.283C53.8463 125.584 53.7288 125.77 53.4075 125.813C52.206 125.972 51.0097 126.184 49.8056 126.305C48.8731 126.399 48.7542 126.555 48.9332 127.508C49.1055 128.429 49.1761 129.368 49.308 130.298C49.4386 131.224 49.4477 131.223 50.6375 131.14L50.6388 131.138Z" fill="#FCFCFD" />
  <path d="M110.959 189.745C110.959 187.73 110.977 185.717 110.948 183.702C110.939 183.061 111.166 182.8 111.779 182.816C112.322 182.829 112.867 182.8 113.41 182.782C113.977 182.764 114.298 182.954 114.277 183.625C114.241 184.786 114.26 185.95 114.267 187.113C114.271 187.907 114.463 188.096 115.242 188.082C116.243 188.066 117.243 188.045 118.244 188.022C118.997 188.004 119.087 187.909 119.072 187.098C119.048 185.844 119.035 184.59 118.978 183.339C118.954 182.828 119.173 182.644 119.614 182.633C120.31 182.617 121.006 182.608 121.702 182.602C122.056 182.6 122.245 182.729 122.256 183.157C122.357 187.132 122.482 191.106 122.598 195.081C122.604 195.304 122.63 195.533 122.598 195.752C122.543 196.138 122.374 196.393 121.921 196.382C121.292 196.366 120.66 196.394 120.03 196.431C119.501 196.46 119.274 196.216 119.267 195.685C119.252 194.453 119.228 193.222 119.201 191.991C119.184 191.21 119.078 191.101 118.315 191.117C117.272 191.14 116.228 191.201 115.185 191.205C114.646 191.207 114.45 191.437 114.468 191.976C114.51 193.229 114.504 194.484 114.561 195.736C114.588 196.345 114.361 196.605 113.78 196.601C113.192 196.596 112.604 196.6 112.018 196.635C111.456 196.668 111.233 196.432 111.238 195.853C111.254 193.816 111.245 191.779 111.245 189.742C111.151 189.742 111.055 189.742 110.961 189.742L110.959 189.745Z" fill="#FCFCFD" />
  <path d="M65.681 159.251C65.8808 160.974 64.9522 162.135 63.6227 163.053C62.5178 163.817 61.3646 164.508 60.2833 165.305C58.4928 166.625 56.7571 166.52 54.9692 165.31C52.9788 163.965 52.0085 162.077 51.8113 159.654C51.6859 158.107 52.288 156.975 53.3733 156.065C54.772 154.894 56.2595 153.83 57.8528 152.967C59.8157 151.902 61.6049 152.265 63.2897 153.785C64.8595 155.202 65.8155 156.951 65.6796 159.251H65.681ZM62.7176 158.087C62.5949 157.295 62.1548 156.462 61.2784 155.974C60.4753 155.526 59.6982 155.728 58.9512 156.245C58.0539 156.869 57.1593 157.497 56.2386 158.087C55.5451 158.532 54.8804 159.093 54.849 160.065C54.8138 161.181 55.3597 162.002 56.2255 162.569C57.0144 163.087 57.8202 162.857 58.5528 162.357C59.6394 161.616 60.7103 160.852 61.7956 160.108C62.4264 159.677 62.7124 159.073 62.7176 158.087Z" fill="#FCFCFD" />
  <path d="M130.538 181.031C131.242 181.015 131.864 181.011 132.487 181.188C134.042 181.63 135.087 182.613 135.514 184.211C135.999 186.022 136.404 187.856 136.68 189.713C136.865 190.947 136.551 192.092 135.684 192.99C133.576 195.174 131.075 195.792 128.214 194.874C126.934 194.464 126.158 193.519 125.786 192.272C125.277 190.566 124.729 188.846 124.48 187.09C124.112 184.487 124.88 183.208 127.434 181.694C128.417 181.11 129.495 180.95 130.538 181.031ZM133.349 189.877C133.037 188.417 132.763 186.717 132.249 185.078C132.036 184.398 131.463 184.012 130.783 183.878C129.598 183.641 128.414 184.297 127.873 185.403C127.634 185.893 127.744 186.323 127.862 186.805C128.188 188.127 128.432 189.468 128.767 190.787C129.067 191.961 130.003 192.504 131.238 192.314C132.589 192.104 133.361 191.297 133.349 189.878V189.877Z" fill="#FCFCFD" />
  <path d="M80.9587 175.77C80.9405 175.543 80.7824 175.484 80.6623 175.398C80.038 174.95 79.3955 174.529 78.7908 174.055C78.416 173.762 78.2044 173.778 77.9132 174.188C76.6294 175.996 75.2594 177.735 73.8398 179.432C73.4297 179.921 73.0118 180.403 72.475 180.769C71.6457 181.333 70.8138 181.43 69.9374 180.905C69.432 180.601 68.924 180.301 68.416 180C67.9772 179.741 67.9406 179.406 68.2292 178.999C68.3951 178.763 68.5583 178.524 68.6981 178.272C69.0232 177.688 69.3589 177.336 70.0981 177.741C70.6505 178.044 71.0776 177.593 71.4224 177.165C72.4763 175.855 73.5224 174.538 74.5763 173.227C75.3952 172.21 76.2389 171.215 77.0355 170.18C77.4195 169.681 77.7434 169.665 78.2344 170.031C79.3955 170.896 80.5682 171.751 81.7828 172.533C82.7715 173.169 83.6713 173.929 84.6469 174.581C85.3665 175.06 85.4357 175.378 84.9342 176.052C83.828 177.538 82.9047 179.151 81.8181 180.651C80.6375 182.281 79.5783 184.004 78.4643 185.686C77.9197 186.507 77.7682 186.534 76.9572 185.964C76.6163 185.725 76.2781 185.48 75.9398 185.235C75.1849 184.69 75.151 184.524 75.6838 183.722C77.3516 181.21 79.0259 178.702 80.6962 176.192C80.7929 176.046 80.8817 175.895 80.9587 175.771V175.77Z" fill="#FCFCFD" />
  <path d="M44.7211 138.836C48.3426 138.928 51.9654 139.023 55.5869 139.104C56.1746 139.117 56.5821 139.352 56.8041 139.916C56.8289 139.977 56.8603 140.036 56.8864 140.097C57.7536 142.105 57.6804 142.385 56.0571 143.785C53.4764 146.012 50.8945 148.24 48.3504 150.51C47.9952 150.827 47.606 151.095 47.2625 151.421C46.8694 151.795 46.5847 151.757 46.3966 151.221C46.1772 150.593 45.9291 149.976 45.741 149.339C45.6065 148.884 45.7332 148.491 46.1067 148.146C47.337 147.01 47.3239 146.999 46.7545 145.363C46.4411 144.463 46.1263 143.561 45.8442 142.649C45.7149 142.23 45.5216 142.046 45.0632 142.043C43.2623 142.035 43.2623 142.018 42.6811 140.27C42.365 139.321 42.6981 138.841 43.6802 138.832C44.0276 138.829 44.375 138.832 44.7224 138.832C44.7224 138.835 44.7224 138.836 44.7224 138.839L44.7211 138.836ZM50.8801 142.059C50.201 142.059 49.6799 142.07 49.1588 142.055C48.8389 142.046 48.7109 142.145 48.8297 142.484C49.0922 143.24 49.3534 143.995 49.5989 144.757C49.6995 145.068 49.8392 145.085 50.0678 144.894C51.029 144.094 51.9941 143.3 52.9567 142.502C53.0716 142.406 53.2192 142.316 53.0964 142.123C53.0037 141.975 52.8639 141.897 52.7098 141.952C52.0555 142.184 51.3829 142.01 50.8801 142.061V142.059Z" fill="#FCFCFD" />
  <path d="M106.295 195.994C105.633 195.87 104.969 195.756 104.31 195.62C103.971 195.55 103.762 195.337 103.812 194.953C103.952 193.863 104.071 192.769 104.257 191.687C104.384 190.952 104.338 190.904 103.581 190.815C102.157 190.65 100.761 190.334 99.4448 189.732C97.6177 188.895 97.141 187.096 97.2951 185.19C97.4009 183.886 97.6895 182.628 97.9298 181.354C98.0369 180.789 98.2877 180.515 98.861 180.616C99.4396 180.718 100.021 180.801 100.597 180.913C101.094 181.009 101.297 181.354 101.196 181.848C100.966 182.98 100.891 184.139 100.588 185.26C100.337 186.183 100.811 187.104 101.713 187.381C102.582 187.647 103.476 187.832 104.37 187.994C104.792 188.07 105.029 187.821 105.098 187.343C105.302 185.933 105.558 184.531 105.779 183.124C105.955 181.999 106.045 181.918 107.111 182.096C107.562 182.171 108.006 182.292 108.459 182.337C109.088 182.402 109.255 182.741 109.148 183.337C108.92 184.616 108.712 185.898 108.497 187.179C108.067 189.746 107.645 192.314 107.205 194.879C107.115 195.406 107.14 196.081 106.297 195.991L106.295 195.994Z" fill="#FCFCFD" />
  <path d="M67.8659 160.729C68.1924 160.719 68.4065 160.912 68.6063 161.119C70.8056 163.393 73.0023 165.672 75.2029 167.946C75.5281 168.282 75.532 168.588 75.1912 168.919C74.8281 169.271 74.4677 169.63 74.1333 170.012C73.7781 170.416 73.4633 170.419 73.0964 170.028C72.523 169.416 71.9079 168.845 71.3502 168.219C71.0329 167.861 70.8461 167.813 70.4805 168.189C68.3948 170.344 66.2778 172.466 64.1738 174.603C63.4673 175.321 63.3445 175.324 62.6458 174.603C62.3232 174.271 61.9941 173.946 61.6794 173.606C61.1583 173.041 61.153 172.812 61.6885 172.259C62.7803 171.137 63.8852 170.028 64.9835 168.912C66.0362 167.844 67.0783 166.766 68.1453 165.713C68.4496 165.414 68.4836 165.201 68.161 164.897C67.5707 164.341 67.0117 163.75 66.428 163.185C65.9695 162.741 65.963 162.314 66.4149 161.866C66.7127 161.572 66.9961 161.264 67.2912 160.967C67.4518 160.806 67.6386 160.697 67.8619 160.729H67.8659Z" fill="#FCFCFD" />
  <path d="M62.7179 158.085C62.714 159.071 62.4267 159.674 61.7959 160.107C60.7106 160.85 59.6397 161.615 58.5531 162.356C57.8204 162.856 57.0146 163.086 56.2258 162.568C55.3599 162.001 54.8153 161.18 54.8493 160.064C54.8793 159.092 55.5454 158.53 56.2389 158.085C57.1596 157.495 58.0542 156.868 58.9514 156.244C59.6971 155.727 60.4755 155.525 61.2787 155.973C62.155 156.46 62.5951 157.295 62.7179 158.085Z" fill="#DC0000" />
  <path d="M133.35 189.877C133.362 191.296 132.59 192.103 131.24 192.312C130.003 192.504 129.068 191.96 128.769 190.785C128.433 189.468 128.188 188.125 127.864 186.804C127.745 186.321 127.635 185.89 127.874 185.402C128.415 184.297 129.599 183.641 130.784 183.876C131.464 184.012 132.038 184.397 132.251 185.077C132.764 186.715 133.038 188.416 133.35 189.875V189.877Z" fill="#DC0000" />
  <path d="M50.8801 142.059C51.3829 142.008 52.0555 142.183 52.7098 141.95C52.8639 141.895 53.0036 141.975 53.0964 142.121C53.2178 142.315 53.0715 142.405 52.9566 142.5C51.9941 143.299 51.029 144.093 50.0677 144.893C49.8392 145.084 49.6995 145.065 49.5989 144.756C49.3521 143.995 49.0922 143.238 48.8297 142.483C48.7121 142.144 48.8388 142.045 49.1588 142.054C49.6799 142.069 50.201 142.058 50.8801 142.058V142.059Z" fill="#DC0000" />
</svg>
