<svg width="14" height="18" viewBox="0 0 14 18" fill="none" xmlns="http://www.w3.org/2000/svg">
  <path d="M7.00001 9.43389C7.45834 9.43389 7.8507 9.26592 8.17709 8.92998C8.50348 8.59404 8.66668 8.19019 8.66668 7.71845C8.66668 7.2467 8.50348 6.84286 8.17709 6.50692C7.8507 6.17098 7.45834 6.00301 7.00001 6.00301C6.54168 6.00301 6.14932 6.17098 5.82293 6.50692C5.49654 6.84286 5.33334 7.2467 5.33334 7.71845C5.33334 8.19019 5.49654 8.59404 5.82293 8.92998C6.14932 9.26592 6.54168 9.43389 7.00001 9.43389ZM7.00001 15.7381C8.69445 14.137 9.9514 12.6825 10.7708 11.3745C11.5903 10.0665 12 8.90496 12 7.88999C12 6.3318 11.5174 5.05594 10.5521 4.06242C9.58682 3.06889 8.40279 2.57213 7.00001 2.57213C5.59723 2.57213 4.4132 3.06889 3.44793 4.06242C2.48265 5.05594 2.00001 6.3318 2.00001 7.88999C2.00001 8.90496 2.40973 10.0665 3.22918 11.3745C4.04862 12.6825 5.30557 14.137 7.00001 15.7381ZM7.00001 18.0111C4.7639 16.0526 3.09376 14.2335 1.98959 12.5538C0.885427 10.8741 0.333344 9.31952 0.333344 7.88999C0.333344 5.74569 1.00348 4.0374 2.34376 2.76512C3.68404 1.49283 5.23612 0.856689 7.00001 0.856689C8.7639 0.856689 10.316 1.49283 11.6563 2.76512C12.9965 4.0374 13.6667 5.74569 13.6667 7.88999C13.6667 9.31952 13.1146 10.8741 12.0104 12.5538C10.9063 14.2335 9.23612 16.0526 7.00001 18.0111Z" fill="#272727" />
</svg>
