<svg width="32" height="32" viewBox="0 0 32 32" fill="none" xmlns="http://www.w3.org/2000/svg">
  <path d="M15.9265 0.250043C11.7621 0.269477 7.77487 1.93742 4.83705 4.88901C1.89923 7.8406 0.249955 11.8356 0.25 16C0.25 20.1772 1.90937 24.1832 4.86307 27.1369C7.81677 30.0906 11.8228 31.75 16 31.75C20.1772 31.75 24.1832 30.0906 27.1369 27.1369C30.0906 24.1832 31.75 20.1772 31.75 16C31.75 11.8229 30.0906 7.8168 27.1369 4.8631C24.1832 1.90941 20.1772 0.250043 16 0.250043C15.9755 0.249986 15.951 0.249986 15.9265 0.250043ZM22.4391 9.73153C22.5704 9.72891 22.8604 9.76172 23.0494 9.91528C23.175 10.0243 23.2551 10.1766 23.2739 10.3418C23.2949 10.4639 23.3211 10.7435 23.3001 10.9613C23.0639 13.4525 22.0375 19.4952 21.5151 22.2843C21.2946 23.4655 20.8602 23.8606 20.4389 23.8986C19.5254 23.9839 18.8311 23.2949 17.9451 22.7148C16.5591 21.8052 15.7756 21.2395 14.4303 20.3523C12.8749 19.3285 13.8829 18.7641 14.7689 17.8454C15.0012 17.6039 19.0306 13.9381 19.1093 13.606C19.1185 13.564 19.1277 13.4091 19.0358 13.3278C18.9439 13.2464 18.8074 13.274 18.709 13.2963C18.5699 13.3278 16.3557 14.7925 12.0664 17.6866C11.4364 18.1197 10.8681 18.3297 10.3576 18.3166C9.79581 18.3061 8.71431 18.0003 7.90975 17.7391C6.92275 17.4175 6.13919 17.2482 6.20744 16.7035C6.24288 16.42 6.634 16.13 7.3795 15.8333C11.9706 13.8331 15.0314 12.514 16.5644 11.8775C20.9376 10.0583 21.8472 9.74203 22.4391 9.73153Z" fill="#3BC1EC" />
</svg>
