<svg width="32" height="32" viewBox="0 0 32 32" fill="none" xmlns="http://www.w3.org/2000/svg">
  <path d="M2.455 2.455C0.25 4.681 0.25 8.2405 0.25 15.37V16.63C0.25 23.749 0.25 27.3085 2.455 29.545C4.681 31.75 8.2405 31.75 15.37 31.75H16.63C23.749 31.75 27.3085 31.75 29.545 29.545C31.75 27.319 31.75 23.7595 31.75 16.63V15.37C31.75 8.251 31.75 4.6915 29.545 2.455C27.319 0.25 23.7595 0.25 16.63 0.25H15.37C8.251 0.25 4.6915 0.25 2.455 2.455ZM5.563 9.8365H9.175C9.2905 15.8425 11.9365 18.3835 14.0365 18.9085V9.8365H17.428V15.013C19.4965 14.7925 21.6805 12.43 22.4155 9.826H25.7965C25.5209 11.174 24.9703 12.4507 24.179 13.5762C23.3876 14.7017 22.3727 15.652 21.1975 16.3675C22.509 17.02 23.6672 17.9433 24.5957 19.0763C25.5242 20.2093 26.2019 21.5263 26.584 22.9405H22.8565C22.0585 20.452 20.0635 18.52 17.428 18.2575V22.9405H17.008C9.826 22.9405 5.731 18.0265 5.563 9.8365Z" fill="#3179E6" />
</svg>
