<svg width="49" height="45" viewBox="0 0 49 45" fill="none" xmlns="http://www.w3.org/2000/svg">
  <path d="M29.974 44.4167C29.0574 44.4167 28.1789 44.2448 27.3386 43.901C26.4983 43.5573 25.7535 43.0608 25.1042 42.4115L13.4167 30.6667L15.3074 28.7188C15.8421 28.184 16.4914 27.8212 17.2553 27.6302C18.0192 27.4392 18.7831 27.4392 19.5469 27.6302L23.5001 28.776V12.3333C23.5001 11.684 23.7197 11.1398 24.1589 10.7005C24.5982 10.2613 25.1424 10.0417 25.7917 10.0417C26.441 10.0417 26.9853 10.2613 27.4246 10.7005C27.8638 11.1398 28.0834 11.684 28.0834 12.3333V34.849L22.4688 33.2448L28.3699 39.1458C28.599 39.375 28.8473 39.5469 29.1147 39.6615C29.382 39.776 29.6685 39.8333 29.974 39.8333H39.5417C40.8022 39.8333 41.8811 39.3846 42.7787 38.487C43.6763 37.5894 44.1251 36.5104 44.1251 35.25V26.0833C44.1251 25.434 44.3447 24.8898 44.7839 24.4505C45.2232 24.0113 45.7674 23.7917 46.4167 23.7917C47.066 23.7917 47.6103 24.0113 48.0496 24.4505C48.4888 24.8898 48.7084 25.434 48.7084 26.0833V35.25C48.7084 37.7708 47.8108 39.9288 46.0157 41.724C44.2206 43.5191 42.0626 44.4167 39.5417 44.4167H29.974ZM30.3751 28.375V19.2083C30.3751 18.559 30.5947 18.0148 31.0339 17.5755C31.4732 17.1363 32.0174 16.9167 32.6667 16.9167C33.316 16.9167 33.8603 17.1363 34.2996 17.5755C34.7388 18.0148 34.9584 18.559 34.9584 19.2083V28.375H30.3751ZM37.2501 28.375V21.5C37.2501 20.8507 37.4697 20.3064 37.9089 19.8672C38.3482 19.428 38.8924 19.2083 39.5417 19.2083C40.191 19.2083 40.7353 19.428 41.1745 19.8672C41.6138 20.3064 41.8334 20.8507 41.8334 21.5V28.375H37.2501ZM5.16674 37.5417C3.90632 37.5417 2.82733 37.0929 1.92976 36.1953C1.03219 35.2977 0.583405 34.2188 0.583405 32.9583V5.45833C0.583405 4.19792 1.03219 3.11892 1.92976 2.22135C2.82733 1.32378 3.90632 0.875 5.16674 0.875H39.5417C40.8022 0.875 41.8811 1.32378 42.7787 2.22135C43.6763 3.11892 44.1251 4.19792 44.1251 5.45833V14.625H39.5417V5.45833H5.16674V32.9583H9.29174L13.8178 37.5417H5.16674Z" fill="#DC0000" />
</svg>
