<svg width="57" height="41" viewBox="0 0 57 41" fill="none" xmlns="http://www.w3.org/2000/svg">
  <path d="M0.541626 40.8334V33.7167C0.541626 32.2764 0.912286 30.9526 1.65361 29.7453C2.39492 28.538 3.37982 27.6167 4.60829 26.9813C7.23468 25.6681 9.90343 24.6832 12.6145 24.0266C15.3257 23.37 18.0791 23.0417 20.875 23.0417C23.6708 23.0417 26.4243 23.37 29.1354 24.0266C31.8465 24.6832 34.5152 25.6681 37.1416 26.9813C38.3701 27.6167 39.355 28.538 40.0963 29.7453C40.8376 30.9526 41.2083 32.2764 41.2083 33.7167V40.8334H0.541626ZM46.2916 40.8334V33.2084C46.2916 31.3445 45.7727 29.5547 44.7349 27.8391C43.697 26.1235 42.225 24.6514 40.3187 23.4229C42.4791 23.6771 44.5125 24.1113 46.4187 24.7255C48.325 25.3398 50.1041 26.0917 51.7562 26.9813C53.2812 27.8285 54.4461 28.771 55.251 29.8089C56.0559 30.8467 56.4583 31.9799 56.4583 33.2084V40.8334H46.2916ZM20.875 20.5C18.0791 20.5 15.6857 19.5045 13.6948 17.5136C11.7038 15.5226 10.7083 13.1292 10.7083 10.3334C10.7083 7.53752 11.7038 5.14412 13.6948 3.15315C15.6857 1.16217 18.0791 0.166687 20.875 0.166687C23.6708 0.166687 26.0642 1.16217 28.0552 3.15315C30.0461 5.14412 31.0416 7.53752 31.0416 10.3334C31.0416 13.1292 30.0461 15.5226 28.0552 17.5136C26.0642 19.5045 23.6708 20.5 20.875 20.5ZM46.2916 10.3334C46.2916 13.1292 45.2961 15.5226 43.3052 17.5136C41.3142 19.5045 38.9208 20.5 36.125 20.5C35.659 20.5 35.0659 20.4471 34.3458 20.3412C33.6257 20.2353 33.0326 20.1188 32.5666 19.9917C33.7104 18.6361 34.5894 17.1323 35.2036 15.4802C35.8178 13.8281 36.125 12.1125 36.125 10.3334C36.125 8.55419 35.8178 6.83856 35.2036 5.18648C34.5894 3.5344 33.7104 2.03058 32.5666 0.67502C33.1597 0.463215 33.7527 0.325541 34.3458 0.262C34.9389 0.198458 35.5319 0.166687 36.125 0.166687C38.9208 0.166687 41.3142 1.16217 43.3052 3.15315C45.2961 5.14412 46.2916 7.53752 46.2916 10.3334ZM5.62496 35.75H36.125V33.7167C36.125 33.2507 36.0085 32.8271 35.7755 32.4459C35.5425 32.0646 35.2354 31.7681 34.8541 31.5563C32.5666 30.4125 30.2579 29.5547 27.9281 28.9828C25.5982 28.411 23.2472 28.125 20.875 28.125C18.5027 28.125 16.1517 28.411 13.8218 28.9828C11.492 29.5547 9.18329 30.4125 6.89579 31.5563C6.51454 31.7681 6.20743 32.0646 5.97444 32.4459C5.74145 32.8271 5.62496 33.2507 5.62496 33.7167V35.75ZM20.875 15.4167C22.2729 15.4167 23.4696 14.9189 24.4651 13.9235C25.4606 12.928 25.9583 11.7313 25.9583 10.3334C25.9583 8.93544 25.4606 7.73874 24.4651 6.74325C23.4696 5.74776 22.2729 5.25002 20.875 5.25002C19.477 5.25002 18.2803 5.74776 17.2849 6.74325C16.2894 7.73874 15.7916 8.93544 15.7916 10.3334C15.7916 11.7313 16.2894 12.928 17.2849 13.9235C18.2803 14.9189 19.477 15.4167 20.875 15.4167Z" fill="#DC0000" />
</svg>
