<svg width="44" height="44" viewBox="0 0 44 44" fill="none" xmlns="http://www.w3.org/2000/svg">
  <path d="M17.6666 26.3333H26.3333V22H17.6666V26.3333ZM17.6666 19.8333H35V15.5H17.6666V19.8333ZM17.6666 13.3333H35V8.99998H17.6666V13.3333ZM13.3333 35C12.1416 35 11.1215 34.5757 10.2729 33.7271C9.42428 32.8784 8.99998 31.8583 8.99998 30.6666V4.66665C8.99998 3.47498 9.42428 2.45484 10.2729 1.60623C11.1215 0.757619 12.1416 0.333313 13.3333 0.333313H39.3333C40.525 0.333313 41.5451 0.757619 42.3937 1.60623C43.2423 2.45484 43.6666 3.47498 43.6666 4.66665V30.6666C43.6666 31.8583 43.2423 32.8784 42.3937 33.7271C41.5451 34.5757 40.525 35 39.3333 35H13.3333ZM13.3333 30.6666H39.3333V4.66665H13.3333V30.6666ZM4.66665 43.6666C3.47498 43.6666 2.45484 43.2423 1.60623 42.3937C0.757619 41.5451 0.333313 40.525 0.333313 39.3333V8.99998H4.66665V39.3333H35V43.6666H4.66665Z" fill="#DC0000" />
</svg>
