<svg width="37" height="45" viewBox="0 0 37 45" fill="none" xmlns="http://www.w3.org/2000/svg">
  <path d="M18.5 22.5001C19.7146 22.5001 20.7544 22.0676 21.6193 21.2027C22.4842 20.3378 22.9167 19.298 22.9167 18.0834C22.9167 16.8688 22.4842 15.8291 21.6193 14.9641C20.7544 14.0992 19.7146 13.6667 18.5 13.6667C17.2855 13.6667 16.2457 14.0992 15.3808 14.9641C14.5158 15.8291 14.0834 16.8688 14.0834 18.0834C14.0834 19.298 14.5158 20.3378 15.3808 21.2027C16.2457 22.0676 17.2855 22.5001 18.5 22.5001ZM18.5 38.7313C22.9903 34.6091 26.3212 30.8641 28.4928 27.4964C30.6643 24.1287 31.75 21.1383 31.75 18.5251C31.75 14.5133 30.471 11.2284 27.9131 8.67039C25.3551 6.11241 22.2174 4.83342 18.5 4.83342C14.7827 4.83342 11.645 6.11241 9.08702 8.67039C6.52903 11.2284 5.25004 14.5133 5.25004 18.5251C5.25004 21.1383 6.3358 24.1287 8.50733 27.4964C10.6789 30.8641 14.0098 34.6091 18.5 38.7313ZM18.5 44.5834C12.5743 39.5411 8.14848 34.8575 5.22244 30.5329C2.29639 26.2082 0.833374 22.2056 0.833374 18.5251C0.833374 13.0042 2.60924 8.60598 6.16098 5.33029C9.71271 2.0546 13.8257 0.416748 18.5 0.416748C23.1743 0.416748 27.2874 2.0546 30.8391 5.33029C34.3908 8.60598 36.1667 13.0042 36.1667 18.5251C36.1667 22.2056 34.7037 26.2082 31.7776 30.5329C28.8516 34.8575 24.4257 39.5411 18.5 44.5834Z" fill="#DC0000" />
</svg>
