<svg width="45" height="45" viewBox="0 0 45 45" fill="none" xmlns="http://www.w3.org/2000/svg">
  <path d="M8.9188 33.7625C10.7959 32.3271 12.8938 31.1953 15.2126 30.3672C17.5313 29.5391 19.9605 29.125 22.5 29.125C25.0396 29.125 27.4688 29.5391 29.7875 30.3672C32.1063 31.1953 34.2042 32.3271 36.0813 33.7625C37.3695 32.2535 38.3724 30.542 39.0902 28.6281C39.8079 26.7143 40.1667 24.6715 40.1667 22.5C40.1667 17.6049 38.4461 13.4367 35.0047 9.99533C31.5634 6.55401 27.3952 4.83335 22.5 4.83335C17.6049 4.83335 13.4367 6.55401 9.99536 9.99533C6.55404 13.4367 4.83338 17.6049 4.83338 22.5C4.83338 24.6715 5.19224 26.7143 5.90995 28.6281C6.62765 30.542 7.63061 32.2535 8.9188 33.7625ZM22.5 24.7084C20.3285 24.7084 18.4974 23.963 17.0068 22.4724C15.5162 20.9818 14.7709 19.1507 14.7709 16.9792C14.7709 14.8077 15.5162 12.9766 17.0068 11.486C18.4974 9.99533 20.3285 9.25002 22.5 9.25002C24.6716 9.25002 26.5027 9.99533 27.9933 11.486C29.4839 12.9766 30.2292 14.8077 30.2292 16.9792C30.2292 19.1507 29.4839 20.9818 27.9933 22.4724C26.5027 23.963 24.6716 24.7084 22.5 24.7084ZM22.5 44.5834C19.4452 44.5834 16.5744 44.0037 13.8876 42.8443C11.2007 41.6849 8.86359 40.1115 6.87609 38.124C4.88859 36.1365 3.31516 33.7993 2.15578 31.1125C0.996405 28.4257 0.416718 25.5549 0.416718 22.5C0.416718 19.4452 0.996405 16.5743 2.15578 13.8875C3.31516 11.2007 4.88859 8.86356 6.87609 6.87606C8.86359 4.88856 11.2007 3.31512 13.8876 2.15575C16.5744 0.996374 19.4452 0.416687 22.5 0.416687C25.5549 0.416687 28.4257 0.996374 31.1126 2.15575C33.7994 3.31512 36.1365 4.88856 38.124 6.87606C40.1115 8.86356 41.6849 11.2007 42.8443 13.8875C44.0037 16.5743 44.5834 19.4452 44.5834 22.5C44.5834 25.5549 44.0037 28.4257 42.8443 31.1125C41.6849 33.7993 40.1115 36.1365 38.124 38.124C36.1365 40.1115 33.7994 41.6849 31.1126 42.8443C28.4257 44.0037 25.5549 44.5834 22.5 44.5834ZM22.5 40.1667C24.4507 40.1667 26.291 39.8814 28.0209 39.311C29.7507 38.7405 31.3334 37.9215 32.7688 36.8542C31.3334 35.7868 29.7507 34.9679 28.0209 34.3974C26.291 33.8269 24.4507 33.5417 22.5 33.5417C20.5494 33.5417 18.7091 33.8269 16.9792 34.3974C15.2494 34.9679 13.6667 35.7868 12.2313 36.8542C13.6667 37.9215 15.2494 38.7405 16.9792 39.311C18.7091 39.8814 20.5494 40.1667 22.5 40.1667ZM22.5 20.2917C23.457 20.2917 24.2483 19.9788 24.874 19.3531C25.4997 18.7274 25.8125 17.9361 25.8125 16.9792C25.8125 16.0222 25.4997 15.2309 24.874 14.6052C24.2483 13.9795 23.457 13.6667 22.5 13.6667C21.5431 13.6667 20.7518 13.9795 20.1261 14.6052C19.5004 15.2309 19.1875 16.0222 19.1875 16.9792C19.1875 17.9361 19.5004 18.7274 20.1261 19.3531C20.7518 19.9788 21.5431 20.2917 22.5 20.2917Z" fill="#DC0000" />
</svg>
