<svg width="28" height="29" viewBox="0 0 28 29" fill="none" xmlns="http://www.w3.org/2000/svg">
<path d="M5.46081 5.75832L5.54456 5.66196C5.69024 5.51624 5.88337 5.42765 6.08885 5.41228C6.29432 5.39691 6.49849 5.45579 6.66423 5.57821L6.76059 5.66196L14.183 13.0832L21.6054 5.66081C21.6848 5.57867 21.7797 5.51317 21.8847 5.46813C21.9897 5.42309 22.1026 5.39941 22.2169 5.39847C22.3311 5.39753 22.4444 5.41935 22.5501 5.46266C22.6559 5.50597 22.7519 5.56991 22.8326 5.65073C22.9134 5.73155 22.9772 5.82765 23.0204 5.93341C23.0637 6.03917 23.0854 6.15248 23.0843 6.26672C23.0833 6.38096 23.0595 6.49385 23.0143 6.5988C22.9692 6.70375 22.9036 6.79866 22.8214 6.87799L15.4002 14.3004L22.8225 21.7228C22.9681 21.8686 23.0565 22.0618 23.0716 22.2673C23.0868 22.4727 23.0277 22.6768 22.9051 22.8424L22.8214 22.9388C22.6757 23.0845 22.4826 23.1731 22.2771 23.1885C22.0716 23.2039 21.8675 23.145 21.7017 23.0226L21.6054 22.9388L14.183 15.5176L6.76059 22.94C6.59824 23.0966 6.38086 23.1832 6.15527 23.1812C5.92967 23.1791 5.71392 23.0885 5.55447 22.9289C5.39502 22.7693 5.30463 22.5535 5.30278 22.3279C5.30092 22.1023 5.38775 21.885 5.54456 21.7228L12.9658 14.3004L5.54341 6.87799C5.39787 6.73217 5.30948 6.53896 5.29433 6.33349C5.27917 6.12802 5.33824 5.92393 5.46081 5.75832Z" fill="#3F3F3F"/>
</svg>
