<svg width="31" height="31" viewBox="0 0 31 31" fill="none" xmlns="http://www.w3.org/2000/svg">
<path d="M27.2419 2.93359H18.8848C18.7753 2.93359 18.6858 3.02313 18.6858 3.13257V4.98972C18.6858 5.09915 18.7753 5.1887 18.8848 5.1887H24.2042L17.5947 11.7981C15.9366 10.5213 13.9136 9.83155 11.7878 9.83155C9.23758 9.83155 6.83656 10.8265 5.0358 12.6305C3.23503 14.4346 2.23682 16.8323 2.23682 19.3826C2.23682 21.9328 3.23171 24.3338 5.0358 26.1346C6.83656 27.9387 9.23758 28.9336 11.7878 28.9336C14.3381 28.9336 16.7391 27.9387 18.5399 26.1346C20.344 24.3338 21.3389 21.9328 21.3389 19.3826C21.3389 17.2568 20.6491 15.2405 19.3756 13.5823L25.9817 6.9762V12.2856C25.9817 12.3951 26.0713 12.4846 26.1807 12.4846H28.0378C28.1473 12.4846 28.2368 12.3951 28.2368 12.2856V3.92849C28.2368 3.3813 27.7891 2.93359 27.2419 2.93359ZM11.7878 26.4132C7.91105 26.4132 4.75722 23.2594 4.75722 19.3826C4.75722 15.5058 7.91105 12.352 11.7878 12.352C15.6646 12.352 18.8184 15.5058 18.8184 19.3826C18.8184 23.2594 15.6646 26.4132 11.7878 26.4132Z" fill="#575DFF"/>
</svg>
