<svg width="31" height="31" viewBox="0 0 31 31" fill="none" xmlns="http://www.w3.org/2000/svg">
<g clip-path="url(#clip0_122_19063)">
<path d="M22.3072 16.9243C24.1946 15.1296 25.2368 12.739 25.2368 10.2011C25.2368 7.65977 24.1981 5.2725 22.3072 3.47785C20.4199 1.68321 17.9058 0.692139 15.2368 0.692139C12.5678 0.692139 10.0537 1.67986 8.16639 3.47785C6.27907 5.27584 5.23682 7.65977 5.23682 10.2011C5.23682 12.3372 5.97273 14.3662 7.32837 16.0236C7.58541 16.3383 7.86358 16.6363 8.16287 16.9243C8.46217 17.2089 8.77907 17.4734 9.10653 17.7178C10.5009 18.7491 12.1453 19.4053 13.8988 19.6263V23.1921H9.8847C9.72977 23.1921 9.60301 23.3127 9.60301 23.46V25.4689C9.60301 25.6162 9.72977 25.7368 9.8847 25.7368H13.8988V30.4243C13.8988 30.5716 14.0255 30.6921 14.1805 30.6921H16.2932C16.4481 30.6921 16.5748 30.5716 16.5748 30.4243V25.7368H20.5889C20.7439 25.7368 20.8706 25.6162 20.8706 25.4689V23.46C20.8706 23.3127 20.7439 23.1921 20.5889 23.1921H16.5748V19.6263C18.7403 19.3517 20.7368 18.4176 22.3072 16.9243ZM15.2368 17.1654C13.2791 17.1654 11.4446 16.4421 10.0572 15.1263C8.67344 13.8104 7.91287 12.0627 7.91287 10.2011C7.91287 8.33946 8.67344 6.59504 10.0572 5.27584C11.441 3.95665 13.2791 3.23678 15.2368 3.23678C17.1946 3.23678 19.0291 3.96 20.4164 5.27584C21.8002 6.59169 22.5608 8.33946 22.5608 10.2011C22.5608 12.0627 21.8002 13.8071 20.4164 15.1263C19.0291 16.4421 17.1946 17.1654 15.2368 17.1654Z" fill="#FF57EE"/>
</g>
<defs>
<clipPath id="clip0_122_19063">
<rect width="30" height="30" fill="white" transform="translate(0.236816 0.692139)"/>
</clipPath>
</defs>
</svg>
