<?xml version="1.0" encoding="UTF-8" standalone="no"?>
<svg
   width="100%"
   viewBox="0 0 1200 754"
   fill="none"
   version="1.1"
   id="svg49"
   sodipodi:docname="chrt.svg"
   inkscape:version="1.3.2 (091e20ef0f, 2023-11-25)"
   xmlns:inkscape="http://www.inkscape.org/namespaces/inkscape"
   xmlns:sodipodi="http://sodipodi.sourceforge.net/DTD/sodipodi-0.dtd"
   xmlns="http://www.w3.org/2000/svg"
   xmlns:svg="http://www.w3.org/2000/svg">
  <defs
     id="defs49" />
  <sodipodi:namedview
     id="namedview49"
     pagecolor="#ffffff"
     bordercolor="#000000"
     borderopacity="0.25"
     inkscape:showpageshadow="2"
     inkscape:pageopacity="0.0"
     inkscape:pagecheckerboard="0"
     inkscape:deskcolor="#d1d1d1"
     inkscape:zoom="4.5301974"
     inkscape:cx="790.14216"
     inkscape:cy="506.71081"
     inkscape:window-width="1920"
     inkscape:window-height="1022"
     inkscape:window-x="0"
     inkscape:window-y="0"
     inkscape:window-maximized="1"
     inkscape:current-layer="svg49" />
  <path
     class="grn_color"
     d="M807.309 605.245L808.097 605.507L809.805 601.96L811.776 596.18L814.798 596.968L818.87 604.851V606.164L815.323 608.66L818.87 609.055L825.702 605.77L825.308 595.786L822.023 593.421L819.396 590.794L819.921 585.539L833.715 583.568L867.479 579.758L876.281 578.97L883.638 579.101L882.981 576.211L881.01 575.16L879.828 573.715L881.142 570.299L880.616 563.468L878.514 557.556L879.565 550.856L881.799 544.55L881.536 542.316L879.171 541.397L878.514 536.667L874.967 532.2L872.34 523.661L870.5 514.859L868.136 508.29L863.143 487.27L858.545 476.892L857.494 469.535L857.626 466.645L845.802 467.696L815.06 470.586L799.033 471.637L798.77 480.045L799.033 501.984L798.113 542.71L797.719 561.234L801.397 585.933L803.499 605.245H807.309Z"
     fill="#B1B5BD"
     id="path1"
     style="stroke:#ffffff;stroke-opacity:1;stroke-width:2;stroke-dasharray:none" />
  <path
     d="M753.182 446.994L744.774 446.075L745.957 442.002L750.029 438.586L750.818 435.565L748.453 431.755L706.544 433.331L675.934 434.251L644.93 434.645L646.9 443.71L647.032 454.877L648.871 469.197L649.265 519.382L652.024 521.484L655.965 519.907L659.775 521.484L660.301 534.753L693.407 534.49L728.615 533.439L729.798 530.943L729.404 525.95L727.17 521.878L729.141 520.039L727.302 517.148L728.221 513.995L729.666 506.244L733.213 503.223L732.162 500.332L737.417 492.975L740.702 491.53L740.57 489.297L739.914 487.064L743.723 479.444L747.008 477.999L747.27 473.663L750.029 471.824L751.212 466.438L749.372 461.183L754.89 458.03L755.284 455.271L756.861 449.753L758.043 445.681L753.182 446.994Z"
     fill="#B1B5BD"
     id="path2" />
  <path
     d="M159.107 504.48L158.713 506.451L159.37 507.765L184.2 521.822L200.096 531.806L219.408 543.104L241.479 556.242L257.638 559.395L291.007 562.942L298.89 510.918L308.086 441.158L313.866 400.432L281.548 395.702L201.804 381.251L201.541 382.696L198.125 404.373L195.366 409.365L191.688 409.102L190.111 405.687L186.696 405.161L185.119 403.716L183.674 403.847L180.915 406.081L180.521 415.014L180.127 416.985L179.47 433.407L177.499 436.56L176.974 440.895L180.652 447.464L182.098 454.689L183.017 456.135L184.462 457.317L183.937 460.47L181.703 462.046L177.237 464.148L175.135 466.513L173.033 471.243L172.376 477.68L168.435 481.49L165.938 482.672L165.807 490.292L165.019 492.394L165.676 493.445L170.799 493.97L169.617 497.912L167.384 501.065L162.523 501.59L159.107 504.48Z"
     fill="#798290"
     id="path3" />
  <path
     d="M142.816 499.488L116.935 495.94L103.798 493.97L103.141 491.605V479.256L102.747 475.052L99.3309 469.534L98.2799 466.513L93.1563 460.995L89.3464 454.82L85.7993 454.557L81.5953 453.507L81.2012 452.193L83.1718 451.404L82.3836 447.201L80.4129 444.442L74.107 443.391L68.9834 440.632L67.5382 437.61L64.1225 431.304L60.3126 427.232H56.5028L51.3792 424.473L45.4673 422.108L39.9496 421.451L36.7966 417.904L37.4535 415.408L39.8182 406.08L40.8692 403.584V400.431L38.7672 399.117L38.1103 395.308L36.1397 391.892L31.673 384.272L29.9651 380.199L27.9945 374.025L25.8925 367.062L21.6885 361.282L21.0316 357.472L22.0826 352.348H23.5278L26.2866 350.246L27.7318 345.517L26.418 341.969L22.8709 341.313L20.3748 337.897L17.6159 333.036L17.3532 322.263L18.1414 319.767L18.9297 316.746L19.5865 313.593L12.0982 305.316V302.557L12.4923 301.9L12.8864 297.696L11.1786 292.441L8.15694 286.135L4.60983 280.223L2.24509 275.1L3.55883 270.239L4.34708 262.619L6.71182 258.547L7.10595 250.007L5.66083 245.278L3.55883 239.76L0.0117188 234.242L1.06272 230.038L3.03333 224.521L5.39808 223.47L5.7922 222.025L9.86481 218.609L16.6963 203.107L16.959 193.385L19.1793 186.948L70.0081 202.45L103.64 211.12L93.13 252.241L81.7398 295.726L98.3324 320.95L153.72 402.796L176.185 437.085L175.66 441.157L179.338 447.989L180.783 455.083L182.097 457.054L183.016 457.842L182.754 459.681L180.914 460.995L176.448 463.097L173.952 465.856L171.718 470.979L171.061 477.154L167.646 480.438L164.624 481.883L164.493 490.029L163.704 492.525L165.018 494.758L168.959 495.152L168.434 497.254L166.595 499.882L161.471 500.67L142.816 499.488ZM45.7301 435.245L47.4379 437.216L47.1752 438.924L42.9712 438.793L42.183 437.216L41.3947 435.245H45.7301ZM48.2262 435.245L49.8027 434.457L54.5322 437.216L58.6048 438.793L57.4224 439.581L51.5105 439.318L49.4086 437.216L48.2262 435.245ZM75.4207 461.258L77.7855 464.279L78.8365 465.593L80.8071 466.381L81.5953 464.411L80.2816 462.046L76.7345 459.418L75.2893 459.681V461.258H75.4207ZM73.5815 472.687L75.9462 476.891L77.5227 479.387L75.5521 479.65L73.8442 478.074C73.4527 477.275 73.1445 476.439 72.9246 475.577V472.687H73.5815Z"
     fill="#798290"
     id="path4" />
  <path
     d="M481.105 301.9L433.81 297.302L329.893 286.004L327.003 315.038L317.807 381.25L315.311 399.249L359.978 404.372L409.243 410.153L454.83 414.094L473.617 414.882L481.105 301.9Z"
     fill="#798290"
     id="path5" />
  <path
     d="M1100.93 243.307L1105.66 239.103L1108.16 236.344L1109.21 237.132L1112.76 235.162L1119.59 233.717L1128.78 229.118L1127.99 223.601L1126.94 217.82L1124.84 209.938L1119.19 211.383L1090.55 217.557L1091.34 221.63L1093.31 231.22V242.125L1092.13 244.883L1094.36 247.774L1100.93 243.307Z"
     fill="#EDF0F5"
     id="path6" />
  <path
     d="M1077.81 317.272L1076.5 317.928L1071.77 314.775L1069.4 308.601L1066.91 303.871L1063.88 302.558L1061.12 297.828L1061.78 295.201L1062.44 292.179L1062.57 290.734L1061.78 290.865L1059.55 292.179L1056.92 294.412L1056.66 294.806L1058.5 300.193L1061.52 307.55L1066.38 328.701L1072.95 328.307L1080.83 326.862L1077.81 317.272Z"
     fill="#EDF0F5"
     id="path7" />
  <path
     d="M967.192 577.394L960.36 576.474L959.44 577.525L961.411 583.305L960.886 590.137L955.499 588.823L955.236 585.145H949.85L942.887 586.064L900.322 588.56L889.549 588.166L887.316 585.933L884.032 580.415H876.28L867.61 581.072L821.103 586.59L820.709 590.268L822.811 592.37L826.621 594.998L827.015 606.033L831.35 605.245L839.233 602.486L847.115 601.829L852.896 601.041L862.88 603.406L873.522 608.529L875.624 610.5L879.433 611.945L881.535 614.441L881.929 617.988L886.133 616.28H891.257L895.987 613.784L900.847 609.055L904.92 609.318L905.577 607.873L904.526 606.559L904.789 604.063L910.044 603.012H913.459L917.269 604.982L922.787 606.953L925.94 611.814L929.487 613.127L930.932 617.594L935.399 619.696L937.501 623.112L939.997 623.9L946.829 625.608L948.536 629.681L952.478 634.542V647.022L950.507 653.197L950.901 656.744L952.609 663.05L954.974 668.305L956.025 667.648L957.995 661.736L954.58 660.422L954.186 659.634L956.288 658.846L962.199 660.16L962.462 662.262L958.258 669.487L955.499 672.64L960.229 677.501L963.644 681.574L967.454 688.537L971.264 693.66L974.023 700.229L976.388 700.623L978.49 697.864L980.855 699.309L984.27 704.564L985.059 709.294L989.131 715.074L990.182 713.366L995.306 713.76L1000.04 716.782L1004.5 723.613L1005.55 728.08L1005.95 731.89L1007.39 733.204L1009.1 733.861L1012.25 732.547L1014.22 730.445L1019.35 730.182L1023.42 728.212L1026.97 724.008L1026.31 721.512L1025.92 718.358L1026.7 715.862L1026.31 713.366L1029.46 711.658L1029.86 707.192L1029.07 704.827L1028.41 689.062L1026.7 679.078L1020.79 668.305L1016.06 660.685L1012.65 653.722L1008.84 649.912L1005.03 640.191L1005.95 638.351L1007.39 636.644L1005.29 632.834L1000.04 627.973L993.729 620.747L988.868 612.471L981.906 600.121L977.045 587.378L974.023 577.788L967.192 577.394ZM990.445 751.728L993.598 750.939L995.306 750.677L997.276 747.655L1000.3 745.553L1002.01 746.21L1004.24 746.604L1004.76 748.049L1000.17 749.626L994.649 751.596L991.627 753.173L990.445 751.728ZM1008.18 745.159L1009.76 746.604L1013.3 743.845L1020.27 738.327L1025.13 733.204L1028.41 724.533L1029.73 722.3L1029.99 717.833L1029.07 718.49L1027.76 722.168L1025.78 728.212L1021.58 735.174L1015.8 740.692L1011.33 743.188L1008.18 745.159Z"
     fill="#DDE2EC"
     id="path8" />
  <path
     d="M967.193 576.079L959.836 575.16L957.996 577.262L960.098 583.436L959.704 588.56L956.814 587.772L956.551 583.83H949.72L942.757 584.75L900.323 587.246L890.207 586.852L888.368 585.275L885.084 579.626L884.033 575.291L881.93 574.109L881.274 573.452L882.456 570.561L881.93 563.336L879.829 557.424L880.88 550.987L883.113 544.681L882.85 541.396L880.354 540.477L879.829 536.273L876.15 531.675L873.654 523.529L871.683 514.333L869.45 508.027L864.458 487.007L859.86 476.497L858.809 469.534L858.94 466.513L863.275 466.119L881.142 464.017L905.578 461.389L913.854 459.944L914.511 461.783L911.621 462.966L910.439 465.856L910.964 468.483L912.804 470.585L918.453 474.133L922.657 474.001L926.861 480.176L927.649 482.278L930.67 485.956L931.327 488.19L937.502 490.554L941.443 493.445L944.465 497.386L947.486 499.094L950.114 501.458L951.953 505.006L954.712 507.502L960.098 509.866L963.645 517.749L965.879 524.449L969.557 525.369L972.316 527.865L974.944 535.353L978.754 537.455L980.987 536.404L981.512 537.981L977.177 546.126L977.834 549.542L975.863 555.059L972.842 568.197L973.893 576.473L967.193 576.079Z"
     fill="#DDE2EC"
     id="path9" />
  <path
     d="M713.113 233.509L715.872 236.268L716.266 237.187L713.639 241.128L714.033 246.383L717.449 251.77L721.521 253.872L724.674 254.266L725.857 256.631L726.119 259.784L729.404 261.097L730.586 262.542L731.243 264.644L736.235 268.98L737.024 271.476L736.104 275.417L733.871 280.278L733.082 283.431L730.323 285.533L728.221 286.19L720.733 288.161L718.631 294.467L719.682 296.831L721.915 298.802L721.653 303.4L719.157 305.239L718.237 307.604V310.757L716.398 311.282L714.164 313.122L713.507 315.355L714.033 317.588L712.325 318.902L709.304 315.355L707.464 311.677L696.56 312.728L683.423 313.516L618.786 315.092L616.684 309.443L616.159 300.641L614.32 295.123L613.4 288.292L610.51 283.431L609.196 277.388L605.649 267.141L604.204 259.784L602.365 257.288L600.657 253.478L602.89 248.485L604.467 240.472L600.919 237.581L600.525 234.428L601.445 231.275L603.81 230.881L684.08 230.093L711.931 229.173L713.113 233.509Z"
     fill="#B1B5BD"
     id="path10" />
  <path
     d="M211.92 28.811L205.614 51.6308L199.702 79.0881L195.235 100.397L194.71 113.101L196.286 118.934L200.884 122.429L200.622 127.565L195.498 133.346L189.586 142.016L188.404 145.826L186.827 147.271L184.463 148.322L178.813 155.285L178.288 159.358L177.762 160.803L178.551 162.117L181.966 161.985L183.412 165.007L180.259 172.627L178.682 178.144L167.121 224.52L194.316 230.432L246.209 240.81L291.927 248.824L298.364 210.463L303.356 178.801L299.809 175.648L299.284 172.233L298.233 170.788L295.474 172.101L294.554 175.517L290.35 176.174L285.227 174.072L280.235 174.203L276.95 175.123L272.483 173.152L269.33 173.415L266.178 176.042L263.55 174.597L262.63 169.342L263.55 165.533L260.266 161.723L255.93 158.307L252.383 141.097L252.252 134.922L251.858 134.791L251.595 135.316L244.895 139.915L242.661 139.652L238.852 135.185L238.589 131.112L247.785 108.608L247.26 105.98L242.793 104.47L242.005 102.919L238.589 98.3739L232.546 84.9999L228.342 82.9899L225.714 76.4869L227.422 70.4042L223.218 60.446L228.999 32.1742L211.92 28.811Z"
     fill="#798290"
     id="path11" />
  <path
     d="M794.434 273.841L793.383 270.425L791.675 265.564L789.573 263.199L787.603 259.784L787.077 252.558L766.189 254.923L743.33 256.237H727.171L727.433 258.995L730.324 260.178L731.769 262.017L732.294 263.856L737.418 268.323L738.337 271.476L737.418 275.811L735.184 280.672L734.133 284.219L730.98 286.715L728.484 287.504L721.653 289.212L719.945 294.598L720.733 296.043L723.229 298.408L722.967 304.057L720.208 306.159L719.551 307.867V311.545L717.186 312.334L715.347 313.91L714.821 315.487L715.347 318.114L713.245 319.822L712.062 323.5L712.457 328.624L715.478 337.82L724.674 347.805L732.163 352.665V358.446L733.082 360.022L741.753 360.811L745.3 362.65L744.381 367.248L741.49 375.393L740.439 379.335L743.067 384.195L751.475 391.158L757.781 392.209L760.671 398.909L763.299 403.376L762.116 407.055L764.087 412.047L766.32 414.806L768.422 414.412L769.736 411.521L772.889 409.288L776.567 407.974L784.581 411.259L785.238 410.996V409.551L783.662 406.004L784.187 402.325L787.34 400.223L791.807 398.647L791.15 396.939L790.099 394.311L791.675 392.603L792.989 389.056V383.801L793.515 377.364L796.799 373.423L799.164 368.43L802.448 363.175L801.791 356.213L799.427 352.009L799.032 347.673L800.083 340.71L799.164 331.251L797.719 310.494L795.879 290.394L794.697 275.023L794.434 273.841Z"
     fill="#B1B5BD"
     id="path12" />
  <path
     d="M799.952 276.413L801.923 277.727L803.368 277.333L806.126 274.837L809.411 272.472L828.197 271.027L852.37 268.662L854.472 289.025L860.91 344.991L860.121 348.801L861.829 350.903L862.092 352.611L859.07 354.713L854.341 356.946L850.137 357.472L849.48 363.778L843.306 368.507L839.496 373.762L839.758 376.915L839.102 378.754H834.503L832.664 376.521L825.833 380.462L826.095 384.535L824.913 384.797L824.256 383.615L821.103 381.382L816.374 383.352L814.534 387.162L812.958 386.374L810.856 384.009L805.075 384.666L797.587 385.98L794.303 387.688V384.272L794.828 378.097L797.85 374.288L800.215 369.164L803.762 363.646L803.105 356.026L800.74 351.954L800.346 347.75L801.397 340.787L800.477 331.459L799.295 314.906L796.011 275.362L799.952 276.413Z"
     fill="#DDE2EC"
     id="path13" />
  <path
     d="M619.969 333.43L562.427 332.642L509.089 331.065L480.581 329.883L474.931 415.014L506.855 416.327L565.58 419.086L626.406 419.875L642.96 419.48L643.879 373.499L642.303 358.917L639.018 356.289L635.865 352.348L632.844 347.619L633.632 343.677L635.865 341.838V339.079L634.814 338.16L631.399 337.897L626.8 333.43H619.969Z"
     fill="#B1B5BD"
     id="path14" />
  <path
     d="M779.327 428.414L795.88 427.494L796.011 422.108H801.66L841.598 417.904L900.848 412.255L908.205 407.525L913.329 404.766L913.46 402.27L921.343 392.023L926.729 387.293L929.488 384.14L925.153 381.513L921.868 377.966L917.927 372.974L917.27 370.083L913.854 368.244L912.672 365.748L912.409 357.734L908.993 355.107L906.497 353.662L905.84 350.64L904.133 350.903L901.505 352.479L898.221 356.026L895.725 353.793L892.44 353.136L889.287 354.975H886.266L883.901 352.348L876.544 352.216L874.179 346.305L870.369 344.334L867.61 345.385L862.093 345.648L861.436 348.407L863.012 350.377L863.406 353.136L859.728 355.764L854.736 358.128L851.32 358.654L850.663 364.566L844.226 369.295L840.81 374.156L841.073 377.046L839.89 380.068L833.979 379.936L832.271 378.229L827.147 381.119L827.41 385.454L824.257 386.242L823.206 384.403L820.973 382.827L817.425 384.272L815.061 388.87L812.17 387.556L810.331 385.454L805.47 385.98L798.113 387.293L794.435 389.001L792.858 393.468L791.545 394.782L793.515 399.643L787.997 401.482L785.501 403.321L784.976 406.211L786.552 409.364V412.255L784.45 412.78L776.437 409.496L773.415 410.678L770.787 412.517L769.736 414.882L771.97 418.035L770.787 420.4L770.656 424.735L767.503 426.443L764.744 428.676L779.327 428.414Z"
     fill="#DDE2EC"
     id="path15" />
  <path
     d="M673.832 630.863L684.474 630.469L698.005 635.198L706.545 636.643L711.405 634.673L715.609 636.118L719.813 637.432L720.864 634.673L716.66 633.228L713.245 633.884L709.698 631.782L710.749 629.812L714.821 628.498L717.186 630.469L719.551 629.155L723.755 629.943L725.725 633.096L726.119 636.118L732.031 636.512L734.396 638.877L733.345 640.979L731.637 642.03L733.739 644.132L744.775 648.861L749.504 647.153L750.818 644L754.233 643.212L756.598 641.241L758.306 642.555L759.357 646.365L756.336 647.416L757.124 648.204L761.591 646.496L764.612 642.03L765.663 641.373L762.904 640.979L763.955 638.877L763.692 636.906L766.451 636.249L767.896 634.541L768.685 635.592L769.473 639.665L774.991 640.453L780.246 642.949L781.559 644.92H785.369L786.814 646.234L789.836 642.161V640.19H788.128L783.661 636.643L776.042 635.592L771.838 632.571L773.283 629.024L776.304 629.418L776.567 628.629L774.202 627.316V626.659H778.406L780.771 622.586L779.063 620.09L778.669 616.543L776.699 616.806L774.202 619.565L773.414 622.98L769.342 622.192L768.028 619.827L770.393 617.331L772.889 615.098L769.998 606.559L765.532 602.092L766.845 592.501L766.583 591.845L764.875 592.107L721.39 593.947L720.339 590.794L721.39 579.627L732.688 560.183L731.506 556.768L733.345 556.242L733.87 553.615L730.98 550.987L731.112 548.491L728.484 542.579L727.959 535.879L728.09 534.959L693.407 536.01L660.301 536.142L660.826 548.885L661.746 561.366L662.403 566.227L665.818 572.138L667.001 577.919L672.65 585.801L673.044 589.874L673.832 590.925L672.913 601.829L669.234 607.872L670.811 611.025L670.154 614.441L669.103 624.031L667.395 627.973L667.658 632.833L673.832 630.863Z"
     fill="#B1B5BD"
     id="path16" />
  <path
     d="M1147.57 219.134L1146.91 216.113L1147.96 214.142L1151.77 212.172L1152.82 216.244L1152.17 218.609L1149.01 220.58V221.893L1151.51 219.923L1156.63 214.011L1161.76 211.515L1167.27 209.544L1166.88 206.391L1165.57 202.581L1163.07 199.428L1160.71 198.377L1157.95 198.64L1157.29 199.297L1158.6 201.005L1160.57 199.954L1163.33 202.056L1164.38 205.603L1162.02 207.968L1159 209.281L1154.27 208.624L1149.14 200.742L1146.12 197.326H1143.76L1142.31 198.377L1139.82 194.961L1140.21 192.991L1143.36 186.159L1139.55 180.379L1134.69 182.744L1132.33 186.554L1108.29 192.728L1090.16 196.012L1089.37 209.938L1090.29 216.376L1119.19 210.07L1133.91 206.391L1136.53 208.493L1141 214.142L1144.81 220.317L1147.57 219.134ZM1163.99 220.974L1166.88 220.054L1167.54 217.821L1168.85 217.952L1170.16 220.974L1168.46 221.631L1163.33 221.762L1163.99 220.974ZM1151.64 222.025L1154.66 218.609H1156.76L1159.13 220.58L1155.98 221.893L1153.09 223.207L1151.64 222.025Z"
     fill="#EDF0F5"
     id="path17" />
  <path
     d="M1078.34 339.473L1080.57 334.481L1081.23 328.175L1072.95 329.62L1065.33 330.014L1060.34 307.943L1057.32 300.718L1055.35 294.674L1026.18 300.323L976.783 310.308L979.411 323.971L985.717 317.533L989.001 316.614L990.84 314.643L993.205 311.096L995.307 312.016L998.723 311.753L1002.14 308.994L1004.77 307.024L1007.52 306.235L1009.5 307.68L1013.04 309.52L1015.54 311.884L1017.25 313.724L1023.55 315.826L1022.76 319.635L1030.38 322.394L1033.14 318.979L1038 322.263L1035.24 326.598L1034.33 330.934L1031.96 334.349V337.108L1032.35 338.159L1034.98 339.867L1039.45 341.312L1045.1 341.181L1049.17 342.495L1051.93 342.889L1053.24 340.13L1051.27 337.371V335.006L1048.12 332.247L1045.36 325.022L1047.07 318.059L1046.81 315.3L1045.1 313.592C1045.1 313.592 1047.07 311.49 1047.07 310.571C1047.19 309.631 1047.41 308.707 1047.73 307.812L1050.22 306.104L1052.72 304.002L1053.37 305.316L1051.4 307.418L1049.7 312.278L1050.09 313.724L1052.45 314.118L1053.11 321.343L1050.35 322.657L1050.75 327.387L1051.4 327.124L1052.85 324.628L1054.95 326.992L1052.85 328.7L1052.45 333.167L1055.87 337.634L1060.99 338.291L1063.1 337.24L1067.3 342.757L1068.61 343.283L1078.34 339.473ZM1059.29 339.736L1060.73 343.02L1060.99 345.385L1062.44 347.881C1062.44 347.881 1063.62 346.699 1063.62 346.304C1063.62 345.91 1062.7 342.232 1062.7 342.232L1061.78 339.21L1059.29 339.736Z"
     fill="#EDF0F5"
     id="path18" />
  <path
     d="M1119.06 113.245L1121.03 113.77V110.355L1122.08 103.129L1125.5 96.9544L1127.47 91.6995L1124.97 88.5465V80.664L1126.02 79.3503L1127.08 75.8031L1126.81 73.8325L1126.55 67.5266L1128.91 61.2206L1132.72 49.5282L1135.48 44.0105H1137.19L1138.9 44.2733V45.7184L1140.61 48.74L1144.15 49.5282L1145.2 48.4772V47.1635L1150.46 43.3536L1152.82 40.9889L1154.8 41.2516L1162.68 44.4046L1165.17 45.7184L1177.13 84.9994H1185.01L1186.06 87.4955L1186.33 93.8015L1190.14 96.8231H1191.19L1191.45 96.1662L1190.79 94.7211L1194.47 94.0642L1196.97 96.8231L1199.99 101.684V104.18L1197.23 110.355L1194.73 111.143L1190.27 115.216L1183.96 122.441H1182.25C1181.46 122.441 1180.94 119.682 1180.94 119.682L1178.57 119.945L1177.26 121.916L1174.11 123.886L1172.79 125.857L1174.9 127.827L1174.24 128.616L1173.58 132.163L1171.09 131.9V129.798L1170.69 128.09L1168.72 128.484L1166.36 124.28L1163.6 125.988L1165.31 127.959L1165.7 129.404L1164.65 131.112L1165.04 135.184L1165.31 137.286L1163.2 140.702L1159.39 141.359L1159 145.169L1152.04 149.242L1150.33 149.898L1148.23 147.928L1144.15 152.657L1145.47 156.861L1143.5 158.569L1143.23 164.35L1141.79 172.626L1138.9 171.444L1138.24 167.371L1132.99 165.926L1132.72 162.642L1117.35 113.468L1119.06 113.245ZM1167.01 133.739L1168.98 131.769L1170.82 133.214L1171.61 136.367L1169.38 137.549L1167.01 133.739ZM1175.82 125.988L1178.18 128.484C1178.18 128.484 1179.89 128.616 1179.89 128.222C1179.89 127.827 1180.15 125.594 1180.15 125.594L1181.33 124.543L1180.28 122.178L1177.65 123.098L1175.82 125.988Z"
     fill="#EDF0F5"
     id="path19" />
  <path
     d="M828.328 269.712L853.421 267.216L853.684 268.661L866.69 266.691L882.455 264.457L882.586 263.669L882.849 261.698L885.608 256.837L888.235 254.604L887.972 247.904L890.074 245.802L891.519 245.408L891.782 240.678L893.753 236.737L895.198 237.525L895.461 238.314L896.512 238.576L899.008 237.263L898.482 225.308L894.278 214.535L891.257 202.58L888.104 198.376L884.688 196.011L882.586 197.456L877.462 199.821L874.966 206.39L871.419 211.251L869.974 212.039L868.003 211.251C868.003 211.251 864.588 209.28 864.85 208.492C865.113 207.703 865.507 201.923 865.507 201.923L869.974 200.215L871.025 195.748L871.813 192.333L874.966 190.231L874.572 177.093L872.47 174.072L870.762 173.021L869.711 170.262L870.762 169.211L872.864 169.605L873.127 167.503L869.711 164.613L868.003 161.197H864.588L858.676 159.226L851.45 154.759H847.903L847.115 155.548L845.801 154.891L841.729 151.869L837.919 154.234L834.109 157.256L834.503 161.985L835.817 162.379L838.576 163.036L839.232 164.087L835.817 165.138L832.401 165.532L830.43 167.897L830.036 170.656L830.43 172.758L830.824 179.983L826.095 182.742L825.307 182.479V176.962L827.015 173.809L827.803 170.656L826.752 169.605L824.256 170.656L822.942 176.174L819.395 177.619L817.03 180.115L816.767 181.428L817.556 182.479L816.767 185.895L813.746 186.552V187.997L814.797 191.15L813.352 199.164L811.25 204.419L812.038 210.594L812.695 212.039L811.644 215.192L811.25 216.243L810.856 219.79L815.585 227.672L819.395 236.212L821.366 242.518L820.315 248.692L819.001 256.575L815.848 263.406L815.454 266.953L811.25 271.026L828.328 269.712ZM784.581 174.597L782.873 173.152L780.508 159.489L775.647 157.781L773.414 154.759L756.861 151.081L753.182 149.636L742.541 146.746L732.294 145.432L727.17 138.469L728.09 137.812L731.637 136.761L736.366 133.74V132.426L737.154 131.638L745.037 130.324L748.19 127.828L753.97 125.069L754.233 123.361L756.729 119.551L759.094 118.5L760.802 116.135L763.823 113.114L769.604 109.961L775.779 109.304L777.224 110.749L776.829 112.063L771.969 113.376L769.998 117.449L766.976 118.5L766.32 121.653L763.167 125.857L762.772 129.273L763.823 129.93L765.137 128.485L769.867 124.675L771.575 126.383H774.596L778.8 127.696L780.771 129.141L782.741 133.214L786.288 136.761L791.412 136.498L793.383 135.185L795.485 136.893L797.587 137.549L799.295 136.498H800.74L802.842 135.185L808.097 130.455L812.563 129.01L821.234 128.616L827.146 126.12L830.562 124.412L832.532 124.675V132.163L833.189 132.557L836.999 133.608L839.495 132.951L847.509 130.849L848.954 129.404L850.925 130.061V139.257L855.129 143.33L856.837 144.118L858.544 145.432L856.837 145.826L855.786 145.432L850.925 144.775L848.166 145.563L845.144 145.3L840.94 147.271H838.576L830.956 145.563L824.124 145.826L821.628 149.242L812.432 150.03L809.279 151.081L807.834 155.154L806.126 156.599L805.469 156.336L803.499 154.234L797.587 157.387H796.798L795.353 155.285L794.302 155.548L791.806 161.328L790.492 166.583L786.288 175.648L784.581 174.597ZM745.694 100.37L748.059 97.6115L750.949 96.5605L758.043 91.4369L761.065 90.6487L761.721 91.3056L755.021 98.0057L750.686 100.502L747.927 101.684L745.694 100.37ZM858.939 142.542L859.727 145.826L863.931 146.089L865.639 144.512C865.639 144.512 865.507 142.542 865.113 142.41C864.36 141.624 863.658 140.79 863.011 139.914L860.121 140.177L858.019 140.44L857.625 141.885L858.939 142.542Z"
     fill="#DDE2EC"
     id="path20" />
  <path
     d="M591.986 80.257L591.198 85.3937V98.9253L593.3 105.494L595.796 109.856L596.453 122.901L598.817 140.571L601.182 150.161L601.708 158.569V165.532L599.606 167.897L597.241 169.605V171.575L598.423 173.809L603.81 178.407L604.729 182.611V229.774L683.948 228.986L711.799 228.066L711.143 220.184L708.778 217.425L699.319 211.382L694.589 204.419L690.123 203.237L687.495 199.558H683.291L678.693 194.566L678.036 185.37L678.168 180.246L680.138 176.305L679.219 172.758L675.54 168.685L678.43 160.671L685.525 155.416L687.101 153.577L686.838 143.067L687.101 139.126L690.517 135.185L695.509 131.375L697.217 131.112L703.129 124.543L705.493 123.492L708.515 118.369L711.668 113.639L715.741 110.223L722.047 107.596L734.133 102.21L739.257 99.8449L740.045 96.8233L734.265 97.3488L733.345 98.7939H732.557L730.192 94.7213L718.5 95.1154L717.186 96.1664H715.872L715.215 94.4585L714.164 92.0938L710.748 92.7507L706.544 96.9547L704.442 98.0057H700.37L696.954 96.6919V93.9331L695.246 93.6703L694.589 94.3272L691.174 92.6193L690.517 88.8094L688.546 89.4663L687.889 90.7801L684.736 90.1232L677.773 86.9702L672.65 83.5545H668.84L667.132 82.2407L664.11 83.029L662.665 84.4741L662.271 86.182H655.965V83.4231L647.689 83.029L647.295 81.0583H640.989L638.887 78.9564L636.916 70.9425L635.865 63.7169L633.369 62.6659L630.347 62.009L629.559 62.2718L629.165 73.0445H589.621L591.986 80.257Z"
     fill="#798290"
     id="path21" />
  <path
     d="M760.803 437.272L761.46 429.52L766.977 425.054L769.474 423.74V419.93L770.393 417.828L768.948 415.726L765.795 416.12L763.036 412.836L760.803 406.924L761.985 403.508L759.358 399.304L756.993 393.261L750.95 392.341L742.016 384.984L739.126 379.467L740.177 375.131L743.067 367.249L743.856 363.308L741.359 361.994L732.295 361.206L730.849 358.71V353.323L723.887 348.725L714.428 338.478L711.406 328.888L710.749 323.37L711.669 320.217L708.253 316.144L706.677 312.991L696.561 314.042L683.423 314.83L619.312 316.407L621.02 319.823L620.889 322.713L623.911 327.442L627.852 332.566L631.924 336.507L635.34 336.77L637.179 338.215V342.025L634.815 344.127L634.158 347.149L636.917 351.353L640.07 355.294L643.485 358.053L645.193 373.292L644.142 425.842L644.799 433.33L675.935 433.068L706.545 432.148L749.242 430.44L752.132 435.301L751.081 439.374L747.009 442.658L746.352 445.023L753.183 445.68L758.57 444.234L760.803 437.272Z"
     fill="#B1B5BD"
     id="path22" />
  <path
     d="M775.516 613.259L778.932 607.741L781.296 608.792L790.23 606.296L792.989 606.69L794.959 607.741H801.791L802.316 605.639L800.083 586.196L796.404 561.234L797.718 501.984L797.455 480.045L797.718 471.768L791.412 472.162L765.663 474.264L748.584 474.79L748.321 478.994L744.643 480.702L741.227 487.402L741.884 489.504L742.015 492.657L738.206 494.102L733.607 500.802L734.658 503.824L730.717 507.108L729.403 514.596L728.615 517.093L730.717 520.377L728.747 522.216L730.717 525.895L731.111 531.412L729.535 534.697L729.272 535.879L729.798 542.448L732.425 548.36L732.294 550.593L735.315 553.221L734.396 557.293L733.213 557.687L734.002 560.183L722.703 579.89L721.652 590.662L722.309 592.633L754.102 591.713L764.875 590.794L767.371 590.4L768.159 592.239L766.845 601.566L771.181 605.902L774.071 614.31L775.516 613.259Z"
     fill="#B1B5BD"
     id="path23" />
  <path
     d="M456.013 85.486L449.05 160.54L447.342 180.509L369.7 171.838L305.327 162.511L303.487 177.225L300.991 174.991L300.466 171.707L298.758 169.211L294.423 171.182L293.503 174.466L290.481 174.86L285.489 172.758L280.103 172.889L276.95 173.809L272.746 171.838L268.804 172.101L266.046 174.597L264.863 173.809L263.944 169.342L264.863 165.138L261.316 160.934L256.981 157.65L253.696 141.097L253.565 134.134L251.463 133.083L250.675 134.397L244.763 138.601L243.186 138.469L240.165 134.791L239.902 131.112L249.098 108.582L248.31 105.074L243.712 103.603L243.186 102.407L239.639 97.8089L233.596 84.1328L229.392 82.0571L227.027 76.4605L228.735 70.3779L224.531 60.4329L230.312 32.4501L273.271 41.5149L297.444 45.9817L339.878 52.9445L378.371 58.1995L416.732 62.7976L457.196 66.8308L456.013 85.486Z"
     fill="#798290"
     id="path24" />
  <path
     d="M1015.14 462.44L998.459 452.325L994.386 451.274L972.578 454.033L970.476 450.091L966.797 447.201L944.858 447.858L935.136 449.04L923.05 454.952L914.116 458.499L905.577 460.076L887.973 461.915L888.104 456.529L890.337 454.821L893.885 453.901L894.804 448.909L899.928 445.625L905.051 443.654L910.963 438.793L916.744 435.771L917.663 431.567L923.05 426.575L923.969 427.889L927.254 428.152L930.407 423.422L932.64 422.897L936.056 423.291L938.42 418.036L941.705 414.883L942.362 412.518L942.493 407.92L948.274 408.051L998.853 400.694L1074.39 384.535L1077.02 390.841L1081.75 399.381L1084.9 402.534L1085.69 405.555L1082.54 405.818L1083.59 406.606L1083.2 412.124L1079.78 413.832L1078.99 416.591L1077.28 420.401L1072.42 422.503L1069.27 422.109L1067.3 421.846L1065.2 420.138L1065.59 421.846V423.16H1068.09L1069.14 424.867L1066.64 433.144H1072.16L1072.95 435.246L1075.97 432.224L1077.68 431.567L1075.18 436.297L1071.11 442.603H1069.4L1067.96 441.946L1064.41 442.734L1057.58 445.887L1049.04 452.85L1044.57 459.025L1042.07 467.564L1041.42 470.717L1035.24 471.374L1028.54 473.345L1015.14 462.44ZM1079.91 428.02L1083.33 424.736L1087.53 421.32L1089.5 420.532L1089.76 417.905L1088.98 409.891L1087.01 406.869L1086.22 404.373L1087.14 404.11L1090.68 411.336L1091.21 417.116L1090.95 421.583L1086.48 423.554L1082.8 426.707L1081.36 428.283L1079.91 428.02Z"
     fill="#DDE2EC"
     id="path25" />
  <path
     d="M600.394 158.57L599.869 150.425L597.504 140.834L595.139 122.954L594.483 110.211L591.986 106.02L589.884 99.0442V85.3681L590.673 80.3102L588.308 73.032L550.735 72.2569L526.299 71.4687L491.485 69.7608L458.378 66.9231L457.196 85.8673L451.021 152.79L525.642 157.913L600.394 160.146V158.57Z"
     fill="#798290"
     id="path26" />
  <path
     d="M599.473 260.911L598.16 257.89L597.503 255.788L593.693 253.686L587.387 251.715L584.497 250.138L581.081 250.27L576.22 250.795L570.702 252.372L562.82 246.986L559.93 244.358L545.872 245.146L491.352 241.993L444.583 239.103L438.934 296.514L482.419 300.849L480.579 328.569L509.088 329.883L562.426 331.459L619.968 332.248H625.88L622.989 328.306L619.574 323.183L619.705 320.161L617.866 316.614L615.37 309.783L614.844 300.98L613.005 295.594L612.348 289.025L609.326 284.165L608.013 277.99L604.334 267.611L603.02 260.648L599.473 260.911Z"
     fill="#B1B5BD"
     id="path27" />
  <path
     d="M1139.95 178.145L1141.4 173.941L1137.85 172.364L1137.19 168.292L1131.8 166.847L1131.41 162.905L1116.04 113.666L1115.12 113.771L1114.33 115.873L1113.54 115.216L1112.23 113.903L1110.26 116.399L1110 119.407L1110.65 130.456L1113.15 134.134V139.784L1108.03 146.089L1104.87 147.272V148.191L1106.32 150.688V161.986L1105.27 174.072L1105 180.247L1106.32 182.086L1106.06 188.261L1105.4 190.231L1106.71 191.676L1113.41 190.1L1131.54 185.502L1133.78 181.692L1139.03 179.196L1139.95 178.145Z"
     fill="#EDF0F5"
     id="path28" />
  <path
     d="M1063.75 292.441L1063.88 290.47L1067.43 288.762L1069.66 285.084L1071.9 281.931L1076.23 277.727V276.15L1068.22 270.764L1066.9 267.217L1063.36 266.823L1063.23 265.641L1062.31 262.75L1065.2 261.305L1065.46 257.495L1063.75 255.787L1064.01 254.211L1066.51 250.138V246.066L1069.8 241.993L1077.15 245.277L1085.56 247.774L1088.84 249.35L1088.98 251.715L1088.32 255.262L1088.84 261.174L1086.09 263.67L1084.64 264.984L1085.3 265.641L1088.84 265.246L1090.29 264.195L1092.39 268.662L1092.65 281.011L1093.44 282.456L1092 289.682L1087.92 298.221L1084.38 303.476L1083.33 309.782L1080.57 312.935H1079.52L1079.12 309.388L1080.17 308.074L1079.91 306.104L1074.66 305.316L1068.35 302.294L1064.15 298.484L1062.83 295.857L1063.75 292.441Z"
     fill="#EDF0F5"
     id="path29" />
  <path
     d="M336.594 556.636L314.654 553.22L313.077 565.832L292.32 563.205L300.203 511.049L309.399 441.158L315.179 400.563L359.847 405.687L408.981 411.467L451.021 415.146L450.627 429.334L448.787 429.203L439.066 557.556L401.755 555.191L351.702 550.33L352.621 558.607L336.594 556.636Z"
     fill="#798290"
     id="path30" />
  <path
     d="M143.342 220.579L194.184 231.746L228.341 238.577L214.415 308.337L207.321 347.487L202.986 367.85L200.227 382.432L196.811 403.978L194.578 408.05L192.476 407.919L190.899 404.503L187.221 403.847L185.513 402.401L183.148 402.533L181.966 403.584L179.601 405.292L179.207 414.882L178.813 416.853L178.156 433.143L176.711 435.508L154.771 402.007L99.4627 320.424L83.1328 295.462L94.3653 252.634L104.875 211.514L143.342 220.579Z"
     fill="#798290"
     id="path31" />
  <path
     d="M1089.63 255.262L1090.29 251.715L1090.03 248.562L1086.09 246.591L1077.55 243.964L1069.67 240.548L1068.88 240.023L1065.33 239.629L1062.7 237.658L1059.94 229.907L1055.61 229.25L1052.45 226.097L1002.01 236.738L960.493 244.621L959.836 236.081L961.938 234.505L963.646 233.06L964.96 230.958L967.324 229.513L969.82 227.148L970.477 225.046L973.236 221.499L974.681 220.185L974.419 218.871L972.711 214.799L970.346 214.536L967.85 206.522L971.66 204.157L977.44 202.187L982.695 200.479L986.899 199.822L995.176 199.559L997.672 201.267L999.774 201.53L1002.53 199.822L1005.95 198.377L1012.78 197.72L1015.54 195.355L1017.9 191.151L1020.01 188.655H1022.76L1025.26 187.21L1025.52 184.189L1023.55 181.43L1023.16 179.459L1024.6 176.7V174.73H1022.24L1019.87 173.679L1018.82 172.233L1018.56 168.818L1026.18 161.592L1026.97 160.541L1028.94 156.731L1032.75 150.819L1036.3 145.959L1039.05 142.806L1042.21 140.441L1046.28 138.864L1053.51 137.156L1057.71 137.419L1063.62 135.449L1073.34 132.558L1074.26 138.996L1077.42 147.535L1078.47 154.104L1077.15 159.622L1080.57 165.533L1081.62 168.161L1080.44 172.365L1085.3 174.598L1088.85 187.998V195.618L1088.06 209.938L1089.11 217.032L1090.03 221.762L1092 231.352V241.993L1090.55 245.015L1093.31 248.562L1093.97 249.744L1091.47 252.109L1091.87 253.817L1093.58 253.423L1095.55 251.715L1098.57 248.299L1100.01 247.511L1102.11 248.299L1105.14 248.562L1115.51 243.438L1119.32 239.891L1121.03 237.921L1126.55 240.023L1122.08 244.752L1116.96 248.562L1107.63 255.525L1104.22 256.839L1096.6 259.335L1091.34 260.78L1090.03 260.254L1089.63 255.262Z"
     fill="#EDF0F5"
     id="path32" />
  <path
     d="M853.684 269.976L855.917 290.339L862.223 344.334L867.347 344.071L870.368 343.02L875.098 345.385L877.331 350.903L884.425 351.034L886.79 353.662H889.023L892.176 351.822L896.249 352.479L898.22 354.187L900.584 351.56L903.606 349.72L906.759 349.195L907.547 352.742L909.649 354.056L913.065 356.683L914.116 356.946L916.743 356.815L918.32 356.026V353.267L920.553 351.297L920.685 344.991L922.13 339.473L924.626 337.765L925.94 338.685L927.253 340.13L928.173 340.393L928.699 339.867L927.516 336.32V333.43L928.961 331.591L932.246 326.861L933.953 324.891L936.844 325.547L939.603 323.577L943.544 319.241L946.434 314.381L946.697 307.286L947.354 300.718V294.674L945.777 290.47L947.354 288.106L949.062 286.529L948.273 282.851L942.624 249.219L934.479 254.08L929.355 257.101L924.889 261.962L919.634 267.086L915.43 268.137L911.62 268.794L904.394 272.209L901.635 272.472L897.169 268.399L890.337 269.188L886.921 267.217L884.031 265.509L853.684 269.976Z"
     fill="#DDE2EC"
     id="path33" />
  <path
     d="M522.751 432.279L520.386 464.203L519.204 487.851L519.466 489.953L524.721 494.682L526.955 495.865H528.137L529.32 493.106L531.29 495.602L533.392 495.733L533.786 495.471L534.049 494.025L537.728 495.865L537.202 500.463L542.194 501.12L545.479 502.433L550.996 503.222L554.018 505.324L557.302 503.09L561.9 504.01L564.791 508.083L566.367 508.214V511.236L569.126 512.155L572.41 509.396L574.775 510.185L578.322 510.316L579.242 513.338L585.022 515.702L587.256 515.308L589.752 509.79H591.46L592.905 512.549L598.423 513.6L602.889 515.308L606.831 516.359L608.933 515.439L609.852 511.892H615.764L618.26 513.075L621.807 510.579H623.647L624.435 512.418H629.164L631.792 510.053L634.813 510.841L637.047 513.732L640.988 515.965L645.455 517.147L647.951 518.724L647.557 469.327L645.717 455.007L645.586 443.709L643.615 435.038L642.827 426.105L642.959 420.456L626.405 420.85L565.579 420.193L506.855 417.434L452.334 415.069L451.809 429.126L522.751 432.279Z"
     fill="#B1B5BD"
     id="path34" />
  <path
     d="M70.2199 201.266L107.32 210.725L143.474 219.264L165.808 224.125L177.369 178.013L178.945 172.232L182.098 165.007L181.179 163.299L177.894 163.43L176.187 161.066L176.975 159.095L177.5 154.76L183.675 147.271L186.171 146.089L187.353 145.038L188.273 141.491L189.324 140.046L194.448 132.557L199.309 127.302L199.571 123.019L195.105 119.748L193.528 113.771L176.318 108.739L156.218 104.18L136.774 104.706L135.329 102.945L128.629 105.363L122.717 104.706L119.564 102.656L117.856 103.392L111.682 102.985L109.054 101.106L102.696 98.7809L101.251 98.6889L95.4044 97.0204L93.0922 99.0173L84.8681 98.702L77.971 93.6704L78.2469 81.4788L75.6194 76.8807L70.233 76.0925L69.3134 72.8081L66.1604 72.1512L58.5407 74.9101L55.5191 83.4495L51.2494 96.5606L47.0454 105.1L40.4767 123.624L31.9373 141.491L21.296 158.044L18.7999 161.854L17.7489 173.152L16.041 181.034L19.6013 185.633L70.2199 201.266Z"
     fill="#798290"
     id="path35" />
  <path
     d="M949.324 245.014L951.032 244.357L958.521 237.132L959.44 246.197L1003.45 237.657L1051.93 227.41L1054.95 230.432L1059.02 230.957L1061.65 238.314L1064.8 240.81L1068.48 241.336L1068.61 241.467L1065.2 245.671V249.744L1062.7 253.816L1062.44 256.313L1064.15 258.02L1063.88 260.517L1060.73 261.962L1062.04 266.428L1062.31 267.874L1065.98 268.268L1067.17 271.552L1074.92 276.676V277.201L1070.85 281.142L1068.88 284.033L1066.64 287.711L1063.09 289.288L1061.26 289.682L1058.5 291.39L1056.39 293.229L1026.97 298.878L976.125 309.125L961.279 310.964L956.156 311.884L949.456 282.456L943.807 248.43L949.324 245.014Z"
     fill="#EDF0F5"
     id="path36" />
  <path
     d="M1129.31 223.339L1128.26 217.558L1126.15 209.676L1133.64 207.705L1135.61 209.413L1140.08 215.062L1143.76 220.843L1140.08 222.682L1138.37 222.419L1136.93 224.784L1133.77 227.28L1130.1 228.725L1129.31 223.339Z"
     fill="#EDF0F5"
     id="path37" />
  <path
     d="M979.001 536.299L976.242 534.985L973.746 527.628L970.462 524.606L967.177 523.949L965.207 517.906L961.266 509.367L955.748 507.002L953.252 504.637L951.675 501.222L948.522 498.594L945.501 496.886L942.61 493.076L938.406 489.923L932.626 487.69L932.1 485.851L929.079 482.172L928.422 480.202L923.43 473.107L918.963 473.239L913.839 469.954L912.263 468.378L912 466.539L912.788 464.437L916.335 462.729L915.284 460.101L923.692 456.554L935.779 450.642L945.106 449.46L966.652 448.803L969.674 451.299L972.038 455.897L978.081 454.846L994.635 452.876L998.182 453.927L1014.6 463.648L1027.87 474.553L1020.91 481.647L1017.49 489.661L1016.84 497.937L1014.73 498.988L1013.29 502.535L1010.14 503.324L1007.38 508.053L1003.83 511.6L1000.81 516.067L998.707 517.118L993.978 521.585L990.168 521.847L991.482 526.051L984.913 533.014L981.891 535.116L979.001 536.299Z"
     fill="#DDE2EC"
     id="path38" />
  <path
     d="M600.394 230.432L599.211 234.636L599.737 238.577L603.153 241.205L601.576 248.299L599.211 253.686L601.182 258.021L602.102 259.466L600.394 259.597L599.474 257.495L598.686 254.868L594.351 252.503L588.045 250.533L584.76 248.825L580.95 248.956L575.827 249.482L570.835 251.058L563.872 246.066L560.325 242.913L546.005 243.964L491.484 240.811L444.715 237.921L446.686 205.34L450.364 160.672L450.89 154.104L525.642 159.227L600.394 161.461V165.008L598.686 166.978L596.058 168.949L595.927 171.839L597.372 174.729L602.759 179.196L603.415 182.743V229.907L600.394 230.432Z"
     fill="#798290"
     id="path39" />
  <path
     d="M862.88 464.936L845.669 466.512L815.059 469.403L765.662 472.95L750.16 473.475L751.343 472.687L752.525 466.775L750.948 462.046L756.072 459.024L756.598 455.74L758.174 450.09L762.115 437.61L762.772 430.253L763.166 429.99L779.325 429.727L797.192 428.676L797.324 423.553L801.922 423.421L841.86 419.086L912.802 412.255L926.333 410.284L936.318 410.021L939.471 407.525L941.179 407.919L941.047 412.255L940.522 414.357L937.369 417.247L935.267 421.976L932.639 421.451L929.486 422.633L926.596 426.969L924.757 426.706L923.706 425.129L922.261 425.655L916.612 430.91L915.561 434.982L910.043 437.873L904.394 442.602L899.402 444.573L893.621 448.251L892.833 452.981L889.549 453.638L886.921 455.871L886.658 462.177L862.88 464.936Z"
     fill="#DDE2EC"
     id="path40" />
  <path
     d="M353.146 551.644L401.755 556.373L440.248 558.87L449.97 430.517L521.437 433.67L519.204 464.28L517.89 487.927L518.153 490.555L523.933 495.941L526.561 497.386H528.926L529.583 495.81L530.502 496.992L533.655 497.255L535.1 496.467V496.204L536.414 496.861L535.888 501.722L541.8 502.641L544.953 503.824L550.471 504.743L553.887 507.108L557.565 504.612L561.112 505.4L564.003 509.473L565.054 509.604V512.363L569.389 513.808L572.673 511.049L574.644 511.706L577.403 511.837L578.191 514.596L585.023 517.224L588.044 516.567L590.54 511.312H590.672L592.117 513.808L598.16 514.99L602.627 516.698L606.831 518.012L609.984 516.436L610.903 513.414H615.633L618.392 514.728L622.333 512.1H622.858L623.515 513.939H629.69L632.186 511.575L633.894 512.1L636.127 514.859L640.463 517.355L644.929 518.669L648.214 520.508L651.761 523.136L655.833 521.559L658.592 522.61L659.512 548.885L660.432 561.366L661.22 566.752L664.636 572.532L665.818 578.444L671.336 586.195L671.73 590.268L672.518 591.319L671.598 601.435L667.789 607.741L669.496 611.157L668.84 614.31L667.789 623.769L666.081 627.71L666.475 633.227L659.118 635.329L646.112 641.241L644.798 643.737L641.382 646.234L638.623 648.204L636.915 649.255L629.427 656.218L625.88 658.977L618.917 663.181L611.429 666.334L603.152 670.801L600.787 672.771L593.168 677.501L588.701 678.289L583.577 685.515L578.322 685.909L577.009 688.405L580.03 690.901L578.06 698.127L576.352 704.038L574.907 709.162L573.856 715.074L574.907 718.227L577.271 727.423L578.585 735.437L580.95 738.984L579.636 740.955L575.564 743.451L568.075 738.327L560.85 736.882L559.142 737.539L554.938 736.751L549.42 732.678L542.589 731.233L532.604 726.766L529.845 721.643L528.137 713.103L523.933 710.607L523.145 707.586L523.933 706.797L524.328 702.331L522.62 701.542L521.831 700.229L523.539 694.448L521.437 691.426L517.233 689.719L512.767 683.938L508.037 675.267L502.519 671.852L502.782 669.355L495.819 653.196L494.768 647.679L492.403 645.183L492.141 643.212L484.258 636.249L480.843 632.177V630.731L477.427 627.973L468.493 626.527L458.772 625.739L454.699 622.718L448.787 625.082L444.058 627.053L441.036 631.257L439.722 636.118L433.942 644.132L430.789 647.285L427.373 645.971L425.008 644.526L422.512 643.737L417.389 640.716V639.928L415.024 637.432L408.192 634.673L398.471 624.425L395.449 618.251V607.609L391.245 599.07L390.588 595.523L388.486 594.209L387.041 591.45L380.472 588.692L378.765 586.59L369.437 576.211L367.729 572.007L361.554 568.985L359.584 563.205L356.168 559.395L353.935 558.738L353.146 551.644ZM582.264 737.802L581.475 728.474L577.928 719.015L577.14 709.819L579.111 699.046L583.446 689.981L588.044 682.887L592.248 678.158L593.036 678.42L586.73 687.091L580.95 695.63L578.322 704.301L577.928 711.133L579.111 719.146L582.526 728.605L583.183 735.437L583.446 737.408L582.264 737.802Z"
     fill="#B1B5BD"
     id="path41" />
  <path
     d="M281.679 394.388L313.998 399.117L316.494 381.119L325.69 314.775L328.711 285.872L286.409 281.274L289.299 264.064L291.664 250.138L246.077 242.125L229.655 238.84L215.729 308.337L208.635 347.75L204.3 367.981L202.066 380.068L281.679 394.388Z"
     fill="#798290"
     id="path42" />
  <path
     d="M1078.2 340.919L1077.94 344.598L1074.13 349.59L1073.6 355.633L1074.26 360.1L1071.9 366.668L1069.01 369.165L1067.04 363.121L1067.56 356.027L1069.66 350.509L1070.58 346.174L1070.45 343.941L1078.2 340.919ZM998.984 399.512L948.274 406.869L941.968 406.738L939.077 406.344L935.793 408.84L926.203 408.971L912.671 411.073L903.869 411.861L909.255 408.446L914.642 405.424V402.665L922.13 393.075L927.516 388.214L930.407 384.93L935.136 390.579L940.128 391.761L943.675 390.447L946.303 388.477L949.456 390.053L955.499 388.345L957.733 382.565L960.886 383.484L965.09 380.463L967.192 380.988L970.87 376.784L971.133 373.237L970.082 371.661L976.388 357.866L978.753 351.035L979.409 344.86L980.329 344.598L981.774 346.831L983.745 348.407L988.868 348.145L991.102 337.503L995.043 336.715L996.094 333.299L999.772 330.409L1001.22 327.65L1003.58 322.001L1003.71 315.958L1008.44 317.797L1017.11 321.87L1017.51 315.038L1021.97 316.615L1021.19 320.425L1032.48 324.497L1034.32 326.862L1033.27 331.197L1031.57 332.905L1030.91 335.139L1031.57 338.292L1034.19 339.999L1039.32 341.839L1043.13 343.152L1049.56 344.335L1052.45 347.094L1056.66 347.619L1057.84 349.196L1057.31 355.37L1059.15 356.815L1058.5 359.312L1060.07 360.363L1059.81 362.202L1056.26 362.07L1056.39 364.172L1059.42 366.143L1059.55 367.982L1061.91 370.347L1062.57 373.631L1059.15 375.471L1061.26 377.441L1068.88 375.208L1073.74 383.353L998.984 399.512Z"
     fill="#DDE2EC"
     id="path43" />
  <path
     d="M1075.58 138.732L1078.73 147.272L1079.78 154.235L1078.47 159.358L1081.75 165.139L1082.93 168.16L1082.01 171.576L1086.35 173.547L1090.16 187.735V194.698L1105.27 191.939L1103.95 190.494L1104.74 187.998L1105 182.349L1103.69 180.509L1103.95 174.335L1105 162.117V150.95L1103.56 148.585V146.483L1107.24 145.038L1111.84 139.258V134.528L1109.34 130.981L1108.94 123.375L1074.66 132.295L1075.58 138.732Z"
     fill="#EDF0F5"
     id="path44" />
  <path
     d="M79.4941 81.4525L76.4725 75.8034L71.0862 74.8838L70.5607 71.7308L67.2763 70.9426L63.4664 70.2857L61.1017 71.5994L58.0801 67.7896L58.4742 63.9797L62.0213 63.5856L64.1233 58.3306L60.7076 56.8855L60.9703 52.0246L66.7508 51.2364L63.2037 47.6893L61.2331 38.3617L62.0213 34.5518V24.1732L59.6566 19.9692L62.6782 7.62002L65.4371 8.2769L68.59 12.0868L72.1372 15.5025L76.3411 17.9986L82.253 20.7575L86.3256 21.5457L90.1355 23.5163L94.6022 24.8301L97.6238 24.5673V21.4144L99.3317 19.9692L102.091 18.2614L102.485 19.7065L102.879 22.0712L99.8572 22.7281L99.4631 25.487L101.828 27.4576L103.273 30.6106L104.061 33.1067L106.032 32.8439L106.295 31.1361L104.981 29.4282L104.324 25.2242L105.375 22.8595L104.587 20.8889V17.4731L106.951 12.7436L105.506 9.32789L102.353 3.02191L102.747 1.97092L104.587 0.919922L110.367 2.89054L123.11 6.43765L134.409 8.93377L160.684 16.4221L190.9 23.9105L210.606 28.4954L204.3 51.6305L198.388 78.9301L193.921 100.239L193.396 112.299L176.449 107.412L156.348 102.867L137.299 103.287L135.854 101.277L128.365 104.023L123.242 103.471L119.826 101.119L117.593 101.973L112.141 101.645L109.881 99.9107L103.102 97.6116L101.552 97.4014L95.2459 95.5753L92.7235 97.743L85.3009 97.4145L79.2445 93.0135L79.4941 81.4525ZM92.1061 8.67102L94.7336 8.40827L95.3904 10.2475L97.3611 8.14552H100.383L101.434 10.1161L99.4631 12.3495L100.251 13.4005L99.3317 16.028L97.4924 16.5535C97.4924 16.5535 96.3101 16.6849 96.3101 16.2907C96.8871 15.1079 97.5456 13.9666 98.2807 12.875L96.0473 12.0868L95.6532 14.0574L94.7336 14.8456L92.763 11.824L92.1061 8.67102Z"
     fill="#798290"
     id="path45" />
  <path
     d="M692.882 136.686L696.692 137.343L700.502 136.554L710.224 132.35L714.033 129.854L716.792 128.803L719.288 130.774L717.843 132.219L715.347 136.292L714.559 138.788L715.873 139.576L718.237 138.262L719.682 137.999L723.23 139.05L724.018 140.496L725.463 140.758L726.251 139.313L731.506 146.276L742.279 147.853L753.052 150.743L756.467 152.188L772.626 155.604L774.728 158.625L779.458 160.202L781.691 173.602L783.793 175.441L785.764 176.624L784.319 179.645L781.954 181.747L779.195 187.922L777.487 191.075L777.75 193.439L779.721 193.834L781.166 191.338L783.136 190.287L784.187 187.265L786.684 184.9L790.231 179.645L795.748 171.369L796.799 170.712L797.193 172.025L796.931 175.047L793.121 183.981L789.574 191.469L788.917 195.673L788.129 199.089L789.18 200.796L788.917 204.344L786.421 207.497L785.764 209.861L786.552 214.591L787.34 219.058L785.37 222.473L784.319 226.283L783.005 230.356L784.45 233.509L785.238 241.523L787.34 247.434L787.078 251.376L766.189 253.74L743.199 255.054H726.514L725.594 253.084L721.785 252.558L718.369 250.85L715.347 245.989L714.953 241.26L717.581 237.45L716.924 235.611L714.165 232.72L713.114 228.385L712.326 219.452L709.567 216.167L700.37 210.255L695.378 203.161L690.912 201.847L688.021 198.169H683.817L680.007 193.834L679.35 185.294L679.482 180.302L681.453 176.229L680.402 172.025L677.117 168.347L679.482 161.253L686.313 156.261L688.415 153.764L688.153 143.123L688.415 139.445L691.568 135.766L692.882 136.686Z"
     fill="#B1B5BD"
     id="path46" />
  <path
     d="M978.622 326.599L986.241 318.716L989.657 317.665L991.759 315.695L993.73 312.804L995.175 313.199L999.247 312.936L1005.29 308.206L1007.26 307.549L1008.97 308.863L1012.38 310.44L1016.33 314.381L1015.8 320.03L1008.71 316.614L1002.4 314.25L1002.27 322.001L998.853 329.489L995.044 332.642L993.992 335.664L990.051 336.32L987.818 346.962L984.139 347.225L982.694 345.911L981.118 343.283L978.228 343.94L977.571 350.64L975.206 357.34L968.637 371.792L969.82 373.631L969.688 376.258L966.798 379.543L964.696 379.017L960.623 382.039L956.945 380.988L954.58 387.425L949.588 388.739L946.304 387.031L943.019 389.527L939.998 390.447L935.794 389.396L930.801 383.484L926.203 380.594L922.919 377.309L919.109 372.448L918.452 369.427L914.774 367.193L913.985 365.486L913.723 358.129L914.117 358.26L917.27 357.997L919.635 356.683V353.793L921.868 351.823L921.999 344.991L923.182 340.262L924.627 339.342L925.152 339.736L926.466 341.181L928.699 341.838L930.144 340.13L928.831 336.058V333.956L932.903 327.912L934.48 326.205L937.107 326.861L940.523 324.497L944.596 320.03L947.749 314.644L948.011 307.287L948.668 300.981V294.543L947.223 290.602L948.406 288.894L949.457 287.975L955.106 313.33L960.755 312.279L975.469 310.571L978.622 326.599Z"
     fill="#DDE2EC"
     id="path47" />
  <path
     d="M445.371 205.208L443.4 238.577L437.62 296.382L434.073 295.988L324.638 284.033L287.984 280.092L290.612 264.327L299.677 210.463L304.669 178.67L306.377 163.957L369.699 173.153L447.342 181.692L445.371 205.208Z"
     fill="#798290"
     id="path48" />
  <path
     d="M1034.98 325.942L1033.54 323.84L1032.22 322.789L1033.67 320.687L1036.56 322.658L1034.98 325.942Z"
     fill="#DDE2EC"
     id="path49" />
</svg>
