<svg width="74" height="41" viewBox="0 0 74 41" fill="none" xmlns="http://www.w3.org/2000/svg">
<path d="M71.519 21.4704L67.533 19.3212L63.9655 8.64783C63.2852 6.61023 61.5059 5.39551 59.2089 5.39551H52.2786L53.257 0.979625C53.3112 0.741504 53.251 0.491322 53.1005 0.30142C52.9469 0.111527 52.7181 0 52.4743 0H19.7374C19.361 0 19.0329 0.262235 18.9516 0.629977L13.4424 25.4885L11.4313 34.5645C11.3771 34.8027 11.4373 35.0528 11.5879 35.2427C11.7414 35.4326 11.9702 35.5442 12.2141 35.5442H18.0876C17.9973 36.9006 18.3676 38.1545 19.1654 39.1492C19.2316 39.2336 19.3039 39.315 19.3761 39.3934L0.803837 39.3904C0.358282 39.3904 0 39.7521 0 40.1952C0 40.6413 0.361264 41 0.803837 41H69.9046C70.3501 41 70.7084 40.6383 70.7084 40.1952C70.7084 39.7491 70.3471 39.3904 69.9046 39.3904H62.9382C64.2207 38.4108 65.2352 37.0604 65.7289 35.5442H68.7034C70.5398 35.5442 72.295 34.1124 72.6983 32.2827L73.8484 27.0952C74.3813 24.6868 73.4871 22.5316 71.5183 21.4706L71.519 21.4704ZM65.7538 19.074H60.3198L59.1457 17.6724C58.9921 17.4886 58.7663 17.3831 58.5285 17.3831H53.7026L54.8346 12.283H63.4842L65.7538 19.074ZM38.2646 1.60944L35.8591 12.4665L34.0619 11.315C33.824 11.1613 33.523 11.1462 33.2701 11.2728L31.226 12.2916L33.5923 1.60899L38.2646 1.60944ZM20.3851 1.60944H31.9456L29.2873 13.5907C29.2211 13.8952 29.3325 14.2087 29.5763 14.3986C29.7208 14.5101 29.8954 14.5704 30.0731 14.5704C30.1965 14.5704 30.3169 14.5433 30.4313 14.486L33.5773 12.9155L35.9586 14.4438C36.1784 14.5855 36.4553 14.6096 36.6992 14.5101C36.9431 14.4106 37.1207 14.1966 37.1779 13.9404L39.9115 1.60955H51.4719L46.3209 24.8584H15.231L20.3851 1.60944ZM20.4243 38.139C19.7499 37.2981 19.5301 36.1527 19.8041 34.9108C20.3942 32.2492 23.0284 30.085 25.6807 30.085C26.8639 30.085 27.8693 30.5281 28.5166 31.3359C29.191 32.1769 29.4108 33.3223 29.1368 34.5642C28.5467 37.2257 25.9125 39.39 23.2602 39.39C22.077 39.39 21.0685 38.9469 20.4243 38.139ZM30.5335 35.5438H53.2899C53.1996 36.9002 53.5699 38.1541 54.3677 39.1488C54.4339 39.2332 54.5061 39.3116 54.5784 39.393L27.7427 39.39C29.0252 38.4104 30.0398 37.06 30.5335 35.5438ZM64.3325 34.5642C63.7424 37.2257 61.1082 39.39 58.4559 39.39C57.2727 39.39 56.2673 38.9469 55.62 38.139C54.9456 37.2981 54.7258 36.1527 54.9998 34.9108C55.5898 32.2492 58.2241 30.085 60.8764 30.085C62.0595 30.085 63.065 30.5281 63.7123 31.3359C64.3867 32.1769 64.6065 33.3223 64.3325 34.5642ZM72.2776 26.7451L71.1275 31.9326C70.8867 33.0177 69.7758 33.931 68.7041 33.931H66.0428C66.1331 32.5746 65.7628 31.3207 64.965 30.326C64.0077 29.1293 62.5536 28.4723 60.8737 28.4723C57.7247 28.4723 54.5968 30.8686 53.6003 33.931H30.8439C30.9342 32.5746 30.5639 31.3207 29.7661 30.326C28.8088 29.1293 27.3547 28.4723 25.6748 28.4723C22.5258 28.4723 19.3979 30.8686 18.4014 33.931H13.2172L14.8699 26.4678H46.9595C47.3358 26.4678 47.6639 26.2055 47.7452 25.8378L51.9178 7.00816H59.2063C60.826 7.00816 61.973 7.77378 62.4366 9.16035L62.9424 10.6735L54.1911 10.6705C53.8148 10.6705 53.4867 10.9327 53.4054 11.3004L51.9182 18.0131C51.864 18.2512 51.9242 18.5014 52.0747 18.6913C52.2283 18.8812 52.4571 18.9927 52.7009 18.9927H58.153L59.3271 20.3943C59.4806 20.5782 59.7064 20.6837 59.9442 20.6837H66.6698L70.7551 22.8871C72.1068 23.6166 72.6608 25.0212 72.2785 26.7454L72.2776 26.7451ZM5.21765 1.22377C5.21765 0.77767 5.57892 0.418949 6.02149 0.418949H14.4298C14.8754 0.418949 15.2336 0.780656 15.2336 1.22377C15.2336 1.66987 14.8724 2.0286 14.4298 2.0286H6.02149C5.57593 2.0286 5.21765 1.66991 5.21765 1.22377ZM1.00595 25.0784C1.00595 24.6323 1.36721 24.2735 1.80978 24.2735H10.2181C10.6636 24.2735 11.0219 24.6352 11.0219 25.0784C11.0219 25.5245 10.6607 25.8832 10.2181 25.8832H1.80978C1.36423 25.8832 1.00595 25.5245 1.00595 25.0784ZM3.11034 13.1511C3.11034 12.705 3.4716 12.3462 3.91417 12.3462H12.3225C12.768 12.3462 13.1263 12.7079 13.1263 13.1511C13.1263 13.5972 12.7651 13.9559 12.3225 13.9559H3.91417C3.47162 13.9559 3.11034 13.5972 3.11034 13.1511Z" fill="#A98054"/>
</svg>
