<svg width="51" height="51" viewBox="0 0 51 51" fill="none" xmlns="http://www.w3.org/2000/svg">
<path fill-rule="evenodd" clip-rule="evenodd" d="M0.000647413 46.7873V15.7435C0.000647413 14.8654 0.346682 14.0139 0.976664 13.3931C1.51789 12.852 2.21883 12.5239 2.96413 12.4352L1.85507 8.31081C1.68648 7.68992 1.77522 7.02474 2.09463 6.45709C2.42292 5.8983 2.95526 5.49032 3.57637 5.32178L12.4132 2.95359V2.43915C12.4132 1.79168 12.6705 1.17079 13.1319 0.709567C13.5933 0.257215 14.2143 0 14.8531 0H30.8239C31.4715 0 32.0927 0.257215 32.554 0.709567C33.0065 1.17079 33.2639 1.79163 33.2639 2.43915V2.95359L42.1007 5.32178C42.7218 5.4903 43.2541 5.89829 43.5824 6.45709C43.9019 7.01587 43.9906 7.68106 43.822 8.31081L42.7129 12.4352C44.381 12.6125 45.6764 14.0317 45.6764 15.7435V17.8101C47.1937 18.1205 48.3382 19.4598 48.3382 21.0653V29.2695H49.4473C50.3079 29.2695 51 29.9614 51 30.8217V37.9174C51 38.7777 50.3079 39.4696 49.4473 39.4696H48.3382V47.6739C48.3382 49.5099 46.8476 51 45.011 51H4.21451C3.09653 51 2.02296 50.5565 1.23331 49.7671C0.443659 48.9777 0 47.9045 0 46.7869L0.000647413 46.7873ZM3.31904 13.7482C2.79555 13.7482 2.28981 13.9611 1.91713 14.3336C1.54446 14.7061 1.33157 15.2117 1.33157 15.7438C1.33157 16.276 1.54451 16.7816 1.91713 17.1541C2.28976 17.5267 2.79554 17.7395 3.32789 17.7395H4.38375L3.31018 13.7482H3.31904ZM12.4222 8.00979L9.70721 8.73707C9.7427 9.38453 9.59187 10.032 9.26358 10.5997C8.93529 11.1673 8.4473 11.6197 7.87059 11.9123L9.43217 17.7399H12.4134V8.00973L12.4222 8.00979ZM28.3929 17.7399V7.46881C27.7629 7.33577 27.1685 7.02533 26.7071 6.56409C26.2457 6.10284 25.9263 5.50859 25.8021 4.87884H19.9016C19.7685 5.51745 19.4579 6.10281 18.9965 6.56409C18.5351 7.02536 17.9407 7.34461 17.3107 7.46881V17.7399H28.4013H28.3929ZM33.2729 8.00979V17.7399H36.2541L37.8157 11.9124C37.239 11.6197 36.751 11.1674 36.4227 10.5997C36.0944 10.0321 35.9436 9.38459 35.979 8.73712L33.2641 8.00985L33.2729 8.00979ZM44.3635 17.7399V15.7443C44.3635 14.6445 43.4763 13.7575 42.3761 13.7487L41.3025 17.7399H44.3635ZM37.9309 38.1403H49.4651C49.5893 38.1403 49.6869 38.0427 49.6869 37.9185V30.8229C49.6869 30.6987 49.5893 30.6011 49.4651 30.6011H37.9309C35.8459 30.6011 34.1601 32.2864 34.1601 34.3707C34.1601 36.455 35.8459 38.1403 37.9309 38.1403ZM37.9309 33.0402C38.6674 33.0402 39.2619 33.6345 39.2619 34.3707C39.2619 35.1069 38.6674 35.7012 37.9309 35.7012C37.1945 35.7012 36.6 35.1069 36.6 34.3707C36.6 33.6345 37.1945 33.0402 37.9309 33.0402ZM39.9361 17.7403L42.5536 7.96585C42.6334 7.68202 42.5891 7.38049 42.4471 7.12323C42.2963 6.86601 42.0567 6.67975 41.7728 6.60879L33.2817 4.32932V6.62656L36.9195 7.60224C37.0881 7.64659 37.2389 7.76189 37.3276 7.91268C37.4164 8.06347 37.443 8.24972 37.3897 8.41824C37.2567 8.93268 37.3276 9.47374 37.5938 9.93496C37.86 10.3962 38.2948 10.7243 38.8094 10.8662C39.1643 10.9638 39.3772 11.3275 39.2796 11.6823L37.6559 17.7402H39.9539L39.9361 17.7403ZM12.4222 4.33855L3.93118 6.61802C3.64725 6.69784 3.40769 6.8841 3.25686 7.13245C3.10602 7.38967 3.07053 7.69124 3.15038 7.97508L5.76782 17.7495H8.06585L6.44214 11.6915C6.34454 11.3367 6.55748 10.9731 6.91239 10.8755C7.427 10.7425 7.86177 10.4054 8.12792 9.94421C8.39407 9.483 8.46508 8.94196 8.32312 8.4275C8.27876 8.25897 8.2965 8.07271 8.38523 7.92193C8.47396 7.77115 8.61592 7.65584 8.79337 7.61149L12.4311 6.63581V4.33857L12.4222 4.33855ZM47.0257 29.271V21.0667C47.0257 19.9669 46.1296 19.0711 45.0294 19.0711H3.32778C2.60025 19.0711 1.90816 18.8316 1.33146 18.4059V46.7885C1.33146 47.5513 1.63312 48.2875 2.17437 48.8286C2.71561 49.3696 3.45203 49.6712 4.2151 49.6712H45.0292C46.1294 49.6712 47.0255 48.7754 47.0255 47.6755V39.4712H37.9308C35.1093 39.4712 32.8291 37.1918 32.8291 34.3712C32.8291 31.5507 35.1093 29.2712 37.9308 29.2712L47.0257 29.271ZM31.9425 17.7408V2.44088C31.9425 2.14819 31.8272 1.86437 31.6143 1.66036C31.4013 1.45634 31.1263 1.33219 30.8335 1.33219H14.8627C14.57 1.33219 14.286 1.44749 14.082 1.66036C13.8779 1.86436 13.7537 2.14819 13.7537 2.44088V17.7408H15.9718V6.87539C15.9718 6.51174 16.2735 6.21016 16.6373 6.21016C17.1696 6.21016 17.6753 5.99729 18.048 5.62479C18.4207 5.2523 18.6336 4.74669 18.6336 4.21451C18.6336 4.03712 18.7046 3.8686 18.8288 3.74443C18.953 3.62026 19.1216 3.5493 19.299 3.5493H26.3971C26.5746 3.5493 26.7432 3.62025 26.8674 3.74443C26.9916 3.8686 27.0626 4.03712 27.0626 4.21451C27.0626 4.74669 27.2755 5.25224 27.6481 5.62479C28.0208 5.99734 28.5265 6.21016 29.0589 6.21016C29.4227 6.21016 29.7244 6.51172 29.7244 6.87539V17.7408H31.9425Z" fill="#A98054"/>
</svg>
