<svg width="42" height="51" viewBox="0 0 42 51" fill="none" xmlns="http://www.w3.org/2000/svg">
<path fill-rule="evenodd" clip-rule="evenodd" d="M42 6.92369C42 6.46821 41.6587 6.08835 41.215 6.0479C37.6137 5.71728 34.8829 4.01493 33.3297 0.513517C33.1932 0.200483 32.8859 0 32.5616 0H9.43502C9.09366 0 8.78641 0.209276 8.64987 0.531104C7.26739 3.8461 4.53656 5.559 0.747543 6.05141C0.320852 6.10593 0 6.48052 0 6.92369V26.5306C0 34.4866 4.22939 41.8007 11.0394 45.5799C15.8866 48.2812 20.5972 50.8945 20.5972 50.8945C20.8532 51.0352 21.1434 51.0352 21.3994 50.8945C21.3994 50.8945 26.1101 48.2812 30.9573 45.5799C37.7673 41.8007 42 34.4866 42 26.5306C42 17.5299 42 6.92369 42 6.92369ZM40.2932 7.70803V26.5306C40.2932 33.8394 36.4018 40.5608 30.1551 44.0323L21.0068 49.1218L11.8415 44.0323C5.59475 40.5608 1.70676 33.8394 1.70676 26.5306V7.68166C5.5777 7.0081 8.3939 5.10703 9.98119 1.75862H32.0155C33.7734 5.30048 36.5896 7.17517 40.2932 7.70803ZM11.7904 23.0098L19.027 30.4663C19.3684 30.8093 19.8974 30.8093 20.2388 30.4663L34.0807 16.1969C34.422 15.8522 34.422 15.2965 34.0807 14.9518C33.7564 14.6089 33.2102 14.6089 32.8859 14.9518L19.6414 28.6005L13.0021 21.7664C12.6607 21.4235 12.1317 21.4235 11.7904 21.7664C11.4661 22.1094 11.4661 22.6669 11.7904 23.0098Z" fill="#A98054"/>
</svg>
