<svg width="59" height="52" viewBox="0 0 59 52" fill="none" xmlns="http://www.w3.org/2000/svg">
<path d="M24.0835 9.84958H25.2246C27.4468 9.84958 29.1884 8.04783 29.1884 5.88573V3.96386C29.1884 1.74169 27.3867 0 25.2246 0H24.0835C21.8613 0 20.1196 1.80175 20.1196 3.96386V5.88573C20.0596 8.04783 21.8613 9.84958 24.0835 9.84958ZM22.0415 3.96386C22.0415 2.82275 22.9424 1.92187 24.0835 1.92187H25.2246C26.3657 1.92187 27.2666 2.82275 27.2666 3.96386V5.88573C27.2666 7.02684 26.3657 7.92771 25.2246 7.92771H24.0835C22.9424 7.92771 22.0415 7.02684 22.0415 5.88573V3.96386Z" fill="#A98054"/>
<path d="M38.0168 12.1914C35.7947 12.1914 34.053 13.9932 34.053 16.1553V18.0771C34.053 20.2993 35.8547 22.041 38.0168 22.041H39.1579C41.3801 22.041 43.1218 20.2392 43.1218 18.0771V16.1553C43.1218 13.9331 41.32 12.1914 39.1579 12.1914H38.0168ZM41.1999 16.1553V18.0771C41.1999 19.2182 40.2991 20.1191 39.1579 20.1191H38.0168C36.8757 20.1191 35.9748 19.2182 35.9748 18.0771V16.1553C35.9748 15.0142 36.8757 14.1133 38.0168 14.1133H39.1579C40.2991 14.1133 41.1999 15.0742 41.1999 16.1553Z" fill="#A98054"/>
<path d="M22.7625 19.8796C22.9426 20.0598 23.1829 20.1799 23.4231 20.1799C23.6633 20.1799 23.9636 20.0598 24.1438 19.8796L40.1794 3.48364C40.5398 3.12329 40.5398 2.46264 40.1794 2.10229C39.819 1.74194 39.1584 1.74194 38.7981 2.10229L22.7625 18.4982C22.342 18.8586 22.342 19.5192 22.7625 19.8796Z" fill="#A98054"/>
<path d="M57.6561 23.7822C56.8153 22.9414 55.6141 22.4609 54.4129 22.4609C53.2118 22.4609 52.0106 22.9414 51.1698 23.7822L50.389 24.563C49.7284 23.9023 48.8275 23.542 47.8666 23.542C46.9056 23.542 46.0048 23.9023 45.2841 24.623L39.2182 30.6289C38.5575 30.2085 37.7768 30.0283 36.9359 29.9682L21.0205 29.9082C20.7802 29.9082 16.2158 29.7881 12.2519 33.3916C12.0117 31.4096 10.3301 29.8481 8.28806 29.8481H3.96386C1.80175 29.8481 0 31.6499 0 33.812V47.3251C0 49.4872 1.80175 51.289 3.96386 51.289H8.28806C9.9697 51.289 11.4111 50.2079 11.9516 48.7665C14.1738 48.7665 17.0566 48.6464 20.1196 48.5263C25.4648 48.3461 30.9301 48.1659 33.873 48.3461C39.2182 48.7065 42.8817 44.9228 43.0018 44.7426L57.596 30.1484C59.4579 28.4668 59.4579 25.584 57.6561 23.7822ZM46.6654 25.9443C47.266 25.3437 48.347 25.2837 49.0077 25.9443L41.3202 33.6318C41.2001 33.0312 40.9599 32.4907 40.6596 32.0102L46.6654 25.9443ZM8.28806 49.3671H3.96386C2.88281 49.3671 1.98193 48.4662 1.98193 47.3852V33.872C1.98193 32.791 2.88281 31.8901 3.96386 31.8901H8.28806C9.36912 31.8901 10.27 32.791 10.27 33.872V47.3852C10.27 48.4662 9.36912 49.3671 8.28806 49.3671ZM56.2748 28.8872L41.6806 43.4814C41.6205 43.5414 38.4975 46.7245 34.0531 46.4843C30.9902 46.3041 25.4648 46.4843 20.0595 46.6645C17.1167 46.7846 14.354 46.8447 12.1919 46.9047V36.3344C15.7353 31.8301 20.6601 31.9502 20.9003 31.9502L36.8759 32.0102C37.5365 32.0102 38.1972 32.2505 38.6176 32.7309C39.098 33.2114 39.3383 33.812 39.3383 34.5327C39.3383 34.5927 39.2782 35.7339 38.6176 36.3344C38.1371 36.8149 37.5365 37.0551 36.8759 37.0551L24.9843 36.935C24.4438 36.935 24.0234 37.3554 23.9633 37.896C23.9633 38.4365 24.3837 38.8569 24.9243 38.917L36.8158 39.0371C38.017 39.0371 39.1581 38.5566 39.9989 37.7158C40.2392 37.4755 52.431 25.2236 52.431 25.2236C52.9115 24.7432 53.5721 24.4429 54.2928 24.4429C55.0135 24.4429 55.6742 24.7432 56.1546 25.2236C56.6351 25.7041 56.9354 26.3647 56.9354 27.0854C56.9354 27.8061 56.7552 28.4067 56.2748 28.8872Z" fill="#A98054"/>
</svg>
