<svg width="50" height="50" viewBox="0 0 50 50" fill="none" xmlns="http://www.w3.org/2000/svg">
<path d="M39.7984 26.0803C40.1126 26.0803 40.369 25.824 40.369 25.5097V6.66668C40.369 6.35241 40.1126 6.09608 39.7984 6.09608C38.8689 6.09608 38.1668 5.27806 38.2715 4.39985C38.3072 4.06105 38.042 3.76904 37.7032 3.76904H19.0159C18.6905 3.76904 18.4141 4.05211 18.4475 4.39762C18.5411 5.34265 17.8011 6.09608 16.9207 6.09608C16.6064 6.09608 16.3501 6.35241 16.3501 6.66668V31.4657C16.3501 31.78 16.6064 32.0363 16.9207 32.0363C17.7722 32.0363 18.5322 32.7451 18.4475 33.737C18.4141 34.0713 18.6793 34.3633 19.0159 34.3633H33.0402C33.3545 34.3633 33.6108 34.107 33.6108 33.7927C33.6108 33.4784 33.3545 33.2221 33.0402 33.2221L19.5774 33.2199C19.428 32.0965 18.5833 31.1916 17.4911 30.9553V7.1748C18.5833 6.93854 19.428 6.03137 19.5774 4.91019H37.1411C37.2905 6.03359 38.1352 6.93851 39.2274 7.1748V25.51C39.2274 25.8265 39.4841 26.0803 39.7984 26.0803Z" fill="#A98054"/>
<path d="M34.5779 36.9885H14.5423C14.228 36.9885 13.9717 37.2449 13.9717 37.5591C13.9717 37.8734 14.228 38.1297 14.5423 38.1297H34.5779C34.8922 38.1297 35.1485 37.8734 35.1485 37.5591C35.1485 37.2449 34.8944 36.9885 34.5779 36.9885Z" fill="#A98054"/>
<path d="M43.7566 26.486C44.0709 26.486 44.3272 26.2297 44.3272 25.9154V2.15089C44.3272 0.965119 43.3621 0 42.1763 0H14.542C13.3562 0 12.3911 0.965119 12.3911 2.15089V23.7089C12.3911 24.0231 12.6474 24.2795 12.9617 24.2795C13.276 24.2795 13.5323 24.0231 13.5323 23.7089V2.15089C13.5323 1.59366 13.9848 1.14121 14.542 1.14121H42.1763C42.7336 1.14121 43.186 1.59368 43.186 2.15089V25.9154C43.186 26.2297 43.4424 26.486 43.7566 26.486Z" fill="#A98054"/>
<path d="M35.4184 11.5185V8.42918C35.4184 7.90539 34.9926 7.47742 34.4666 7.47742H21.4454C20.9216 7.47742 20.4937 7.90314 20.4937 8.42918V11.5185C20.4937 12.0423 20.9194 12.4703 21.4454 12.4703H34.4666C34.9904 12.4703 35.4184 12.0423 35.4184 11.5185ZM34.2772 11.329H21.6349V8.62089H34.2749L34.2772 11.329Z" fill="#A98054"/>
<path d="M48.2993 30.9367C47.7287 29.9492 47.41 28.4604 46.2153 27.7694C45.375 27.2835 44.4077 27.3793 43.4737 27.4751C41.1646 27.707 39.9699 26.9982 38.6392 27.7694C37.4467 28.4603 37.1236 29.9559 36.5552 30.9367C36.0069 31.8862 34.8545 32.8937 34.8545 34.3269C34.8545 35.7534 36.0046 36.7697 36.5552 37.717C37.1258 38.7045 37.4445 40.1933 38.6392 40.8843C39.4795 41.3702 40.4424 41.2722 41.3808 41.1786C42.9989 41.0136 43.5963 41.2566 44.6194 41.2566C47.2005 41.2566 47.4279 39.2238 48.2993 37.7171C48.8477 36.7697 50 35.7534 50 34.3269C50 32.9004 48.8477 31.884 48.2993 30.9367ZM47.3119 37.1465C46.7324 38.1473 46.4427 39.4356 45.6424 39.8993C45.1231 40.2002 44.3764 40.1244 43.5874 40.0441C42.5554 39.9394 42.2946 39.9394 41.2648 40.0441C39.2365 40.2514 38.8865 40.0731 38.0396 38.1674C37.6183 37.2178 37.498 37.0173 36.9185 36.2349C35.6859 34.5699 35.6814 34.0907 36.9185 32.419C37.4958 31.6366 37.6139 31.4427 38.0396 30.4843C38.8844 28.5808 39.2366 28.4003 41.2648 28.6098C43.5517 28.8393 44.7509 28.2397 45.6424 28.7569C46.4448 29.2205 46.7324 30.5088 47.3119 31.5096C47.8825 32.4925 48.8588 33.3574 48.8588 34.3291C48.8588 35.2987 47.887 36.1569 47.3119 37.1465Z" fill="#A98054"/>
<path d="M42.426 30.1727C40.1347 30.1727 38.269 32.0383 38.269 34.3296C38.269 36.621 40.1324 38.4843 42.426 38.4843C44.7173 38.4843 46.5807 36.6209 46.5807 34.3296C46.5829 32.0361 44.7173 30.1727 42.426 30.1727ZM42.426 37.3429C40.7632 37.3429 39.4103 35.9899 39.4103 34.3294C39.4103 32.6666 40.7632 31.3136 42.426 31.3136C44.0888 31.3136 45.4395 32.6666 45.4395 34.3294C45.4417 35.99 44.0887 37.3429 42.426 37.3429Z" fill="#A98054"/>
<path d="M38.3406 41.7297C38.0576 41.5959 37.7143 41.7163 37.5806 42.0016L35.0731 47.2863C34.8658 47.7254 35.267 48.2091 35.7373 48.082L37.7701 47.5315L39.0629 49.3436C39.3392 49.7315 39.9433 49.6267 40.0748 49.172L41.9069 42.8976C41.9961 42.5945 41.8222 42.278 41.5191 42.1911C41.2137 42.1019 40.8995 42.2758 40.8125 42.5789L39.3102 47.7232L38.4699 46.5464C38.3317 46.3524 38.0843 46.2633 37.8569 46.3279L36.6355 46.6578L38.6125 42.4919C38.7485 42.2044 38.6259 41.8633 38.3406 41.7297Z" fill="#A98054"/>
<path d="M46.3828 46.5439L45.5424 47.7207L44.0401 42.5764C43.951 42.2733 43.6367 42.0994 43.3336 42.1886C43.0304 42.2777 42.8566 42.5942 42.9457 42.8951L44.7779 49.1695C44.9094 49.6264 45.5134 49.729 45.7898 49.3411L47.0825 47.529L49.1153 48.0795C49.5789 48.2066 49.989 47.7274 49.7796 47.2838L47.272 41.9991C47.1361 41.7138 46.7973 41.5934 46.512 41.7271C46.2267 41.8631 46.1063 42.2019 46.2401 42.4872L48.2171 46.6531L46.9957 46.3232C46.7683 46.263 46.5209 46.3499 46.3828 46.5439Z" fill="#A98054"/>
<path d="M22.8406 30.5447C23.4737 30.4221 23.964 30.0119 24.3207 29.7111C24.5948 29.4815 24.8712 29.243 25.1454 28.9934C25.7048 29.6598 26.5384 30.1903 27.3877 30.0165C28.2213 29.8471 29.6545 28.532 30.3566 28.4473C30.555 28.425 30.7689 28.5052 30.8113 28.6189C30.8269 28.6635 30.8358 28.7415 30.8469 28.8262C30.9718 29.9228 31.763 30.2193 32.4206 29.7824C33.1494 29.3032 33.8181 28.7349 34.4088 28.0929C34.6227 27.8611 34.6071 27.5 34.3753 27.286C34.1435 27.0721 33.7824 27.0877 33.5684 27.3195C33.0892 27.8388 32.5521 28.3069 31.9815 28.7192C31.9659 28.5498 31.9391 28.3782 31.8789 28.2177C31.6204 27.5245 30.8492 27.237 30.2229 27.3128C29.5119 27.3975 28.9836 27.8076 27.6329 28.6591C27.4612 28.7661 27.3007 28.8686 27.1581 28.8976C26.748 28.98 26.2375 28.5387 25.9611 28.1865C26.7635 27.3217 27.4278 26.3232 27.6641 25.1262C27.8268 24.3082 27.5504 23.8736 27.2896 23.6507C25.9277 22.4984 23.4179 25.2734 24.5413 27.9926C24.2271 28.2869 23.9039 28.5677 23.5851 28.833C23.2463 29.1183 22.9387 29.359 22.6222 29.4192C22.3124 29.4793 22.1096 29.778 22.1698 30.0878C22.2299 30.3977 22.5264 30.6048 22.8406 30.5447ZM26.5496 24.5197C26.5652 24.5419 26.5964 24.6601 26.5473 24.9053C26.3913 25.6943 25.9767 26.4031 25.444 27.0472C25.1877 25.6631 26.1885 24.5286 26.5496 24.5197Z" fill="#A98054"/>
<path d="M24.7643 17.2713C24.7643 16.2059 26.4114 15.3054 28.3595 15.3054C30.3076 15.3054 31.9548 16.2059 31.9548 17.2713C31.9548 17.5856 32.2111 17.8419 32.5254 17.8419C33.8761 17.8419 32.9957 14.1642 28.3595 14.1642C25.7049 14.1642 23.623 15.5305 23.623 17.2713C23.623 17.5856 23.8794 17.8419 24.1937 17.8419C24.5102 17.8419 24.7643 17.5856 24.7643 17.2713Z" fill="#A98054"/>
<path d="M10.735 24.1054C11.0114 23.9539 11.1117 23.6061 10.9601 23.3297C10.8085 23.0533 10.4631 22.9531 10.1866 23.1046C9.48452 23.4902 8.84259 23.9984 8.13378 24.5423C7.2199 25.231 6.14335 25.8395 5.39888 26.8336C3.74282 29.0402 3.52433 33.3042 3.1499 34.7148C3.06966 35.0201 3.2502 35.3321 3.55557 35.4124C3.84978 35.4927 4.17074 35.3188 4.25324 35.0068C4.52963 33.9659 4.67674 31.9509 5.22282 30.0095C5.88255 27.6513 6.46211 27.1231 8.12707 25.9529C9.30172 25.126 9.90583 24.5601 10.735 24.1054Z" fill="#A98054"/>
<path d="M6.7075 43.6463C6.52473 43.9026 6.58491 44.2592 6.84346 44.442C7.10424 44.627 7.45863 44.5601 7.63917 44.306L9.14368 42.1863C9.54488 41.6358 9.45572 40.8847 8.9453 40.5102L2.72857 35.9565C2.19809 35.5687 1.46029 35.747 1.07474 36.2752L0.111843 37.5724C-0.0753834 37.8265 -0.0218891 38.1832 0.229975 38.3704C0.484071 38.5598 0.840692 38.5063 1.02791 38.2522L1.99525 36.9506C2.02869 36.9038 2.06881 36.8904 2.05766 36.8792L8.25157 41.4084C8.2538 41.4173 8.25825 41.4619 8.2159 41.5199L6.7075 43.6463Z" fill="#A98054"/>
<path d="M12.8085 32.6976C12.6703 34.5186 12.5878 34.9287 10.8849 36.8924C10.3143 37.5521 9.72365 38.232 9.32913 38.9854C9.18202 39.264 9.29124 39.6095 9.56986 39.7544C9.8507 39.9015 10.194 39.79 10.3389 39.5137C10.671 38.8784 11.1925 38.2788 11.7453 37.6414C13.6086 35.4905 13.787 34.8619 13.943 32.7868C13.9965 32.0936 14.1726 32.0891 15.189 29.7176C15.5902 28.7837 16.2611 27.2212 15.7083 26.1825C15.053 24.9522 12.7528 24.7003 11.1925 27.5734C10.6553 28.563 9.96886 30.5178 9.34028 30.7875L10.2274 27.8698C10.3188 27.5689 10.1494 27.2502 9.84625 27.1566C9.54535 27.0674 9.22663 27.2346 9.13522 27.5355L8.11436 30.8922C7.88923 31.6278 9.43165 32.76 10.6754 31.0638C11.3686 30.1165 11.6784 29.069 12.1978 28.115C12.6614 27.2613 13.4772 26.3207 14.2662 26.4611C14.6005 26.5235 14.6763 26.664 14.7053 26.7175C14.9995 27.2702 14.4222 28.6187 14.1436 29.2651C13.1339 31.6166 12.8821 31.7258 12.8085 32.6976Z" fill="#A98054"/>
<path d="M22.2363 20.6036C22.2363 20.9179 22.4927 21.1742 22.8069 21.1742H33.9137C34.228 21.1742 34.4843 20.9179 34.4843 20.6036C34.4843 20.2893 34.228 20.033 33.9137 20.033H22.8069C22.4904 20.033 22.2363 20.2893 22.2363 20.6036Z" fill="#A98054"/>
</svg>
