<svg width="21" height="20" viewBox="0 0 21 20" fill="none" xmlns="http://www.w3.org/2000/svg">
<rect x="0.000976562" y="0.000244141" width="21" height="20" rx="5" fill="#D9D9D9"/>
<path d="M16.6624 5.00463C16.6056 4.99878 16.5484 4.99878 16.4917 5.00463H4.83011C4.75537 5.00578 4.68113 5.01699 4.60938 5.03795L10.6276 11.0312L16.6624 5.00463Z" fill="#383838"/>
<path d="M17.2785 5.58354L11.2145 11.6226C11.0584 11.7777 10.8473 11.8648 10.6272 11.8648C10.4072 11.8648 10.1961 11.7777 10.04 11.6226L4.03013 5.62936C4.01165 5.69726 4.00186 5.76723 4.00098 5.8376V14.1673C4.00098 14.3882 4.08874 14.6001 4.24495 14.7563C4.40116 14.9125 4.61303 15.0002 4.83394 15.0002H16.4955C16.7164 15.0002 16.9283 14.9125 17.0845 14.7563C17.2407 14.6001 17.3285 14.3882 17.3285 14.1673V5.8376C17.3251 5.75082 17.3083 5.6651 17.2785 5.58354ZM5.40453 14.1673H4.82561V13.5717L7.85345 10.5689L8.44069 11.1561L5.40453 14.1673ZM16.4872 14.1673H15.9041L12.8679 11.1561L13.4552 10.5689L16.483 13.5717L16.4872 14.1673Z" fill="#383838"/>
</svg>
