<svg width="18" height="14" viewBox="0 0 18 14" fill="none" xmlns="http://www.w3.org/2000/svg">
<path d="M17.1005 0.00592537C17.0239 -0.00197512 16.9466 -0.00197512 16.8699 0.00592537H1.1199C1.01896 0.00748076 0.918683 0.0226166 0.821777 0.0509253L8.9499 8.1453L17.1005 0.00592537Z" fill="white"/>
<path d="M17.9325 0.787354L9.7425 8.94361C9.53172 9.15314 9.24658 9.27075 8.94938 9.27075C8.65217 9.27075 8.36703 9.15314 8.15625 8.94361L0.039375 0.849229C0.0144222 0.940939 0.00119176 1.03544 0 1.13048V12.3805C0 12.6789 0.118526 12.965 0.329505 13.176C0.540483 13.387 0.826631 13.5055 1.125 13.5055H16.875C17.1734 13.5055 17.4595 13.387 17.6705 13.176C17.8815 12.965 18 12.6789 18 12.3805V1.13048C17.9955 1.01328 17.9727 0.897511 17.9325 0.787354ZM1.89563 12.3805H1.11375V11.5761L5.20312 7.52048L5.99625 8.31361L1.89563 12.3805ZM16.8638 12.3805H16.0763L11.9756 8.31361L12.7687 7.52048L16.8581 11.5761L16.8638 12.3805Z" fill="white"/>
</svg>
