<svg width="20" height="20" viewBox="0 0 20 20" fill="none" xmlns="http://www.w3.org/2000/svg">
<path d="M13.074 0.000244141H6.93898C1.33298 0.000244141 0.000976562 1.33324 0.000976562 6.92724V13.0632C0.000976562 18.6672 1.32398 20.0002 6.92798 20.0002H13.064C18.668 20.0002 20.001 18.6772 20.001 13.0732V6.93824C20.001 1.33224 18.678 0.000244141 13.074 0.000244141ZM16.147 14.2702H14.688C14.136 14.2702 13.97 13.8232 12.98 12.8332C12.116 12.0002 11.751 11.8962 11.532 11.8962C11.23 11.8962 11.147 11.9792 11.147 12.3962V13.7082C11.147 14.0632 11.032 14.2712 10.105 14.2712C9.20548 14.2101 8.33331 13.9366 7.56008 13.4729C6.78686 13.0093 6.13463 12.3689 5.65698 11.6042C4.52333 10.1948 3.735 8.53969 3.35498 6.77124C3.35498 6.55224 3.43798 6.35424 3.85498 6.35424H5.31398C5.68898 6.35424 5.82398 6.52124 5.96998 6.90624C6.67798 8.99024 7.88598 10.8022 8.37598 10.8022C8.56398 10.8022 8.64598 10.7192 8.64598 10.2502V8.10424C8.58398 7.12524 8.06398 7.04224 8.06398 6.68824C8.07066 6.59487 8.11344 6.50778 8.18326 6.44542C8.25309 6.38307 8.34445 6.35037 8.43798 6.35424H10.73C11.043 6.35424 11.147 6.51024 11.147 6.88524V9.78124C11.147 10.0942 11.282 10.1982 11.376 10.1982C11.564 10.1982 11.709 10.0942 12.053 9.75024C12.7918 8.84918 13.3955 7.84531 13.845 6.77024C13.8912 6.6413 13.9782 6.53093 14.0928 6.45586C14.2074 6.3808 14.3433 6.34512 14.48 6.35424H15.939C16.376 6.35424 16.469 6.57324 16.376 6.88524C15.8455 8.07369 15.1891 9.20181 14.418 10.2502C14.261 10.4902 14.198 10.6152 14.418 10.8962C14.563 11.1152 15.074 11.5422 15.418 11.9482C15.9177 12.447 16.3328 13.0239 16.647 13.6562C16.772 14.0622 16.563 14.2702 16.147 14.2702Z" fill="white" fill-opacity="0.9"/>
</svg>
