<svg width="10" height="16" viewBox="0 0 10 16" fill="none" xmlns="http://www.w3.org/2000/svg">
<path fill-rule="evenodd" clip-rule="evenodd" d="M9.51199 15.531C9.82446 15.2305 10 14.8231 10 14.3983C10 13.9735 9.82446 13.5661 9.51199 13.2657L4.02326 7.99033L9.51199 2.71493C9.81561 2.41279 9.98361 2.00812 9.97981 1.58808C9.97601 1.16804 9.80072 0.766241 9.49168 0.469216C9.18265 0.172192 8.7646 0.00371059 8.32757 6.05597e-05C7.89055 -0.00358947 7.46951 0.157884 7.15515 0.449702L0.488012 6.85771C0.175538 7.15813 0 7.56553 0 7.99033C0 8.41512 0.175538 8.82252 0.488012 9.12294L7.15515 15.531C7.46772 15.8313 7.8916 16 8.33357 16C8.77554 16 9.19942 15.8313 9.51199 15.531Z" fill="#00062C"/>
</svg>
