<svg width="19" height="15" viewBox="0 0 19 15" fill="none" xmlns="http://www.w3.org/2000/svg">
<path d="M0.5 3.5L8.39 8.76C8.71866 8.97928 9.1049 9.0963 9.5 9.0963C9.8951 9.0963 10.2813 8.97928 10.61 8.76L18.5 3.5M2.5 14.5H16.5C17.0304 14.5 17.5391 14.2893 17.9142 13.9142C18.2893 13.5391 18.5 13.0304 18.5 12.5V2.5C18.5 1.96957 18.2893 1.46086 17.9142 1.08579C17.5391 0.710714 17.0304 0.5 16.5 0.5H2.5C1.96957 0.5 1.46086 0.710714 1.08579 1.08579C0.710714 1.46086 0.5 1.96957 0.5 2.5V12.5C0.5 13.0304 0.710714 13.5391 1.08579 13.9142C1.46086 14.2893 1.96957 14.5 2.5 14.5Z" stroke="white" stroke-linecap="round" stroke-linejoin="round"/>
</svg>
