<svg width="12" height="12" viewBox="0 0 12 12" fill="none" xmlns="http://www.w3.org/2000/svg">
<path d="M0.5 1.72222C0.5 1.39807 0.628769 1.08719 0.857981 0.857981C1.08719 0.628769 1.39807 0.5 1.72222 0.5H3.72667C3.85487 0.500097 3.9798 0.540514 4.08377 0.615531C4.18774 0.690547 4.26549 0.796362 4.306 0.918L5.22144 3.66372C5.26783 3.80326 5.26234 3.95485 5.20599 4.09067C5.14964 4.22649 5.04621 4.33744 4.91467 4.40317L3.53539 5.09372C4.21147 6.59005 5.40995 7.78853 6.90628 8.46461L7.59683 7.08533C7.66256 6.95379 7.77351 6.85036 7.90933 6.79401C8.04515 6.73766 8.19674 6.73217 8.33628 6.77856L11.082 7.694C11.2037 7.73455 11.3096 7.81238 11.3846 7.91647C11.4597 8.02057 11.5 8.14563 11.5 8.27394V10.2778C11.5 10.6019 11.3712 10.9128 11.142 11.142C10.9128 11.3712 10.6019 11.5 10.2778 11.5H9.66667C4.60422 11.5 0.5 7.39578 0.5 2.33333V1.72222Z" stroke="black" stroke-linecap="round" stroke-linejoin="round"/>
</svg>
