<svg width="54" height="52" viewBox="0 0 54 52" fill="none" xmlns="http://www.w3.org/2000/svg">
<path d="M24.3011 2.47262C25.1526 -0.15754 28.8508 -0.15754 29.6994 2.47262L34.0106 15.8205C34.1961 16.393 34.5568 16.8919 35.0411 17.2458C35.5253 17.5997 36.1084 17.7905 36.7069 17.7909H50.6566C53.4068 17.7909 54.5478 21.3321 52.3255 22.9599L41.0408 31.2073C40.5561 31.5619 40.1953 32.0618 40.0103 32.6353C39.8252 33.2088 39.8253 33.8266 40.0106 34.4001L44.3189 47.7479C45.1704 50.3809 42.1761 52.5685 39.9538 50.9407L28.6691 42.6932C28.1841 42.3385 27.5999 42.1474 27.0003 42.1474C26.4006 42.1474 25.8164 42.3385 25.3314 42.6932L14.0467 50.9407C11.8244 52.5685 8.83013 50.3781 9.68159 47.7479L13.99 34.4001C14.1752 33.8266 14.1754 33.2088 13.9903 32.6353C13.8052 32.0618 13.4445 31.5619 12.9597 31.2073L1.67504 22.9599C-0.550106 21.3321 0.596526 17.7909 3.3439 17.7909H17.2908C17.8898 17.7911 18.4735 17.6006 18.9583 17.2466C19.4431 16.8927 19.8042 16.3935 19.9899 15.8205L24.3011 2.47262Z" stroke="white" stroke-linecap="round" stroke-linejoin="round"/>
</svg>
