<svg width="41" height="52" viewBox="0 0 41 52" fill="none" xmlns="http://www.w3.org/2000/svg">
<path d="M31.9286 11.8333C31.9286 14.8391 30.7245 17.7218 28.5812 19.8472C26.4379 21.9726 23.531 23.1667 20.5 23.1667C17.469 23.1667 14.5621 21.9726 12.4188 19.8472C10.2755 17.7218 9.07143 14.8391 9.07143 11.8333C9.07143 8.82755 10.2755 5.94487 12.4188 3.81946C14.5621 1.69404 17.469 0.5 20.5 0.5C23.531 0.5 26.4379 1.69404 28.5812 3.81946C30.7245 5.94487 31.9286 8.82755 31.9286 11.8333ZM20.5 31.6667C15.1957 31.6667 10.1086 33.7562 6.35786 37.4757C2.60714 41.1952 0.5 46.2399 0.5 51.5H40.5C40.5 46.2399 38.3929 41.1952 34.6421 37.4757C30.8914 33.7562 25.8043 31.6667 20.5 31.6667Z" stroke="white" stroke-linecap="round" stroke-linejoin="round"/>
</svg>
