<svg width="52" height="52" viewBox="0 0 52 52" fill="none" xmlns="http://www.w3.org/2000/svg">
<path d="M21.2542 4.2315C22.4612 -0.743833 29.5388 -0.743833 30.7458 4.2315C30.9269 4.97893 31.282 5.67304 31.782 6.25733C32.2821 6.84162 32.913 7.29959 33.6235 7.59395C34.334 7.88831 35.104 8.01074 35.8707 7.9513C36.6375 7.89185 37.3794 7.65219 38.036 7.25183C42.4078 4.5885 47.4143 9.59217 44.751 13.9668C44.3512 14.6232 44.1119 15.3646 44.0526 16.1309C43.9933 16.8971 44.1156 17.6665 44.4097 18.3766C44.7037 19.0866 45.1611 19.7173 45.7447 20.2173C46.3284 20.7173 47.0217 21.0726 47.7685 21.2542C52.7438 22.4612 52.7438 29.5388 47.7685 30.7458C47.0211 30.9269 46.327 31.282 45.7427 31.782C45.1584 32.2821 44.7004 32.913 44.4061 33.6235C44.1117 34.334 43.9893 35.104 44.0487 35.8707C44.1082 36.6375 44.3478 37.3794 44.7482 38.036C47.4115 42.4078 42.4078 47.4143 38.0332 44.751C37.3768 44.3512 36.6354 44.1119 35.8691 44.0526C35.1029 43.9933 34.3335 44.1156 33.6234 44.4097C32.9134 44.7037 32.2827 45.1611 31.7827 45.7447C31.2827 46.3284 30.9274 47.0217 30.7458 47.7685C29.5388 52.7438 22.4612 52.7438 21.2542 47.7685C21.0731 47.0211 20.718 46.327 20.218 45.7427C19.7179 45.1584 19.087 44.7004 18.3765 44.4061C17.666 44.1117 16.896 43.9893 16.1293 44.0487C15.3625 44.1082 14.6206 44.3478 13.964 44.7482C9.59217 47.4115 4.58567 42.4078 7.249 38.0332C7.64879 37.3768 7.88806 36.6354 7.94737 35.8691C8.00668 35.1029 7.88436 34.3335 7.59034 33.6234C7.29632 32.9134 6.8389 32.2827 6.25527 31.7827C5.67164 31.2827 4.97826 30.9274 4.2315 30.7458C-0.743833 29.5388 -0.743833 22.4612 4.2315 21.2542C4.97893 21.0731 5.67304 20.718 6.25733 20.218C6.84162 19.7179 7.29959 19.087 7.59395 18.3765C7.88831 17.666 8.01074 16.896 7.9513 16.1293C7.89185 15.3625 7.65219 14.6206 7.25183 13.964C4.5885 9.59217 9.59217 4.58567 13.9668 7.249C16.7888 8.97167 20.4722 7.44733 21.2542 4.2315Z" stroke="white" stroke-linecap="round" stroke-linejoin="round"/>
<path d="M34.5 26C34.5 28.2543 33.6045 30.4163 32.0104 32.0104C30.4163 33.6045 28.2543 34.5 26 34.5C23.7457 34.5 21.5837 33.6045 19.9896 32.0104C18.3955 30.4163 17.5 28.2543 17.5 26C17.5 23.7457 18.3955 21.5837 19.9896 19.9896C21.5837 18.3955 23.7457 17.5 26 17.5C28.2543 17.5 30.4163 18.3955 32.0104 19.9896C33.6045 21.5837 34.5 23.7457 34.5 26Z" stroke="white" stroke-linecap="round" stroke-linejoin="round"/>
</svg>
