<svg width="25" height="25" viewBox="0 0 25 25" fill="none" xmlns="http://www.w3.org/2000/svg">
<path d="M11.2848 6.24267C11.6445 6.48303 12.0674 6.61133 12.5001 6.61133C13.0801 6.61071 13.6361 6.38004 14.0462 5.96994C14.4563 5.55984 14.687 5.0038 14.6876 4.42383C14.6876 3.99118 14.5593 3.56825 14.3189 3.20852C14.0786 2.84879 13.7369 2.56841 13.3372 2.40284C12.9375 2.23728 12.4977 2.19396 12.0733 2.27836C11.649 2.36277 11.2592 2.57111 10.9533 2.87703C10.6474 3.18296 10.439 3.57274 10.3546 3.99707C10.2702 4.4214 10.3135 4.86124 10.4791 5.26095C10.6447 5.66066 10.9251 6.0023 11.2848 6.24267Z" fill="#154A9D"/>
<path d="M19.3575 6.64726L19.3751 6.64258C20.1173 6.44765 20.6247 7.20273 20.6247 7.8914C20.6247 8.58008 19.9997 8.9043 19.3747 9.13867C19.354 9.1465 19.3328 9.15328 19.3114 9.15898L15.8239 10.3781C15.3755 10.5465 15.1833 10.7215 15.1411 10.7996C15.1402 10.8016 15.1392 10.8036 15.138 10.8055C15.0935 10.8848 14.9618 11.223 15.1255 12.2469L15.3517 14.0047L16.6263 20.8301C16.6381 20.8826 16.648 20.9355 16.656 20.9887C16.7489 21.6215 16.2856 22.2363 15.406 22.2363C14.6403 22.2363 14.3024 21.7078 14.156 20.9887C14.156 20.9887 13.0294 14.8336 12.4825 14.8336C12.0034 14.8336 11.217 19.006 10.9309 20.5235C10.8905 20.7381 10.86 20.8996 10.8419 20.9887C10.6954 21.7078 10.3575 22.2363 9.5919 22.2363C8.71455 22.2363 8.25127 21.6242 8.34189 20.9934L8.35088 20.9438C8.354 20.9242 8.35752 20.9051 8.36143 20.8863L9.61885 14.0039L9.84541 12.2461C9.89111 11.9602 10.02 11.141 9.85869 10.7273C9.80908 10.5984 9.70752 10.4496 9.32744 10.3039L5.60791 9.14219V9.13125C4.98877 8.89805 4.37549 8.57305 4.37549 7.89062C4.37549 7.20156 4.8833 6.44765 5.62549 6.64297C5.73149 6.6706 5.83582 6.70424 5.93799 6.74375C6.96455 7.03554 10.1735 7.89492 12.4833 7.89492C14.9688 7.89492 18.497 6.90039 19.2239 6.68711C19.263 6.675 19.3021 6.66328 19.3411 6.65234L19.3575 6.64726Z" fill="#154A9D"/>
</svg>
