<svg width="28" height="29" viewBox="0 0 28 29" fill="none" xmlns="http://www.w3.org/2000/svg">
<path d="M12.1376 23.147C12.3553 23.3549 12.6461 23.469 12.9471 23.4644C13.2482 23.4599 13.5354 23.3372 13.7468 23.1228C13.9582 22.9084 14.0769 22.6195 14.0771 22.3184C14.0774 22.0173 13.9593 21.7281 13.7482 21.5134L7.58776 15.4424L23.27 15.4424C23.5742 15.4424 23.866 15.3215 24.0812 15.1064C24.2963 14.8912 24.4172 14.5994 24.4172 14.2952C24.4172 13.9909 24.2963 13.6991 24.0812 13.484C23.866 13.2688 23.5742 13.148 23.27 13.148L7.59579 13.148L13.7494 7.08501C13.9604 6.87023 14.0785 6.5811 14.0783 6.28C14.078 5.97889 13.9594 5.68997 13.748 5.47555C13.5366 5.26114 13.2494 5.13844 12.9483 5.13392C12.6472 5.1294 12.3564 5.24343 12.1387 5.4514L4.19319 13.2776C4.05791 13.411 3.9505 13.57 3.87718 13.7452C3.80387 13.9205 3.76611 14.1086 3.76611 14.2986C3.76611 14.4886 3.80387 14.6767 3.87718 14.852C3.9505 15.0273 4.05791 15.1862 4.19319 15.3196L12.1376 23.147Z" fill="#3F3F3F"/>
</svg>
